<?xml version="1.0" encoding="UTF-8" standalone="no"?>
<svg
   xmlns:dc="http://purl.org/dc/elements/1.1/"
   xmlns:cc="http://creativecommons.org/ns#"
   xmlns:rdf="http://www.w3.org/1999/02/22-rdf-syntax-ns#"
   xmlns:svg="http://www.w3.org/2000/svg"
   xmlns="http://www.w3.org/2000/svg"
   id="svg2696"
   version="1.1"
   viewBox="0 0 8.5473132 8.0958783"
   style="clip-rule:evenodd;fill-rule:evenodd;image-rendering:optimizeQuality;shape-rendering:geometricPrecision;text-rendering:geometricPrecision"
   height="55.808296mm"
   width="58.920227mm"
   xml:space="preserve"><metadata
   id="metadata2700"><rdf:RDF><cc:Work
       rdf:about=""><dc:format>image/svg+xml</dc:format><dc:type
         rdf:resource="http://purl.org/dc/dcmitype/StillImage" /><dc:title></dc:title></cc:Work></rdf:RDF></metadata>
 <defs
   id="defs2667">
  <style
   id="style2665"
   type="text/css">
   <![CDATA[
    .fil5 {fill:black}
    .fil4 {fill:#BAB9B9}
    .fil1 {fill:white}
    .fil2 {fill:#C30037}
    .fil3 {fill:#C4C4C4}
    .fil7 {fill:black;fill-rule:nonzero}
    .fil0 {fill:white;fill-rule:nonzero}
    .fil6 {fill:#C30037;fill-rule:nonzero}
   ]]>
  </style>
 
  
  
  
  
  
  
  
  
  
  
  
  
  
 </defs>
 <path
   class="fil0"
   d="m 8.0923766,2.9716851 0.020904,0.00135 c 0.04513,0.00299 0.089114,0.0788 0.095555,0.042794 0.00776,-0.04336 0.010445,-0.056982 0.013317,-0.071735 0.016552,-0.084878 0.035802,-0.183494 0.03615,-0.257013 1.451e-4,-0.031726 0.00312,-0.056344 0.00189,-0.056344 -0.025532,-1.015e-4 -0.049482,-0.00682 -0.070255,-0.018525 -0.019671,0.023501 -0.046668,0.040677 -0.077465,0.048017 -0.00251,0.00196 -0.00647,0.00617 -0.010778,0.011185 -7.399e-4,8.704e-4 -0.0017,-2.321e-4 -0.00271,-0.00232 l -0.00572,-0.00489 c 0.00232,0.029593 9.575e-4,0.070023 -6.383e-4,0.117895 -0.00197,0.058969 -0.00444,0.131937 -2.466e-4,0.1895865 z m 0.00277,0.290349 c -0.029579,-0.00196 -0.056431,-0.00373 -0.067644,-0.00234 l -1.45e-5,-8.7e-5 c -0.056895,0.00783 -0.10069,-0.00347 -0.133896,-0.029361 -0.026924,0.298981 -0.040169,0.569616 -0.052021,0.812122 -0.047915,0.979804 -0.075188,1.53686 -0.829864,1.71667 L 7.011678,5.7589075 C 6.987641,5.7647875 6.96089,5.7687875 6.931877,5.7731235 6.900485,5.7777935 6.886805,5.7417895 6.873531,5.7497675 6.847463,5.8331515 6.802463,5.9153455 6.743639,5.9877485 6.669597,6.0789075 6.572287,6.1565615 6.461877,6.2036215 6.345998,6.2530305 6.216121,6.2693505 6.082863,6.2343895 6.002917,6.2134135 5.923116,6.1742885 5.846275,6.1131865 5.838875,6.1078065 5.831884,6.1016245 5.825414,6.0946765 5.78452,6.0508235 5.733602,5.9874585 5.695,5.9157955 5.68544,5.8980535 5.676591,5.8797615 5.668729,5.8610185 c -0.122073,0.00309 -0.24416,-0.00155 -0.371673,-0.0064 -0.048713,-0.00184 -0.098268,-0.00373 -0.147721,-0.00519 -0.025314,0.075202 -0.060144,0.143963 -0.102634,0.205094 -0.082093,0.118113 -0.19346,0.208837 -0.320509,0.26386 -0.127716,0.055314 -0.270446,0.073868 -0.41454,0.047364 C 4.207277,6.3465545 4.103134,6.3042385 4.004693,6.2358395 l 2.321e-4,-3.337e-4 -0.00193,-0.00136 C 3.9352808,6.1854336 3.8804166,6.1102457 3.8398996,6.0304157 c -0.02189,-0.043128 -0.040154,-0.088896 -0.054197,-0.132866 -0.072025,0.0029 -0.136072,0.00222 -0.201395,0.00152 -0.045304,-4.787e-4 -0.091261,-9.72e-4 -0.142208,-1.45e-5 -0.050294,0.242826 -0.127992,0.450662 -0.54098,0.548799 l -8.71e-5,-3.482e-4 c -0.0046,0.00109 -0.0093,0.00197 -0.014086,0.00261 -0.2796,0.037993 -0.453563,0.00415 -0.585573,-0.101967 C 2.1856105,6.255075 2.1206645,6.120004 2.0528175,5.93577 1.9387525,5.897893 1.7274495,5.819268 1.5606665,5.525756 1.3756055,5.281378 1.2343985,4.931218 1.0921905,4.578548 0.87138548,4.030939 0.64776648,3.476498 0.30735448,3.433428 0.28558008,3.432018 0.26379118,3.425678 0.24367058,3.413946 0.13561058,3.3509 0.06696558,3.26772 0.03033658,3.172092 c -0.0496851,-0.129747 -0.0353961,-0.274276 0.0214407,-0.416281 0.0491628,-0.12274 0.132039,-0.24564 0.23167,-0.353685 0.002394,-0.00299 0.004932,-0.00592 0.007601,-0.00876 0.141323,-0.150883 0.31974,-0.27416 0.488176,-0.328502 0.002495,-0.098587 -4.0619e-4,-0.210259 -0.003395,-0.325136 -0.0104157,-0.401035 -0.0217309,-0.83675498 0.181753,-1.00348998 l 2.6111e-4,3.1915e-4 c 0.0883742,-0.0743173 0.34354511,-0.181289 0.59023011,-0.232671 0.126251,-0.0262859 0.254475,-0.0397626 0.363753,-0.0295789 0.140192,0.0130559 0.254315,0.0644818 0.314604,0.172077 0.00615,0.0109815 0.011605,0.0223547 0.016363,0.0341195 0.094554,0.034018 0.144964,0.0975133 0.19214,0.156947 0.014057,0.0177125 0.027185,0.0342501 0.034685,0.0397916 0.042011,-0.003844 0.081498,0.0104883 0.114384,0.0390372 l -4.36e-5,4.352e-5 6.093e-4,5.2224e-4 c 0.03264,0.028549 0.053965,0.0710968 0.055908,0.12004197 l 1.451e-4,0.00476 c 4.062e-4,0.031987 -0.00763,0.067804 -0.027562,0.10201 -0.032321,0.055401 -0.105434,0.118998 -0.245016,0.146459 0.070589,0.020092 0.140163,0.054501 0.207865,0.105071 0.107929,-0.131328 0.265949,-0.282821 0.537919,-0.101242 0.105086,0.070154 0.175762,0.14656 0.223039,0.22124 l 0.00621,-0.00992 c 0.029927,-0.047756 0.117344,-0.137203 0.207096,-0.199843 0.07571,-0.052847 0.160631,-0.0929 0.236501,-0.0929 0.045957,0 0.088157,0.00281 0.130052,0.00975 0.013636,-0.189035 0.097339,-0.37749099 0.226941,-0.52017699 0.139553,-0.153654 0.332897,-0.257013 0.551802,-0.257013 l 0.024719,9.1391e-4 c 0.114878,0.004091 0.231467,0.0563581 0.333449,0.130675 0.090245,0.0657584 0.171453,0.150361 0.229306,0.23286 0.046914,-0.0751732 0.104868,-0.142803 0.172208,-0.192024 0.07645,-0.0558649 0.163199,-0.0888384 0.258493,-0.0863722 0.022717,-0.0910724 0.062088,-0.174529 0.113833,-0.246946 0.076203,-0.106667 0.179563,-0.189326 0.296283,-0.237255 0.119404,-0.0490323 0.252589,-0.0619577 0.385498,-0.0277511 0.126135,0.0324512 0.249891,0.106565 0.357979,0.231612 0.096048,0.111251 0.126526,0.206603 0.153552,0.30532 0.076102,-0.053863 0.156976,-0.0910144 0.30049,-0.0910144 0.10571,0 0.176632,0.0570979 0.221893,0.140612 0.028912,0.0533843 0.044709,0.118809 0.051063,0.181071 0.354744,-0.0131865 0.616661,0.122 0.767312,0.30687198 0.069574,0.085386 0.115676,0.181376 0.136812,0.278991 0.021861,0.10098 0.017277,0.20447 -0.015203,0.301273 -0.057301,0.170699 -0.198943,0.315373 -0.432166,0.380958 0.055299,-0.00569 0.108045,-0.00692 0.15921,0.00458 0.137218,0.030812 0.219267,0.113964 0.200771,0.314909 0.103519,0.05469 0.137,0.172846 0.136333,0.31385 -5.077e-4,0.10436 -0.022108,0.215017 -0.040677,0.310281 l -0.013315,0.068341 c -0.039226,0.219006 -0.23933,0.205747 -0.398162,0.195201 z M 7.7754804,2.3127951 c -0.01793,-0.021789 -0.02971,-0.049032 -0.032321,-0.079264 -5.223e-4,-0.00611 -6.818e-4,-0.012157 -4.497e-4,-0.018133 h -1.161e-4 c 8.7e-5,-0.00222 8.7e-5,-0.025474 8.7e-5,-0.049497 h 5.658e-4 c -5.8e-5,-0.167159 -1.161e-4,-0.379855 0.234644,-0.390561 0.12776,-0.037238 0.20302,-0.109844 0.231003,-0.193228 0.015435,-0.046015 0.017219,-0.097006 0.00612,-0.148286 -0.011821,-0.054632 -0.038063,-0.1088857 -0.077855,-0.1577157 -0.10114,-0.124118 -0.287796,-0.213552 -0.550902,-0.19903 l -0.097136,0.024618 c -0.07761,0.019395 -0.15628,-0.027795 -0.175675,-0.10540501 -0.00367,-0.0146662 -0.00493,-0.0293758 -0.00409,-0.0437084 l -0.00131,-0.0983257 v -0.001697 h -5.657e-4 c 0,-0.0336118 -0.00377,-0.0700523 -0.013288,-0.0961352 -0.07188,0.006586 -0.113645,0.0396175 -0.165506,0.0806712 -0.030174,0.0238633 -0.062625,0.0495545 -0.100603,0.0749846 -0.066339,0.0444337 -0.156163,0.0266776 -0.200597,-0.039661 -0.00521,-0.007776 -0.00955,-0.0158412 -0.013056,-0.0241535 -0.034627,-0.0735774 -0.051295,-0.135158 -0.067441,-0.194824 -0.020077,-0.0742592 -0.039153,-0.144689 -0.098485,-0.213406 -0.067209,-0.0777553 -0.139655,-0.122682 -0.21065,-0.140946 -0.069762,-0.0179447 -0.140351,-0.0108945 -0.204166,0.0153045 -0.066498,0.0273014 -0.12599,0.0752312 -0.170481,0.137508 -0.050512,0.0706906 -0.081411,0.160051 -0.081411,0.259262 0,0.0801054 -0.06496,0.145066 -0.145066,0.145066 -0.027214,0 -0.052659,-0.0075 -0.074433,-0.0205413 -0.011286,-0.005425 -0.022181,-0.00927 -0.032625,-0.0117068 -0.035904,-0.008356 -0.071184,0.003438 -0.103403,0.0269823 -0.046203,0.0337713 -0.087098,0.0883306 -0.119592,0.14972301 -0.028549,0.053935 -0.049888,0.112092 -0.062509,0.166333 -0.018148,0.077929 -0.096048,0.126381 -0.173978,0.108234 -0.019569,-0.00456 -0.037267,-0.012882 -0.052543,-0.024037 -0.0619,-0.043679 -0.100429,-0.130704 -0.130661,-0.199074 -0.00846,-0.01912 -0.015783,-0.035672 -0.018554,-0.040531 -0.039226,-0.0685436 -0.107073,-0.14484801 -0.184785,-0.20148201 -0.059201,-0.0431426 -0.121101,-0.0732728 -0.173673,-0.0751441 -0.00408,-1.3056e-4 -7.834e-4,2.176e-4 -0.014507,2.176e-4 -0.131067,0 -0.249745,0.0650911 -0.337597,0.161821 -0.091522,0.100763 -0.148983,0.23331001 -0.153639,0.36298401 -1.161e-4,0.00324 1.741e-4,0.00236 1.741e-4,0.01677 0,0.016799 0.00235,0.03338 0.00434,0.047596 0.00656,0.04674 0.011837,0.083993 -0.00952,0.132909 -0.045115,0.103345 -0.118882,0.133968 -0.272231,0.067064 -0.017916,-0.00782 -0.03631,-0.013114 -0.056561,-0.016451 -0.022529,-0.00373 -0.05012,-0.00525 -0.083761,-0.00525 -0.010459,0 -0.038747,0.017089 -0.071039,0.039632 -0.060376,0.042142 -0.113253,0.092828 -0.127745,0.115966 -0.102866,0.164142 -0.147924,0.253778 -0.166666,0.291089 -0.049163,0.097774 -0.070821,0.140757 -0.194185,0.091928 l -1.161e-4,3.047e-4 c -0.101822,-0.040053 -0.099123,-0.085052 -0.090695,-0.163866 0.00441,-0.041199 0.022108,-0.206342 -0.183334,-0.343502 -0.076958,-0.051382 -0.139089,0.026649 -0.180839,0.07909 -0.052528,0.065976 -0.094568,0.118823 -0.178068,0.125772 -0.048626,0.00399 -0.093611,-0.01648 -0.122842,-0.051136 -0.088026,-0.091101 -0.175602,-0.130487 -0.259073,-0.130661 -0.101981,-2.031e-4 -0.208402,0.054501 -0.309745,0.143905 -0.15744,0.138915 -0.206603,0.377142 -0.222009,0.451895 -0.018177,0.0882 -0.027171,0.138291 -0.143891,0.142353 -0.036586,0.00122 -0.065396,-0.00384 -0.087605,-0.015464 -0.051934,0.00435 -0.108567,0.00737 -0.157484,0.00751 -0.101981,3.191e-4 -0.198349,-0.01236 -0.234862,-0.049409 l -0.00316,-0.00334 c -0.020382,0.051832 -0.0695157,0.088316 -0.12638104,0.091609 -0.13024,0.017031 -0.293425,0.124829 -0.425072,0.265369 -0.00219,0.00232 -0.004439,0.00455 -0.006746,0.0067 -0.076029,0.082586 -0.138567,0.17479 -0.174732,0.265079 -0.030754,0.076841 -0.040749,0.149128 -0.0191777,0.205471 0.0111991,0.029245 0.032988,0.056706 0.0674702,0.080961 0.492339,0.08173 0.74379604,0.705107 0.99212004,1.32097 0.136376,0.338207 0.271766,0.673947 0.435212,0.886469 0.00514,0.00666 0.00959,0.013622 0.013404,0.020817 0.11849,0.211245 0.271244,0.261539 0.347128,0.28652 0.00232,7.689e-4 0.00458,0.00158 0.00685,0.00245 0.069806,0.023037 0.115342,0.040343 0.141903,0.115124 0.059303,0.166985 0.107102,0.283836 0.177416,0.340368 0.064525,0.051861 0.169669,0.066281 0.354962,0.042171 0.271389,-0.065744 0.301374,-0.221487 0.335378,-0.39838 l 0.0067,-0.034656 c 0.013027,-0.068123 0.071822,-0.115908 0.138436,-0.11759 m -0.84704,-3.92625 c -0.018741,-0.022215 -0.030985,-0.050285 -0.033553,-0.08146 m -0.726809,-0.121754 c 0.066426,-0.058607 0.136333,-0.107291 0.208793,-0.143557 -0.066919,0.00196 -0.126657,-0.00187 -0.175675,-0.015275 -0.135825,-0.037151 -0.204137,-0.117054 -0.171947,-0.26315 0.00396,-0.062204 0.030623,-0.0820783 0.074462,-0.11035198 0.014028,-0.009038 0.049047,-0.0316099 0.075521,-0.0591144 0.00125,-0.001291 0.00248,-0.002655 0.00371,-0.004076 -0.011678,2.6112e-4 -0.019366,7.2533e-4 -0.021876,0.001306 -0.119882,0.0274175 -0.213319,0.0504394 -0.295311,0.073795 -0.050802,0.0144776 -0.095584,0.028665 -0.138074,0.0437374 -0.01632,0.11128 -0.024255,0.333855 -0.022123,0.553557 0.00178,0.184379 0.010082,0.359372 0.025749,0.452867 0.0012,-0.00862 0.00531,-0.015943 0.017321,-0.015972 0.051818,-1.451e-4 0.095627,0.00882 0.12422,0.014202 0.034192,-0.135999 0.112005,-0.366306 0.295224,-0.527967 z m 0.359981,-0.54637598 c -0.019874,0.0218324 -0.04632,0.0375866 -0.076203,0.0441145 l 0.00807,0.004657 c 0.00244,4.0618e-4 0.00382,0.001015 0.00329,0.001915 -0.010923,0.0188731 -0.022659,0.0390953 -0.038268,0.060536 0.069704,-0.00573 0.153828,-0.016987 0.240766,-0.028622 l 0.00225,-2.901e-4 -0.00238,-0.00299 c -0.025517,-0.0321466 -0.053384,-0.0672381 -0.09982,-0.0710968 -0.013201,-0.001088 -0.025836,-0.003902 -0.037703,-0.008225 z m -0.076203,0.0441145 c -0.00551,0.001204 -0.011127,0.002089 -0.016842,0.00264 -0.00836,0.001712 0.015711,4.6421e-4 0.024908,0.002016 z m 1.59201,4.62762998 c 0.092987,10e-4 0.183218,0.00197 0.29856,-0.00896 0.078916,-0.00746 0.149026,0.050019 0.157368,0.128644 l 1.741e-4,-1.45e-5 c 0.00473,0.043375 0.024386,0.108814 0.055618,0.170351 0.021296,0.041953 0.046146,0.0788 0.071663,0.09805 l 2.031e-4,-2.902e-4 c 0.064076,0.044521 0.129645,0.071663 0.193634,0.083427 0.086416,0.015899 0.171802,0.00487 0.247947,-0.028099 0.076812,-0.033264 0.14524,-0.08968 0.19697,-0.164113 0.041997,-0.060435 0.072562,-0.132213 0.087359,-0.212609 0.013259,-0.072388 0.078292,-0.122233 0.149897,-0.118345 0.094627,0.00119 0.179171,0.00441 0.261307,0.00751 0.158601,0.00602 0.308251,0.011707 0.460222,6.963e-4 0.079235,-0.00558 0.148083,0.05366 0.154568,0.132619 l 1.305e-4,-1.45e-5 c 0.00202,0.024313 0.012969,0.05218 0.027809,0.079728 0.022993,0.042678 0.054168,0.082296 0.080903,0.111802 0.042258,0.03277 0.08408,0.053428 0.124496,0.064018 0.066382,0.017408 0.132764,0.00856 0.193155,-0.01719 0.06586,-0.02807 0.124916,-0.075623 0.170699,-0.131995 0.039646,-0.048815 0.068442,-0.102866 0.082165,-0.155177 0.00485,-0.018713 0.013158,-0.035585 0.024037,-0.050178 0.058113,-0.082702 0.170714,-0.099573 0.264499,-0.113543 0.022268,-0.00332 0.042823,-0.0064 0.053181,-0.00899 l 0.00174,-4.061e-4 -4.35e-5,-1.596e-4 c 0.543228,-0.129428 0.566627,-0.607391 0.607739,-1.44806 0.021687,-0.443597 0.047915,-0.979703 0.152087,-1.61373 0.00727,-0.044724 0.034366,-0.081295 0.070821,-0.102242 m -2.72952,3.24531 c 0.00609,3.191e-4 0.012244,0.00104 0.018409,0.00218 m 3.03227,-2.8972 -0.00344,3.772e-4 5.81e-5,7.398e-4 0.00572,0.00489 c -7.544e-4,-0.00157 -0.00155,-0.00368 -0.00234,-0.00601 z"
   id="path2670"
   style="fill:#ffffff;fill-rule:nonzero" /><path
   class="fil1"
   d="m 8.0099366,3.1157651 c 0.087707,-0.010967 0.318768,0.050439 0.341137,-0.074433 0.036426,-0.203237 0.131618,-0.554021 -0.090318,-0.555095 -0.00328,-0.00931 -0.00656,-0.018626 -0.00984,-0.02794 0.078307,-0.348492 -0.139902,-0.257289 -0.363825,-0.237226 0.00428,-0.107929 -0.019395,-0.301128 0.109597,-0.301128 0.646109,-0.166623 0.412016,-1.04366001 -0.433051,-0.98657901 -0.036557,0.00927 -0.073099,0.0185394 -0.109655,0.0277946 -4.787e-4,-0.0362085 -9.574e-4,-0.0724024 -0.00144,-0.108596 0,-0.105448 -0.032016,-0.242405 -0.13127,-0.242405 -0.18551,0 -0.2355,0.0892736 -0.373661,0.181797 -0.078626,-0.163852 -0.058258,-0.294252 -0.189746,-0.446542 -0.368482,-0.426247 -0.92114,-0.112223 -0.92114,0.365755 -0.267008,-0.141367 -0.475889,0.174906 -0.533668,0.42298301 -0.034061,-0.0091 -0.087141,-0.15659901 -0.108828,-0.19450401 -0.088954,-0.155424 -0.296964,-0.342646 -0.479153,-0.349159 -0.367147,-0.013172 -0.655741,0.345591 -0.655741,0.68629201 0,0.096686 0.050164,0.169379 -0.074549,0.114965 -0.058491,-0.025532 -0.118446,-0.034163 -0.198117,-0.034163 -0.103185,0 -0.282966,0.163185 -0.32119,0.22417 -0.4128,0.658672 0.068355,0.166463 -0.432122,-0.167682 -0.26489,-0.17685 -0.378274,0.174413 -0.451271,0.180491 -0.254359,-0.269474 -0.535685,-0.213218 -0.775537,-0.00162 -0.259175,0.228667 -0.272767,0.64299 -0.276409,0.542547 -0.00673,0.00448 -0.358139,0.013752 -0.370542,0.00115 -0.075637,-0.153987 -0.070009,-1.08165 -0.012026,-1.23690003 0.14009,-0.0559954 0.275219,-0.0934515 0.523891,-0.150346 0.048742,-0.0111701 0.277206,-0.011025 0.277206,0.0561405 0,0.0235587 0.014782,0.0116488 0.014782,0.0352075 -0.069124,0.009879 -0.073665,0.0868074 -0.137247,0.152827 -0.049438,0.0513533 -0.109699,0.084646 -0.109699,0.0862272 -0.047306,0.172933 0.268648,0.115661 0.589809,0.074027 0.22462,-0.029129 0.203078,-0.147387 0.167508,-0.129544 -0.158804,0 -0.146096,-0.20494909 -0.353468,-0.22221209 0,-0.377157 -0.918833,-0.0880695 -1.07098,0.0463776 C 0.83391573,1.0249939 0.95181043,1.7805119 0.91837273,2.1816039 c -0.428887,0.046073 -1.08884,0.822785 -0.601603,1.10711 0.683202,0.074288 0.88989207,1.53963 1.36477007,2.15704 0.197478,0.355252 0.473016,0.344735 0.487189,0.384671 0.135216,0.380755 0.227318,0.5404 0.698957,0.476324 0.384193,-0.09129 0.407055,-0.306872 0.454303,-0.547783 0.224402,-0.013607 0.353714,0.00722 0.576753,-0.013926 0.011417,0.104694 0.082804,0.295659 0.188687,0.371804 0.392186,0.272564 0.867683,0.03779 0.950878,-0.414323 0.268241,0.0031 0.500622,0.025604 0.739386,0.0083 0.00902,0.108335 0.093742,0.220964 0.153697,0.285258 0.345823,0.28092 0.733888,-0.019627 0.80999,-0.309701 0.026721,-0.047306 0.173978,-0.052688 0.236893,-0.068442 0.96244,-0.2293201 0.553223,-1.2566801 0.869191,-3.17966 0.012273,0.00467 0.144181,-0.052311 0.199814,-0.061885 0.059709,0.03573 0.031407,0.081454 0.031407,0.14273 -0.079075,0.020396 -0.135027,0.116343 -0.130081,0.151318 0.00962,0.072286 -0.037891,0.4601929 0.061334,0.445323 z"
   id="path2672"
   style="fill:#ffffff" /><path
   class="fil2"
   d="m 0.23315155,2.9684751 c 0.221327,0 0.27577,-0.14817 0.597048,-0.093481 0.17715405,0.030159 0.43640205,0.090362 0.59063605,0.146299 0.471305,0.170888 1.00471,0.192822 1.50213,0.192822 0.492426,0 1.07342,-0.279919 1.5359,-0.46057 0.141932,-0.05543 0.376083,-0.147692 0.490671,-0.202672 l 0.02456,-0.159674 c -0.071866,0.016741 -0.408404,0.1792 -0.491367,0.221008 -0.154655,0.077929 -0.329851,0.144703 -0.498592,0.213784 -0.501261,0.205181 -0.918862,0.302143 -1.4542,0.302143 -0.308903,0 -0.702453,-0.087852 -0.965428,-0.152247 -0.234891,-0.057519 -0.66430005,-0.228493 -0.90146905,-0.228493 h -0.0491341 c -0.176081,0 -0.318275,0.103011 -0.3807549,0.221081 z"
   id="path2674"
   style="fill:#c30037" /><path
   class="fil2"
   d="m 6.1777666,2.0473151 c 0.026852,0 0.356732,-0.133635 0.434763,-0.154785 0.14289,-0.038733 0.400425,-0.021528 0.400425,-0.189122 v -0.061421 c 0,-0.047611 -0.067499,-0.098253 -0.122827,-0.098253 h -0.073694 c -0.119143,0 -0.872035,0.327167 -0.872035,0.405314 0,0.062146 0.066513,0.098268 0.1351,0.098268 z m -5.05344,2.0859 0.050091,0.123799 c -0.01001,0.00837 0.746799,0.087808 0.922982,0.138872 0.057997,0.033003 0.189601,0.054429 0.267879,0.076029 0.170177,0.046943 0.412466,0.049032 0.599441,0.082978 0.137377,0.024937 0.509254,0.010271 0.670625,0.010271 0.297385,0 1.53528,-0.141193 1.53528,-0.307047 v -0.061421 c 0,-0.064714 -0.128354,0.00846 -0.174195,0.022326 -0.064003,0.019381 -0.150187,0.04571 -0.211405,0.058795 -0.15657,0.033467 -0.277366,0.069327 -0.442378,0.09805 -0.316925,0.05514 -0.609727,0.10333 -0.977512,0.10333 -0.744087,0 -1.49862,-0.518756 -2.2408,-0.345982 z m 4.07085,0.777423 -0.012273,-0.11054 c -0.51996,0.147213 -1.44158,0.248803 -2.16898,0.209403 -0.025488,-0.00138 -0.041822,0.014246 -0.041822,0.034671 0,0.034323 0.00292,0.073694 0.049119,0.073694 0.778308,0.00837 1.44519,-0.015928 2.17396,-0.207227 z m 0.712375,0.305494 c 0.03998,0 0.1351,-0.08498 0.1351,-0.147387 0,-0.04925 -0.06747,-0.098268 -0.11054,-0.098268 -0.061493,0 -0.147387,0.057301 -0.147387,0.11054 v 0.012287 c 0,0.063263 0.07072,0.122827 0.122827,0.122828 z m 1.11767,-0.22108 c 0.066774,-0.035338 0.147387,-0.058012 0.147387,-0.159674 0,-0.01529 -0.01867,-0.049134 -0.049119,-0.049134 h -0.024574 c -0.080802,0 -0.15966,0.043056 -0.15966,0.122827 0,0.015827 0.072156,0.073969 0.085966,0.085981 z m -1.57212,0.515854 h -0.1351 v 0.112063 c 0,0.078205 0.441305,0.023036 0.515854,0.023036 0.602589,0 1.52752,-0.097644 1.63353,-0.552701 -0.334667,0.224112 -1.41429,0.417601 -2.01428,0.417601 z"
   id="path2676"
   style="fill:#c30037" /><polygon
   transform="translate(1.6554492e-5,-4.9108921e-6)"
   class="fil2"
   points="3.9301,5.6583 3.92998,5.59503 3.41452,5.62618 3.3037,5.62145 3.3037,5.68286 3.69724,5.6875 "
   id="polygon2678"
   style="fill:#c30037" /><path
   class="fil2"
   d="m 1.9526766,5.6337151 0.229538,0.073258 0.00382,-0.011837 c 0.00789,-0.032945 0.012287,-0.023153 0.012287,-0.049134 0,-0.05247 -0.244131,-0.067137 -0.2456403,-0.012287 z"
   id="path2680"
   style="fill:#c30037" /><path
   class="fil3"
   d="m 2.5790566,5.6951351 c 0,0.080802 0.04307,0.15966 0.122827,0.15966 h 0.02456 c 0.09026,0 0.147387,-0.136522 0.147387,-0.22108 v -0.036847 c 0,-0.054095 -0.078916,-0.061406 -0.1351,-0.061406 h -0.012287 c -0.079583,0 -0.147387,0.085748 -0.147387,0.159673 z m -0.982575,-3.78294 c -0.140351,0.074274 -0.130995,0.146212 -0.22108,0.208808 0.044521,0.017118 0,0.039371 0,0.122813 0,0.100313 0.018641,0.164302 0.11054,0.171961 -0.010807,-0.046392 -0.02456,-0.076841 -0.02456,-0.135114 v -0.049119 l 0.02456,-0.012287 c -0.02865,-0.049235 0.078843,-0.206052 0.135114,-0.22108 0.160777,-0.077146 0.338076,0.040749 0.393027,0.122827 -0.023805,0.04497 -0.061406,0.106348 -0.061406,0.171947 v 0.061406 c 0,0.062045 0.024603,0.084617 0.085966,0.085981 -0.01484,-0.022166 -0.02456,-0.0216 -0.02456,-0.049134 v -0.073693 c 0,-0.064612 0.014768,-0.105652 0.036847,-0.147387 l 0.047233,0.038936 0.00189,-0.112629 c 0.15921,-0.067151 0.276539,-0.136522 0.426842,0.015319 0.033916,0.034265 0.111628,0.133997 0.150433,0.144355 v -0.049134 c 0,-0.095018 -0.171845,-0.233368 -0.282501,-0.233368 -0.135201,0 -0.202033,0.00744 -0.319334,0.085981 -0.065178,-0.04365 -0.076493,-0.084298 -0.162024,-0.132735 -0.093422,-0.052906 -0.19156,-0.026474 -0.231003,-0.051498 l -0.085981,0.036847 z m 0.700088,0.687816 c 0,0.06718 0.065193,0.1351 0.1351,0.1351 0.052195,0 0.11054,-0.06702 0.11054,-0.122827 v -0.02456 c 0,-0.041837 -0.068384,-0.073694 -0.11054,-0.073694 h -0.012273 c -0.067572,0 -0.122827,0.016262 -0.1228274,0.08598 z m 0.540414,-0.024574 c -0.01146,-0.076435 0.0816,-0.184234 0.159674,-0.184234 h 0.11054 c 0.073374,0 0.111541,0.069037 0.184234,0.085981 0,-0.116793 -0.084051,-0.147387 -0.196521,-0.147387 h -0.073694 c -0.132184,0 -0.24564,0.106159 -0.24564,0.24564 0,0.064163 0.00899,0.109104 0.073694,0.11054 z m 0.663241,-0.442161 c 0,-0.193721 0.140424,-0.266297 0.304,-0.272622 0.196419,-0.0076 0.203049,0.188644 0.310122,0.26035 0,-0.15258 -0.118736,-0.307061 -0.257927,-0.307061 h -0.122827 c -0.134636,0 -0.282487,0.161357 -0.282487,0.294774 0,0.044463 0.014724,0.069806 0.061406,0.073694 -0.00812,-0.034845 -0.012287,-0.021006 -0.012287,-0.049135 z m 0.331621,0.417601 v -0.02456 c 0,-0.02865 -0.03277,-0.061421 -0.061406,-0.061421 h -0.085981 c -0.028738,0 -0.049119,0.020382 -0.049119,0.049134 v 0.036847 c 0,0.029724 0.056257,0.085981 0.085966,0.085981 h 0.024574 c 0.02971,0 0.085966,-0.056257 0.085966,-0.085981 z m 0.368467,-0.11054 c 0,-0.16391 0.15084,-0.147387 0.270214,-0.147387 l 0.13964,0.107973 0.00775,-0.00972 c 0,-0.124858 -0.112513,-0.15966 -0.233368,-0.15966 -0.116488,0 -0.233353,0.072707 -0.233353,0.184234 v 0.098253 h 0.049119 v -0.073693 z m 0.307061,-0.650969 c 0,-0.081019 0.087982,-0.1351 0.171947,-0.1351 h 0.036847 c 0.057664,0 0.014231,0.046987 0.11054,0.049134 v -0.049134 c 0,-0.048176 -0.060754,-0.061406 -0.11054,-0.061406 h -0.073694 c -0.082891,0 -0.209272,0.094394 -0.196506,0.196506 l 0.014013,0.134897 c 0.029115,0.00846 0.130893,0.088621 0.113688,0.02102 -0.0086,-0.0338 -0.066295,-0.078205 -0.066295,-0.14363 z m 0.786069,-0.454433 -0.024574,-0.085981 c -0.031102,-0.035788 -0.057461,-0.085981 -0.122813,-0.085981 h -0.073694 c -0.091812,0 -0.171961,0.073606 -0.171961,0.159674 v 0.073693 h 0.036847 c 0.002,-0.089738 0.10555,-0.171947 0.184234,-0.171947 0.073244,0 0.079685,0.066266 0.171961,0.1105407 z m -0.159674,0.540414 c 0,-0.055009 0.077349,-0.11054 0.1351,-0.11054 h 0.036847 c 0.093872,0 0.05865,0.056561 0.122827,0.073694 0.016044,-0.032379 0.012287,0.010111 0.012287,-0.036847 v -0.02456 c 0,-0.049482 -0.10555,-0.073694 -0.159674,-0.073694 -0.087112,0 -0.196521,0.067847 -0.196521,0.15966 v 0.085981 c 0,0.040619 0.051716,0.076827 0.085981,0.085981 0,-0.089041 -0.036847,-0.091667 -0.036846,-0.1596748 z m 0.442161,-0.294774 c 0.00495,-0.045203 0.080018,-0.122827 0.1351,-0.122827 h 0.049134 c 0.093945,0 0.042446,0.061523 0.1351,0.11054 0,-0.069211 -0.025082,-0.15966 -0.085966,-0.15966 h -0.098268 c -0.069211,0 -0.15966,0.078016 -0.15966,0.147387 0,0.016566 0.013622,0.018423 0.02456,0.02456 z m -5.34278005,1.3879 c -0.006412,0.027534 -0.0122726,0.02823 -0.0122726,0.061406 v 0.036847 c 0,0.028926 0.0391533,0.077451 0.0742883,0.079264 l 0.6258,-0.066977 H 1.1051993 c 0.720484,0 1.09885,0.38074 1.74407,0.38074 h 0.208793 c 0.369802,0 0.781078,-0.163852 1.05464,-0.271839 0.146691,-0.057896 0.307438,-0.139031 0.451938,-0.211303 0.087605,-0.043824 0.384396,-0.214799 0.449733,-0.230147 l -0.064844,-0.195592 c -0.621317,0.241825 -1.4607,0.663241 -2.02657,0.663241 h -0.22108 c -0.397945,0 -0.98816,-0.086619 -1.28105,-0.192822 -0.154234,-0.055937 -0.413481,-0.11614 -0.59063605,-0.146299 -0.321277,-0.05469 -0.375721,0.093481 -0.597048,0.093481 z m 5.14626005,1.49843 v 0.073694 c 0,0.141541 0.149418,0.307061 0.294774,0.307061 0.045493,0 0.055488,-0.011982 0.073694,-0.036847 -0.180796,-0.015043 -0.282487,-0.287463 -0.282487,-0.503582 -0.030652,0.022456 -0.085981,0.107711 -0.08598,0.1596742 z m 0.859762,-0.282487 c 0.019947,0 0.293846,-0.108408 0.342327,-0.124394 0.101038,-0.033336 0.259494,-0.056112 0.259494,-0.194954 v -0.036847 c -0.035324,0.00944 -0.243522,0.123698 -0.323062,0.155931 -0.083732,0.033945 -0.263469,0.108698 -0.340165,0.12657 0.016262,0.030725 0.021629,0.073694 0.061406,0.073694 z m 0.822901,-0.282501 v 0.085981 c 0,0.129399 0.153799,0.24564 0.294774,0.24564 -0.038138,-0.142846 -0.22108,-0.092378 -0.22108,-0.540414 -0.04542,0.033278 -0.073694,0.129573 -0.073694,0.208793 z m -2.80034,1.78093 c 0,0.081237 0.091319,0.159674 0.171947,0.159674 0.104941,0 0.196521,-0.147924 0.196521,-0.270214 0,-0.058824 -0.042664,-0.1351 -0.11054,-0.1351 -0.118084,0 -0.257927,0.141874 -0.257928,0.24564 z"
   id="path2682"
   style="fill:#c4c4c4" /><path
   class="fil4"
   d="M 6.4111166,1.1998251 C 6.3896904,1.1854781 6.3497102,1.160077 6.3497102,1.1261316 v -0.036847 c 0,-0.054458 0.121449,-0.12281301 0.184234,-0.12281301 0.028752,0 0.049119,0.0203818 0.049119,0.0491193 v 0.073694 c 0,0.060144 -0.117561,0.097876 -0.1719466,0.1105402 z m 0.012287,0.049134 c 0.104041,0 0.22108,-0.101894 0.22108,-0.196521 0,-0.0751006 -0.103766,-0.14738701 -0.171961,-0.14738701 h -0.012273 c -0.096237,0 -0.196521,0.0893461 -0.196521,0.19652101 0,0.073781 0.073606,0.147387 0.147387,0.147387 z"
   id="path2684"
   style="fill:#bab9b9" /><path
   class="fil5"
   d="m 5.9342466,5.7688351 c 0,-0.037122 0.370905,-0.020324 0.464588,-0.049134 0.047698,0 0.122827,0.016334 0.122827,0.061406 0,0.114602 -0.23328,0.204557 -0.335857,0.204557 -0.117112,0 -0.251559,-0.123567 -0.251559,-0.21683 z m -4.4483,-3.54957 h 0.073694 l 0.06142,-0.22108 c -0.056271,0.015029 -0.1637646,0.171845 -0.135114,0.22108 z m 2.77579,3.46359 c 0,-0.103766 0.139844,-0.24564 0.257927,-0.24564 0.067876,0 0.11054,0.076276 0.11054,0.1351 0,0.122291 -0.09158,0.270214 -0.196521,0.270214 -0.080628,0 -0.171947,-0.078437 -0.171946,-0.159674 z m -0.073694,-0.012287 v 0.073694 c 0,0.080337 0.123567,0.159674 0.196506,0.159674 h 0.049134 c 0.131633,0 0.257927,-0.139278 0.257927,-0.270214 v -0.061407 c 0,-0.097151 -0.130762,-0.22108 -0.233368,-0.22108 -0.147271,0 -0.2702,0.166927 -0.2702,0.319334 z m -1.60898,0.024574 c 0,-0.073926 0.067804,-0.159674 0.147387,-0.159674 h 0.012287 c 0.056184,0 0.1351,0.00731 0.1351,0.061406 v 0.036847 c 0,0.084559 -0.057127,0.22108 -0.147387,0.22108 h -0.02456 c -0.079757,0 -0.122827,-0.078858 -0.122827,-0.159659 z m -0.073694,0.036847 c 0,0.11466 0.081861,0.196506 0.196521,0.196506 h 0.036847 c 0.118055,0 0.196521,-0.155641 0.196521,-0.282487 0,-0.090086 -0.117953,-0.184234 -0.208808,-0.184234 -0.114472,0 -0.22108,0.150158 -0.22108,0.270214 z m 3.75713,-1.35555 -0.00955,-0.06454 0.547551,-0.175704 0.00699,0.010343 0.026692,0.085299 -0.0087,-0.010068 z m -0.023327,-0.192009 c -0.039777,0 -0.045145,-0.042968 -0.061406,-0.073694 0.076696,-0.017872 0.256433,-0.092625 0.340165,-0.12657 0.07954,-0.032234 0.287738,-0.146488 0.323062,-0.155931 v 0.036847 c 0,0.138843 -0.158455,0.161618 -0.259494,0.194954 -0.048481,0.015986 -0.32238,0.124394 -0.342327,0.124394 z m -0.1351,-0.159674 c -0.033177,0 -0.033873,-0.00586 -0.061421,-0.012287 0.00493,0.059245 0.068021,0.110003 0.097035,0.197739 0.021238,0.064221 0.025793,0.194272 0.025793,0.281268 0.084704,-0.019729 0.270737,-0.091363 0.363477,-0.127803 0.057983,-0.022775 0.128862,-0.045464 0.190428,-0.055227 0.061581,-0.00976 0.18303,-0.00299 0.18303,-0.06261 v -0.012287 c 0,-0.078481 -0.024574,-0.093466 -0.024574,-0.171947 v -0.012287 c 0,-0.129471 0.047146,-0.205602 0.049134,-0.294774 h -0.049134 c -0.178417,0 -0.421562,0.270214 -0.773767,0.270214 z m 0.307047,0.601835 c 0.151724,0 0.391141,-0.149316 0.503567,-0.208808 0,0.180447 -0.273855,0.307061 -0.454433,0.307061 h -0.049134 c -0.081904,0 -0.121028,-0.017669 -0.122813,-0.098253 z m -0.122813,-0.073693 h -0.11054 c 0.010909,0.046842 0.053645,0.24564 0.098253,0.24564 h 0.196506 c 0.216714,0 0.528141,-0.162517 0.528141,-0.343908 v -0.04912 c 0,-0.055807 -0.026228,-0.064076 -0.049134,-0.098268 -0.164026,0.109844 -0.392766,0.245655 -0.6632263,0.2456549 z m -3.99174,1.05627 c 0,-0.200815 0.22887,-0.359444 0.440159,-0.359444 0.291945,0 0.395029,0.244973 0.395029,0.494544 0,0.135303 -0.077378,0.357863 -0.307047,0.429888 -0.233411,0.02881 -0.528141,-0.122653 -0.528141,-0.466735 z m 1.74408,0.012287 c 0,-0.162082 0.203223,-0.405314 0.368467,-0.405314 h 0.085966 c 0.155757,0 0.356195,0.248251 0.356195,0.429874 v 0.049134 c 0,0.208228 -0.219557,0.378622 -0.44808,0.378622 -0.170598,0 -0.362549,-0.1398 -0.362549,-0.317216 z m -0.110656,-0.026416 1.161e-4,0.063263 -0.23286,0.029202 -0.393535,-0.00464 v -0.061406 l 0.110816,0.00473 z m -1.74397,0.10011 -0.00382,0.011837 -0.229538,-0.073258 c 0.00151,-0.054849 0.24564,-0.040183 0.24564,0.012287 0,0.025981 -0.0044,0.016189 -0.012287,0.049134 z m 3.0575,-0.163823 0.016349,0.114239 -0.064699,4.497e-4 -0.184031,-0.014361 -0.011475,-0.054008 z m 0.209577,-0.020411 c 0.599993,0 1.67962,-0.193489 2.01428,-0.417601 -0.106014,0.455057 -1.03094,0.552701 -1.63353,0.552701 h -0.479008 c -0.028302,0 -0.036847,-0.00854 -0.036847,-0.036847 v -0.098253 h 0.1351 z m -0.073694,-1.044 c 0,-0.051963 0.055328,-0.137218 0.085981,-0.159674 0,0.216119 0.101691,0.488538 0.282487,0.503582 -0.018206,0.024864 -0.028201,0.036847 -0.073694,0.036847 -0.145356,0 -0.294774,-0.16552 -0.294774,-0.307061 0,-0.02456 0,-0.049119 0,-0.073694 z m -0.196506,0.294774 0.012273,0.11054 0.012287,0.479008 c 0,0.059477 -0.020077,0.130211 -0.073099,0.130211 l -0.111135,0.017176 c -0.053544,0 -0.165143,-0.405314 -0.515854,-0.405314 h -0.036847 c -0.267182,0 -0.567237,0.225577 -0.586284,0.454448 l -0.578523,0.012273 c -0.060522,-0.293657 -0.29708,-0.384004 -0.507586,-0.384004 -0.451547,0 -0.620012,0.311819 -0.630906,0.379492 -0.316955,0.021281 -0.470202,-0.224185 -0.595307,-0.474496 -0.033844,-0.067702 -0.307061,-0.668377 -0.307061,-0.700088 0.051701,-0.15863 0.761103,0.088795 1.03888,0.152508 0.277279,0.063626 0.681969,0.105419 1.01226,0.105419 0.045043,0 0.090086,0 0.135114,0 0.323323,0 0.63536,-0.028549 0.911783,-0.070792 0.146154,-0.02234 0.288507,-0.042519 0.417485,-0.073795 0.101154,-0.024545 0.287289,-0.09351 0.377955,-0.101053 l 0.024574,0.368467 z m 0.572967,-0.676123 0.00429,0.074288 c 0,0.087388 0.040821,0.148925 0.082818,0.176995 0.106536,0.071242 0.204572,-0.00512 0.204572,0.04838 0.02147,0.109858 -0.014173,0.351901 -0.17685,0.351901 -0.319885,0 -0.486203,-0.565061 -0.1148341,-0.6515638 z m -4.53592,0.180201 -0.041054,-0.093625 v -0.02456 c 0.043955,-0.010242 0.057707,-0.024574 0.11054,-0.024574 h 0.061406 c 0.696099,0 1.22929,0.356195 1.97744,0.356195 0.012287,0 0.024574,0 0.036847,0 0.367786,0 0.660587,-0.048191 0.977512,-0.10333 0.165012,-0.028723 0.285809,-0.064583 0.442378,-0.09805 0.061218,-0.013085 0.147401,-0.039414 0.211405,-0.058795 0.045841,-0.013868 0.174195,-0.08704 0.174195,-0.022326 0,0.020483 0,0.040952 0,0.061421 0,0.165854 -1.23789,0.307047 -1.53528,0.307047 -0.161371,0 -0.533248,0.00776 -0.670625,-0.017176 -0.536773,-0.040053 -1.55566,-0.377563 -1.74477,-0.282226 z m 0.651694,-0.935356 c 0.123567,0.026242 0.43601,0.1717 0.671742,0.218629 0.100023,0.019918 0.178184,0.016494 0.171744,0.081716 0.00167,0.076247 -8.124e-4,0.15744 -9.574e-4,0.234339 -2.902e-4,0.144515 0.012273,0.297008 0.012273,0.458945 -0.191603,-0.056155 -0.454506,-0.154437 -0.688758,-0.20006 -0.083108,-0.016204 -0.166042,-0.011127 -0.166042,-0.102895 v -0.690673 z m 5.19043,0.571516 c 0,-0.07922 0.028273,-0.175515 0.073694,-0.208793 0,0.448036 0.182943,0.397568 0.22108,0.540414 -0.140975,0 -0.294774,-0.116241 -0.294774,-0.24564 z m 0.147387,-0.15966 c 0,-0.089259 0.105637,-0.147387 0.208808,-0.147387 v 0.049119 c 0,0.038181 0.042229,0.098268 0.122813,0.098268 h 0.049134 v 0.24564 c 0,0.066339 -0.034714,0.159674 -0.098253,0.159674 -0.149287,0 -0.282501,-0.240432 -0.282502,-0.405314 z m -3.41446,-0.294774 c 0,-0.048147 0.542256,-0.26682 0.599731,-0.268111 0.083819,0.368888 0.066904,0.694605 0.100357,1.04189 0,0.033162 -0.00586,0.033858 -0.012273,0.061406 -0.179476,0.025894 -0.465517,0.080279 -0.638682,0.073694 l -0.056402,-0.773274 0.00727,-0.135608 z m -0.859748,0.1351 c 0.136043,0 0.296964,-0.028462 0.418979,-0.047741 0.112499,-0.017785 0.280209,-0.080134 0.367075,-0.087359 v 0.196506 c 0.00955,0.241491 0.032611,0.501029 0.042142,0.74252 -0.385817,0.038907 -0.688889,0.02221 -0.963426,-0.054704 l -0.023921,-0.749236 z m 2.92686,0.438462 c 0.280964,-0.149476 0.979906,-0.376214 1.27365,-0.426175 -0.070009,0.095555 -0.171947,0.157193 -0.171947,0.343893 0,0.198958 0.104273,0.405314 0.331621,0.405314 0.150158,0 0.198131,-0.066324 0.282487,-0.122813 0,0.662487 -0.073084,0.821842 -0.602517,0.969606 -0.551192,0.153828 -1.09158,0.270809 -1.63263,0.219833 -0.067876,-0.099109 -0.086184,-0.684189 -0.086184,-0.882392 0,-0.057315 0,-0.114631 0,-0.171947 0,-0.039501 0.075927,-0.065628 0.11054,-0.073694 -0.019337,0.040299 -0.04484,0.118736 -0.049134,0.208793 0,0.253532 0.102083,0.429888 0.393027,0.429888 0.278889,-0.038646 0.393042,-0.273043 0.393042,-0.479008 0,-0.089941 -0.03042,-0.206893 -0.066194,-0.265442 -0.059869,-0.097977 -0.110308,-0.107537 -0.175762,-0.155859 z m -0.593247,0.114239 c 0,-0.046189 0.179476,-0.097267 0.226158,-0.11775 0.098297,-0.043172 0.143412,-0.067064 0.232425,-0.111469 0.155917,-0.077784 0.307815,-0.145907 0.482373,-0.205442 0.325151,-0.110903 0.709764,-0.240867 1.13475,-0.240867 -0.045435,0.039487 -0.935196,0.289203 -1.08546,0.339295 -0.186149,0.062059 -0.298923,0.1173 -0.467751,0.188789 -0.05189,0.021978 -0.116459,0.023588 -0.182827,0.057228 -0.045087,0.022848 -0.069196,0.040735 -0.106275,0.065686 -0.044231,0.029767 -0.169974,0.10909 -0.233397,0.110511 0,-0.028651 0,-0.057316 0,-0.085981 z m -3.50043,-0.847475 0.020904,0.779468 C 1.5985595,4.0494431 1.3259945,3.9819149 1.1420365,4.0247529 L 0.69938245,3.2478819 C 1.1017665,3.1849809 1.4162405,3.1793959 1.7684325,3.2878189 Z m 3.1074,-0.012287 c 0,-0.133287 0.116589,-0.15966 0.24564,-0.15966 0,0.016378 0,0.032756 0,0.049119 -0.118316,0 -0.196506,0.040575 -0.196506,0.159674 0,0.024574 0,0.049134 0,0.073694 -0.034685,-0.00289 -0.049134,2.901e-4 -0.049134,-0.036847 0,-0.02865 0,-0.057315 0,-0.08598 z m 0.229074,-0.47599 c 0.00144,0.076783 0.00287,0.153567 0.00429,0.23035 -0.09863,0.00821 -0.307061,0.087069 -0.307061,0.196521 0,0.077784 0,0.155569 0,0.233353 -0.089216,0.00199 -0.159674,0.037601 -0.159674,0.125511 0,0.106116 -7.399e-4,0.488611 0.13935,0.488611 0.170336,-0.019207 0.310818,-0.02807 0.315692,-0.183639 0.00463,-0.148083 0.065222,-0.513881 -0.123422,-0.470695 0,-0.02456 0,-0.058026 0,-0.0826 0,-0.062088 0.044318,-0.122827 0.11054,-0.122827 0.012287,0 0.024574,0 0.036847,0 0.01323,0.29473 0.026446,0.589461 0.039661,0.884191 -0.197696,0.045333 -0.356427,0.120796 -0.567788,0.147518 0,-0.280688 -0.020034,-0.61006 -0.06866,-0.889356 -0.012389,-0.071097 -0.028607,-0.177024 -0.034439,-0.232715 0.207865,-0.1051 0.406808,-0.228015 0.6146596,-0.3242225 z m 1.41674,-0.604838 c 0,-0.039777 0.042969,-0.045159 0.073694,-0.061421 l 0.028883,1.093 -0.00432,0.27033 -0.084385,0.028926 -0.0169,-1.24483 0.00303,-0.08601 z m 1.49843,0.503567 c 0.026982,-0.040299 0.042533,-0.085981 0.11054,-0.085981 h 0.049134 c -0.021078,0.078945 -0.114515,0.096657 -0.122827,0.196521 h 0.036847 l -0.051905,0.080976 z m -3.07055,-0.147387 c 0.021615,0.065207 0.04323,0.1304 0.064845,0.195592 -0.065338,0.015348 -0.362128,0.186323 -0.449733,0.230147 -0.1445,0.072272 -0.305248,0.153407 -0.451938,0.211303 -0.273565,0.107987 -0.684842,0.271839 -1.05464,0.271839 h -0.208793 c -0.645224,0 -1.02359,-0.38074 -1.74407,-0.38074 H 0.92096055 l -0.6258,0.066977 c -0.090318,-0.00466 -0.0754923,-0.119636 -0.0620157,-0.177517 0.0624799,-0.118069 0.204673,-0.22108 0.380755,-0.22108 h 0.0491338 c 0.237168,0 0.66657805,0.170975 0.90146905,0.228493 0.262975,0.064395 0.656525,0.152247 0.965428,0.152247 0.372152,0.011518 0.887658,9.574e-4 1.4542,-0.302143 0.308207,-0.126164 0.746741,-0.274929 0.989959,-0.434792 -0.00818,0.053225 -0.016363,0.106449 -0.02456,0.159674 z m 2.92317,-0.196521 c 0.038805,-0.073331 0.020628,-0.03763 0.108393,-0.063568 0.042055,-0.012432 0.076696,-0.046972 0.124974,-0.046972 h 0.012287 c 0.027534,0 0.026953,0.00972 0.049119,0.024574 l 0.015072,0.134752 -0.00279,0.061755 h -0.02456 v -0.036847 c 0,-0.042142 -0.031856,-0.11054 -0.073694,-0.11054 h -0.012279 c -0.066208,0 -0.117837,0.035091 -0.196521,0.036847 z m -2.66524,0.454448 c 0,-0.062581 1.10009,-0.587967 1.26506,-0.626395 -0.016044,0.032379 -0.012273,-0.010111 -0.012273,0.036847 v 1.33877 l -0.00471,-0.011794 -0.728507,0.291292 -0.01059,-0.01368 0.368279,-0.577391 c 0.052485,0.034932 0.112296,0.102765 0.166739,0.102765 0.037311,0 0.041692,-0.021296 0.049119,-0.049119 -0.231583,-0.061842 -0.30548,-0.513765 -0.405314,-0.540429 -0.016044,0.032379 -0.012273,-0.010111 -0.012273,0.036847 v 0.098268 c 0,0.079133 0.068935,0.274929 0.15966,0.282487 -0.025328,0.108698 -0.233991,0.405271 -0.302158,0.508471 -0.09232,0.139786 -0.239185,0.339005 -0.459337,0.339005 -0.012273,0 -0.02456,0 -0.036847,0 0,-0.040938 0,-0.081875 0,-0.122827 -0.013622,-0.335654 -0.027258,-0.671307 -0.040894,-1.00696 0.00135,-0.028708 0.0027,-0.057432 0.00405,-0.086155 z m 1.43702,-0.650954 c 0.112702,-0.129674 0.840817,-0.208808 1.11767,-0.208808 0,0.212783 -0.028143,0.572459 -0.058491,0.76441 -0.017988,0.113775 -0.031972,0.6849 -0.125743,0.6849 h -0.147387 c -0.076334,0 -0.319334,-0.419893 -0.319334,-0.503567 v -0.012287 c 0,-0.105768 0.208431,-0.466721 0.11054,-0.466721 -0.027534,0 -0.026953,0.00972 -0.049134,0.02456 0,0.171279 -0.231801,0.559548 -0.331621,0.626395 l -0.011808,0.110598 0.033742,0.039414 0.011997,0.0068 0.16259,-0.181376 c 0.10114,0.00225 0.224431,0.265108 0.24564,0.35618 -0.221138,0 -0.422983,0.05659 -0.60182,0.098253 v -0.466721 l -0.036847,-0.872035 z m -5.56386,0.02456 c -0.0835435,-0.055937 -0.061406,-0.217004 -0.061406,-0.356195 0.047364,0.034714 0.061406,0.26505 0.061406,0.356195 z m 3.97945,0.380755 c -0.030203,-0.549742 1.59008,-1.00441 2.09536,-1.14717 0.102039,-0.021107 0.799792,-0.200626 0.852378,-0.22845 0.062349,0.04175 0.184234,0.136014 0.184234,0.233353 0,0.341558 -0.46337,0.365247 -0.705339,0.412364 -0.310833,0.060536 -0.576086,0.127005 -0.857223,0.199045 -0.250804,0.064279 -0.539007,0.198639 -0.758695,0.297574 -0.099153,0.044637 -0.810715,0.517233 -0.810715,0.23328 z m -3.23023,-1.49844 c 0.00634,-0.0761741 0.050991,-0.0779149 0.122102,-0.0866914 0.105768,-0.0130704 0.02984,-0.0975423 0.111251,-0.0975423 0.024574,0 0.049134,0 0.073694,0 0.093785,0 0.140163,0.0482924 0.147387,0.13510001 -0.13906,0.021267 -0.278135,0.042533 -0.41721,0.063786 -0.0016,-0.00218 -0.025648,-0.011576 -0.037224,-0.014652 z m -0.822915,0.1351 c 0,-0.120753 0.00399,-0.28187801 0.098268,-0.30704701 0.045565,0.0919573 -0.035802,0.30984601 -0.048263,0.41845701 -0.01442,0.1257 -0.02543,0.289189 -0.02543,0.416731 -0.018322,-0.026358 -0.024574,-0.040575 -0.024574,-0.085981 z m 0.356195,-0.42987401 c -0.00252,-0.0598397 0.297501,-0.11054 0.417587,-0.11054 0.138654,-0.002481 0.14627,0.0157106 0.135114,0.0368467 -0.184234,0.0245742 -0.368467,0.0491338 -0.552701,0.0736933 z m 0.233353,1.14225001 0.085981,-0.036847 c 0.099776,-0.188586 0.280383,-0.467228 0.530071,-0.467228 0.204195,0 0.316664,0.295282 0.366524,0.295282 h 0.049134 v -0.061421 c 0,-0.109626 0.110453,-0.208793 0.208793,-0.208793 h 0.061421 c 0.167435,0 0.282487,0.162068 0.282487,0.331621 v 0.085981 c 0,0.073171 -0.040662,0.22108 0.02456,0.22108 h 0.073693 c 0.027548,0 0.026968,-0.00972 0.049134,-0.02456 0,-0.273667 0.284735,-0.614122 0.564988,-0.614122 0.086648,0 0.201845,0.125322 0.319334,0.1351 0.029724,-0.031639 0.059448,-0.063278 0.089172,-0.094917 -0.087301,-0.025793 -0.150578,-0.116909 -0.150578,-0.224417 0,-0.25460501 0.239533,-0.57726101 0.466721,-0.57726101 h 0.085981 c 0.33442,0 0.51407,0.39912001 0.589548,0.66324101 0.032756,0.012287 0.065512,0.024574 0.098253,0.036847 -0.00174,-0.078307 -0.036847,-0.161284 -0.036847,-0.22108 0,-0.16230001 0.166275,-0.38075501 0.319334,-0.38075501 0.273971,0 0.240679,0.38075501 0.405314,0.38075501 0.00337,0 0.022442,-0.00847 0.036847,-0.012287 -0.00772,-0.092857 -0.196506,-0.32954601 -0.196506,-0.40531401 v -0.122828 c 0,-0.215278 0.167885,-0.38074 0.38074,-0.38074 0.245988,0 0.593363,0.313313 0.577261,0.540414 l -0.014231,0.24551001 0.04835,0.051992 0.024835,-0.029753 c 0.00247,-0.11310801 0.031146,-0.19244401 0.091377,-0.25251601 0.062828,-0.0626395 0.15068,-0.125772 0.24271,-0.125772 0.113267,0 0.098253,0.258391 0.098253,0.331621 l -0.02086,0.14599401 c 0.119462,-0.024226 0.391649,-0.22768101 0.512155,-0.047741 -0.068776,0.102721 -1.09915,0.374807 -1.30942,0.446948 -0.446484,0.153204 -0.843297,0.314401 -1.22878,0.527576 -0.562203,0.31092 -1.72306,0.990641 -2.52209,0.990641 h -0.15966 c -0.400338,0 -1.68266005,-0.308076 -1.68266005,-0.589548 0,-0.141962 0.28810105,-0.190907 0.41758705,-0.22108 0,-0.083442 0.044521,-0.105695 0,-0.122813 l -0.15966,0.012273 -0.062741,1.741e-4 -0.035527,-0.319508 v -0.122827 c 0,-0.150636 0.014507,-0.69441603 0.061784,-0.76600603 0.116981,-0.115052 0.530854,-0.16745 0.711998,-0.16745 0.037717,0 0.073693,0.0113732 0.073693,0.0491338 0,0.0122871 0,0.0245742 0,0.0368467 -0.088722,0.007384 -0.112339,0.0637565 -0.146981,0.123233 -0.035556,0.0610437 -0.135506,0.12580103 -0.135506,0.14698103 0,0.00409 0,0.00818 0,0.012273 0,0.039806 0.05337,0.073693 0.098253,0.073693 0.028665,0 0.05733,0 0.085981,0 0.079177,0 0.721485,-0.032799 0.608726,-0.184234 -0.026271,-0.011779 -0.08379,-0.013056 -0.109902,-0.0326253 -0.078365,-0.0587082 -0.086256,-0.176168 -0.240896,-0.176168 -0.00299,-0.133954 -0.111788,-0.196521 -0.24564,-0.196521 -0.219514,0 -0.415266,0.0218759 -0.624871,0.0997908 -0.147866,0.05498 -0.249586,0.0904196 -0.30344905,0.249252 C 0.87535235,1.1813953 0.92096105,1.7120313 0.92096105,2.0104583 v 0.159674 c -0.378143,0.031465 -0.798356,0.496894 -0.798356,0.872049 0,0.294266 0.204543,0.232163 0.378579,0.346084 0.128877,0.084356 0.258536,0.249151 0.337829,0.386818 0.17039405,0.295847 0.34553205,0.661138 0.47330705,0.988276 0.109061,0.279223 0.350537,0.73016 0.544868,0.916715 0.052935,0.050817 0.15142,0.097484 0.23579,0.12039 0.030884,0.00838 0.061,0.016102 0.069443,0.04806 0.108379,0.41042 0.349348,0.473016 0.514897,0.473016 0.28726,0 0.491831,-0.098543 0.585791,-0.298531 0.011402,-0.024284 0.047132,-0.150158 0.050381,-0.170699 0.017684,-0.111875 -0.00625,-0.083819 0.137595,-0.083471 0.163576,3.917e-4 0.280819,-0.012287 0.442175,-0.012287 0.019265,0.231525 0.240345,0.479008 0.49128,0.479008 h 0.147387 c 0.231801,0 0.510777,-0.300098 0.516116,-0.532247 l 0.736674,0.040952 c 0.011736,0.141033 0.216511,0.368467 0.356195,0.368467 h 0.1351 c 0.148547,0 0.333985,-0.1567 0.389183,-0.261771 0.155685,-0.296399 0.060464,-0.164679 0.406837,-0.256389 0.35032,-0.09277 0.50142,-0.356267 0.572212,-0.741998 0.030623,-0.166898 0.05688,-0.407476 0.056503,-0.594451 -4.352e-4,-0.219441 0.029434,-0.423854 0.037311,-0.62593 0.00815,-0.208938 0.010416,-0.417253 0.038878,-0.612091 0.024153,-0.16539 0.070125,-0.419255 0.083485,-0.579756 0.067673,-0.00563 0.090449,-0.049134 0.15966,-0.049134 0.028143,0 0.014289,0.00416 0.049134,0.012287 0.00641,0.027548 0.012287,0.02823 0.012287,0.061406 v 0.049134 c -0.048176,0.004 -0.135114,0.036296 -0.135114,0.085981 v 0.417587 c 0,0.161125 0.119752,0.11054 0.245655,0.11054 0.2036,0 0.208793,-0.123857 0.208793,-0.319334 v -0.184234 c 0,-0.080816 -0.05968,-0.145429 -0.148852,-0.147605 l 0.013752,-0.110323 v -0.049134 c 0,-0.073244 -0.025053,-0.122813 -0.098268,-0.122813 l -0.110845,-0.00284 -0.159355,0.015116 v -0.085966 c 0,-0.225287 0.151478,-0.197464 0.294992,-0.269997 0.180244,-0.091101 0.233135,-0.244755 0.233135,-0.430106 0,-0.248788 -0.332564,-0.50356702 -0.60182,-0.50356702 h -0.159674 c -0.087692,0 -0.127919,0.0350479 -0.208793,0.0368467 v -0.0859806 c 0,-0.180128 -0.037601,-0.257927 -0.208808,-0.257927 -0.122349,0 -0.212173,0.116648 -0.294774,0.171961 0,-0.272883 -0.284097,-0.638682 -0.540414,-0.638682 -0.260002,0 -0.564974,0.184277 -0.564974,0.479008 0,0.028665 0,0.05733 0,0.0859806 -0.052964,-0.0123451 -0.067296,-0.0368467 -0.135114,-0.0368467 h -0.036847 c -0.194722,0 -0.341572,0.249426 -0.38074,0.41758702 -0.00818,0 -0.016378,0 -0.024574,0 -0.042606,-0.18291402 -0.320262,-0.50356702 -0.564974,-0.50356702 -0.316969,0 -0.638682,0.326108 -0.638682,0.61410802 0,0.073693 0,0.147387 0,0.22108 -0.087678,-0.020425 -0.111251,-0.061406 -0.24564,-0.061406 -0.132097,0 -0.263004,0.097528 -0.339208,0.201206 -0.063916,0.086967 -0.133925,0.251356 -0.188934,0.314648 0,-0.234601 -0.193387,-0.515854 -0.380755,-0.515854 h -0.036847 c -0.107291,0 -0.247758,0.16317 -0.294774,0.233368 -0.076058,-0.050947 -0.202701,-0.208808 -0.331621,-0.208808 -0.288043,0 -0.577101,0.25153 -0.650954,0.528141 z"
   id="path2686"
   style="fill:#000000" /><polygon
   transform="translate(1.6554492e-5,-4.9108921e-6)"
   class="fil2"
   points="5.24351,5.53132 4.99965,5.57764 5.01113,5.63165 5.19516,5.64601 5.25986,5.64556 "
   id="polygon2688"
   style="fill:#c30037" /><path
   class="fil6"
   d="m 1.4373466,4.8605151 m 0.323642,-0.094742 c 0.031726,0.020019 0.063321,0.040169 0.095207,0.060362 -0.00857,0.047988 -0.02765,0.079003 -0.057925,0.093437 -0.029913,0.014245 -0.069704,0.012693 -0.119708,-0.00164 -0.061508,-0.017626 -0.114312,-0.050846 -0.158485,-0.103098 -0.022384,-0.026489 -0.040502,-0.055778 -0.054037,-0.088331 -0.013752,-0.033017 -0.023544,-0.069472 -0.028767,-0.109148 -0.00553,-0.041895 -0.00554,-0.07806 5.513e-4,-0.1079 0.00602,-0.029593 0.017785,-0.053254 0.035744,-0.069646 0.035947,-0.032857 0.087924,-0.037877 0.154727,-0.016828 0.058171,0.018336 0.10703,0.050686 0.1469229,0.096672 0.023704,0.02733 0.04294,0.061827 0.057998,0.10394 -0.030972,-0.00239 -0.061667,-0.00485 -0.092378,-0.00735 -0.00828,-0.026634 -0.022079,-0.050004 -0.041619,-0.07011 -0.019395,-0.01999 -0.042026,-0.033931 -0.067296,-0.041851 -0.035222,-0.011039 -0.062436,-0.00688 -0.081222,0.012316 -0.018888,0.019308 -0.024386,0.058374 -0.016958,0.116706 0.00392,0.030884 0.00976,0.058026 0.0178,0.081309 0.00801,0.023167 0.018104,0.04262 0.030304,0.058578 0.024066,0.031508 0.053007,0.05173 0.086677,0.061638 0.025111,0.00741 0.045696,0.00585 0.061871,-0.00458 0.016305,-0.010503 0.026736,-0.031856 0.030595,-0.064468 z m 0.14392,0.219557 m 0.046029,0.015725 c -0.00798,-0.08086 -0.016204,-0.161894 -0.024531,-0.242826 -0.00836,-0.080961 -0.016552,-0.161981 -0.02469,-0.242927 0.047843,0.013955 0.095642,0.027621 0.143253,0.040706 0.019627,0.059695 0.039414,0.119331 0.058592,0.178924 0.019207,0.059651 0.038399,0.119259 0.057591,0.178779 0.00886,-0.052311 0.017887,-0.104694 0.027011,-0.156903 0.00915,-0.052282 0.018119,-0.10481 0.027084,-0.157411 0.047538,0.010807 0.095134,0.020962 0.142556,0.030609 0.00733,0.081512 0.01381,0.162967 0.019859,0.24416 0.00603,0.081193 0.012505,0.162633 0.01999,0.24416 -0.02881,-0.00485 -0.057417,-0.010532 -0.086198,-0.016523 -0.00593,-0.064337 -0.011634,-0.128731 -0.01677,-0.192851 -0.00515,-0.064206 -0.01043,-0.128557 -0.015624,-0.192764 -0.0103,0.060797 -0.020614,0.121696 -0.030551,0.182711 -0.00989,0.060768 -0.019323,0.12142 -0.028491,0.182101 -0.029768,-0.00749 -0.059869,-0.01529 -0.089752,-0.023863 -0.021499,-0.06866 -0.043186,-0.137348 -0.064511,-0.205936 -0.021397,-0.068718 -0.043186,-0.137566 -0.064975,-0.206255 0.00618,0.064076 0.012432,0.128282 0.018684,0.192357 0.00625,0.064076 0.012664,0.128238 0.018859,0.192314 -0.0291,-0.0092 -0.05823,-0.018844 -0.087388,-0.028563 z m 0.492078,0.124829 m 0.0082,-0.479327 c 0.031508,0.00486 0.062959,0.0093 0.094423,0.013723 0.0039,0.043839 0.00753,0.087721 0.010561,0.131328 0.00303,0.043549 0.00559,0.087214 0.00823,0.130719 0.00251,0.041445 0.00574,0.068674 0.00886,0.081222 0.00506,0.020251 0.015667,0.037035 0.031305,0.050207 0.015856,0.013361 0.036644,0.020991 0.062204,0.023153 0.026402,0.00223 0.04571,-0.00206 0.058244,-0.012708 0.012418,-0.010561 0.019439,-0.024183 0.021223,-0.040343 0.0018,-0.01632 0.0016,-0.043404 -3.917e-4,-0.081454 -0.00231,-0.044129 -0.00411,-0.08836 -0.0067,-0.132576 -0.00261,-0.044216 -0.00609,-0.088809 -0.00992,-0.133432 0.031247,0.00102 0.062639,0.0018 0.094017,0.00261 0.00363,0.042446 0.00696,0.084893 0.00928,0.127092 0.00234,0.042156 0.00397,0.084225 0.00582,0.126265 0.0025,0.05778 0.002,0.098413 -0.00154,0.122218 -0.00351,0.02366 -0.010996,0.043491 -0.023298,0.059535 -0.012157,0.015856 -0.028796,0.028346 -0.050294,0.037253 -0.021354,0.00883 -0.050077,0.0122 -0.086198,0.00921 -0.043563,-0.00361 -0.077306,-0.011344 -0.100734,-0.024618 -0.023515,-0.013317 -0.042461,-0.029724 -0.057054,-0.048481 -0.014594,-0.018743 -0.02485,-0.037775 -0.030435,-0.057228 -0.0082,-0.02852 -0.014158,-0.070096 -0.0178,-0.124481 -0.00289,-0.043041 -0.00574,-0.08614 -0.00897,-0.129341 -0.00321,-0.043143 -0.00683,-0.086459 -0.010836,-0.129878 z"
   id="path2690"
   style="fill:#c30037;fill-rule:nonzero" /><g
   transform="translate(1.6554492e-5,-4.9108921e-6)"
   style="stroke:#ffffff;stroke-width:0.30705607;stroke-miterlimit:4;stroke-dasharray:none;stroke-opacity:1;paint-order:stroke markers fill"
   id="_312864712">
   <path
   id="_111027584"
   class="fil6"
   d="m 2.64726,7.57338 c 0,0.119433 -0.039618,0.210505 -0.118853,0.273188 C 2.455076,7.903332 2.35514,7.931707 2.228599,7.931707 h -0.50026 v -1.10694 h 0.484303 c 0.087504,0 0.164389,0.027185 0.230611,0.0816 0.073331,0.060304 0.109974,0.138364 0.109974,0.234151 0,0.066237 -0.020092,0.124786 -0.060304,0.175631 C 2.595818,7.378818 2.647259,7.46458 2.64726,7.57338 Z M 2.340359,7.140518 c 0,-0.027185 -0.011533,-0.05115 -0.034584,-0.071837 C 2.282695,7.04798 2.251665,7.037637 2.212643,7.037637 H 1.94121 v 0.221748 h 0.271433 c 0.031929,0 0.061189,-0.011823 0.087808,-0.035483 0.026605,-0.02366 0.039908,-0.05144 0.039908,-0.083384 z M 2.434376,7.57338 C 2.434376,7.550909 2.422553,7.529019 2.398907,7.507738 2.358695,7.47462 2.296607,7.458067 2.212642,7.458067 H 1.941209 v 0.26077 h 0.28562 c 0.067412,0 0.116488,-0.00828 0.147242,-0.024835 C 2.414283,7.670342 2.434375,7.63013 2.434376,7.57338 Z m 1.27156,0.361867 H 3.228742 C 3.130576,7.935247 3.050471,7.905102 2.988368,7.844784 2.92628,7.78448 2.8952504,7.7046359 2.8952504,7.6052949 v -0.454129 c 0,-0.034294 0.010633,-0.060594 0.031915,-0.07893 0.021296,-0.018336 0.046131,-0.027505 0.07452,-0.027505 0.028375,0 0.05321,0.00917 0.074506,0.027505 0.021281,0.018336 0.031915,0.044637 0.031915,0.07893 v 0.454129 c 0,0.078075 0.040212,0.117083 0.120637,0.117083 0.015377,0 0.050265,0 0.104665,0 0.054414,0 0.107624,0 0.15966,0 v -0.571502 c 0,-0.034294 0.010648,-0.060304 0.031929,-0.07864 0.021281,-0.018336 0.046117,-0.027505 0.074506,-0.027505 0.029564,0 0.054704,0.00917 0.075391,0.027505 0.020701,0.018336 0.031044,0.044637 0.031044,0.07893 v 0.784081 z m 1.01403,-0.296239 c 0,0.108799 -0.044347,0.189224 -0.13304,0.241259 C 4.51596,7.921669 4.422537,7.942355 4.306644,7.942355 4.238042,7.942355 4.155848,7.924628 4.060061,7.88913 4.012755,7.872592 3.989109,7.840649 3.989109,7.793343 c 0,-0.028375 0.00975,-0.054095 0.02926,-0.077175 C 4.03788,7.693117 4.062425,7.681584 4.09199,7.681584 c 0.013012,0 0.026025,0.00296 0.039023,0.00886 0.073331,0.02601 0.131879,0.039037 0.175631,0.039037 0.043766,0 0.083369,-0.00532 0.118853,-0.015972 C 4.477532,7.698146 4.503557,7.674486 4.503557,7.642557 4.503557,7.620072 4.456251,7.60056 4.361639,7.584008 4.236273,7.5627321 4.152889,7.542626 4.111502,7.5236949 4.0180796,7.4811326 3.971354,7.4137209 3.971354,7.3214729 c 0,-0.099341 0.044361,-0.176226 0.133054,-0.230611 0.074506,-0.046131 0.164403,-0.069196 0.269649,-0.069196 0.088693,0 0.167334,0.015377 0.235935,0.046131 0.042577,0.018931 0.063858,0.050265 0.063858,0.094017 0,0.028389 -0.010053,0.05411 -0.030145,0.077175 -0.020121,0.023051 -0.044361,0.034584 -0.072736,0.034584 -0.016552,0 -0.032538,-0.00355 -0.047901,-0.010648 -0.041387,-0.018917 -0.091058,-0.028375 -0.149012,-0.028375 -0.055589,0 -0.091667,0.00118 -0.108205,0.00354 -0.05086,0.00947 -0.07629,0.031929 -0.07629,0.067427 0,0.020092 0.050265,0.040793 0.150796,0.062074 0.131256,0.027214 0.21345,0.047901 0.246569,0.062088 0.088693,0.037848 0.13304,0.107624 0.1330399,0.2093301 z"
   style="fill:#c30037;fill-rule:nonzero;stroke:#ffffff;stroke-width:0.30705607;stroke-miterlimit:4;stroke-dasharray:none;stroke-opacity:1;paint-order:stroke markers fill" />
   <path
   id="_170746520"
   class="fil7"
   d="M 5.78043,7.03764 H 5.533861 v 0.787635 c 0,0.034294 -0.010648,0.060608 -0.031943,0.078945 C 5.480637,7.922542 5.455801,7.93171 5.427412,7.93171 5.397848,7.93171 5.372708,7.92254 5.352021,7.90422 5.33132,7.885884 5.320977,7.859569 5.320977,7.825275 V 7.03764 H 5.040695 C 5.007576,7.03764 4.981566,7.027297 4.962635,7.006596 4.943718,6.985895 4.93426,6.96077 4.93426,6.931205 4.93426,6.902816 4.94372,6.87798 4.962635,6.856699 4.981566,6.835403 5.007576,6.82477 5.040695,6.82477 H 5.78043 c 0.034308,0 0.060623,0.010633 0.078945,0.031929 0.018336,0.021281 0.02749,0.046116 0.02749,0.074506 0,0.029564 -0.00915,0.05469 -0.02749,0.075391 C 5.8410528,7.0272968 5.8147378,7.03764 5.78043,7.03764 Z M 6.89441,7.93525 H 6.417201 C 6.319049,7.93525 6.23893,7.905105 6.176841,7.844787 6.114753,7.784483 6.083709,7.704639 6.083709,7.605298 V 7.151169 c 0,-0.034294 0.010633,-0.060594 0.031929,-0.07893 0.021296,-0.018336 0.046117,-0.027505 0.074506,-0.027505 0.028389,0 0.05321,0.00917 0.074506,0.027505 0.021296,0.018336 0.031929,0.044637 0.031929,0.07893 v 0.454129 c 0,0.078074 0.040212,0.117083 0.120622,0.117083 0.015391,0 0.05028,0 0.10468,0 0.0544,0 0.107624,0 0.15966,0 V 7.150879 c 0,-0.034294 0.010633,-0.060304 0.031915,-0.07864 0.021296,-0.018336 0.046131,-0.027505 0.074506,-0.027505 0.029564,0 0.054704,0.00917 0.075405,0.027505 0.020686,0.018336 0.031044,0.044637 0.031044,0.07893 z M 7.773901,7.17068 c 0.080424,0.094627 0.120637,0.20756 0.120637,0.338845 0,0.117068 -0.033699,0.21464 -0.101111,0.292699 -0.074506,0.087504 -0.176806,0.13127 -0.306901,0.13127 -0.05675,0 -0.110569,-0.014202 -0.161429,-0.042577 -0.020106,0.028375 -0.048496,0.042577 -0.085154,0.042577 -0.028375,0 -0.05321,-0.00947 -0.074506,-0.028389 C 7.144156,7.885884 7.133522,7.859873 7.133522,7.826755 V 6.961654 c 0,-0.033118 0.010633,-0.059129 0.031915,-0.07835 0.021296,-0.018917 0.046131,-0.028389 0.074506,-0.028389 0.029564,0 0.054704,0.00947 0.075405,0.028389 0.020686,0.018931 0.031044,0.044941 0.031044,0.07806 V 7.097958 C 7.381875,7.060096 7.431531,7.041179 7.495389,7.041179 c 0.113543,0 0.206385,0.043172 0.278512,0.1295 z M 7.610702,7.307274 C 7.583502,7.27536 7.53975,7.259388 7.479432,7.259388 c -0.088693,0 -0.13304,0.036658 -0.13304,0.109989 V 7.58934 c 0,0.040212 0.020701,0.073331 0.062088,0.099341 0.03074,0.021296 0.056764,0.031943 0.078045,0.031943 0.066237,0 0.116488,-0.021296 0.150796,-0.063872 0.029564,-0.035483 0.044347,-0.082789 0.044347,-0.141918 0,-0.082775 -0.02366,-0.151971 -0.070966,-0.20756 z"
   style="fill:#000000;fill-rule:nonzero;stroke:#ffffff;stroke-width:0.30705607;stroke-miterlimit:4;stroke-dasharray:none;stroke-opacity:1;paint-order:stroke markers fill" />
  </g>
</svg>