<?xml version="1.0" encoding="UTF-8"?>
<!DOCTYPE svg PUBLIC "-//W3C//DTD SVG 1.1//EN" "http://www.w3.org/Graphics/SVG/1.1/DTD/svg11.dtd">
<!-- Creator: CorelDRAW -->
<svg xmlns="http://www.w3.org/2000/svg" xml:space="preserve" width="58.92mm" height="54.7501mm" style="shape-rendering:geometricPrecision; text-rendering:geometricPrecision; image-rendering:optimizeQuality; fill-rule:evenodd; clip-rule:evenodd"
viewBox="0 0 8.54728 7.94237"
 xmlns:xlink="http://www.w3.org/1999/xlink">
 <defs>
  <style type="text/css">
   <![CDATA[
    .fil5 {fill:black}
    .fil4 {fill:#BAB9B9}
    .fil1 {fill:white}
    .fil2 {fill:#C30037}
    .fil3 {fill:#C4C4C4}
    .fil7 {fill:black;fill-rule:nonzero}
    .fil0 {fill:white;fill-rule:nonzero}
    .fil6 {fill:#C30037;fill-rule:nonzero}
   ]]>
  </style>
 </defs>
 <g id="Слой_x0020_1">
  <metadata id="CorelCorpID_0Corel-Layer"/>
  <path class="fil0" d="M8.09236 2.97169l0.020904 0.00134911c0.04513,0.00298836 0.089114,0.0787998 0.0955549,0.0427944 0.00776103,-0.0433602 0.0104447,-0.0569819 0.0133171,-0.0717351 0.016552,-0.0848781 0.0358023,-0.183494 0.0361504,-0.257013 0.000145066,-0.0317259 0.00311892,-0.0563436 0.00188586,-0.0563436 -0.0255316,-0.000101546 -0.049482,-0.0068181 -0.0702554,-0.0185249 -0.0196709,0.0235007 -0.0466677,0.0406765 -0.0774652,0.0480168 -0.00250964,0.00195839 -0.00646994,0.0061653 -0.0107784,0.0111846 -0.000739836,0.000870395 -0.00169727,-0.000232105 -0.00271273,-0.00232105l-0.0057156 -0.00488872c0.00232105,0.0295934 0.000957435,0.0700233 -0.00063829,0.117895 -0.0019729,0.0589693 -0.00443902,0.131937 -0.000246612,0.189587zm0.00277076 0.290349c-0.0295789,-0.00195839 -0.0564306,-0.00372819 -0.0676442,-0.00233556l-1.45066e-005 -8.70395e-005c-0.0568949,0.00783356 -0.10069,-0.00346708 -0.133896,-0.0293613 -0.0269242,0.298981 -0.0401688,0.569616 -0.0520206,0.812122 -0.0479153,0.979804 -0.0751877,1.53686 -0.829864,1.71667l-2.90132e-005 -0.000130559c-0.0240374,0.00587517 -0.0507876,0.00987899 -0.0798008,0.0142165 -0.0313923,0.00467112 -0.045072,-0.0313342 -0.0583455,-0.0233556 -0.0260683,0.0833839 -0.0710678,0.165578 -0.129892,0.237981 -0.0740416,0.0911594 -0.171352,0.168813 -0.281762,0.215873 -0.115879,0.0494094 -0.245756,0.0657294 -0.379014,0.0307685 -0.0799458,-0.0209765 -0.159747,-0.0601008 -0.236588,-0.121203 -0.00739836,-0.00538195 -0.0143905,-0.0115618 -0.0208605,-0.0185104 -0.0408941,-0.0438534 -0.0918122,-0.107218 -0.130414,-0.178881 -0.00955984,-0.0177416 -0.0184089,-0.0360344 -0.0262714,-0.0547769 -0.122073,0.0030899 -0.24416,-0.00155221 -0.371673,-0.00639741 -0.0487131,-0.00184234 -0.0982676,-0.00372819 -0.147721,-0.00519336 -0.025314,0.0752022 -0.0601443,0.143963 -0.102634,0.205094 -0.0820928,0.118113 -0.19346,0.208837 -0.320509,0.26386 -0.127716,0.0553136 -0.270446,0.0738676 -0.41454,0.047364 -0.104375,-0.0191922 -0.208518,-0.0615079 -0.306959,-0.129907l0.000232105 -0.000333652 -0.00192938 -0.00136362c-0.0677168,-0.0487131 -0.122581,-0.123901 -0.163098,-0.203731 -0.0218904,-0.0431281 -0.0401542,-0.0888964 -0.0541966,-0.132866 -0.0720252,0.00290132 -0.136072,0.00221951 -0.201395,0.00152319 -0.0453041,-0.000478718 -0.091261,-0.000971942 -0.142208,-1.45066e-005 -0.0502944,0.242826 -0.127992,0.450662 -0.54098,0.548799l-8.70395e-005 -0.000348158c-0.00459859,0.00108799 -0.00929872,0.0019729 -0.0140859,0.00261119 -0.2796,0.0379928 -0.453563,0.00414889 -0.585573,-0.101967 -0.115763,-0.0930743 -0.180709,-0.228145 -0.248556,-0.412379 -0.114065,-0.0378767 -0.325368,-0.116502 -0.492151,-0.410014 -0.185061,-0.244378 -0.326268,-0.594538 -0.468476,-0.947208 -0.220805,-0.547609 -0.444424,-1.10205 -0.784836,-1.14512 -0.0217744,-0.00140714 -0.0435633,-0.00774652 -0.0636839,-0.0194824 -0.10806,-0.0630456 -0.176705,-0.146226 -0.213334,-0.241854 -0.0496851,-0.129747 -0.0353961,-0.274276 0.0214407,-0.416281 0.0491628,-0.12274 0.132039,-0.24564 0.23167,-0.353685 0.00239359,-0.00298836 0.00493224,-0.00591869 0.00760145,-0.00876198 0.141323,-0.150883 0.31974,-0.27416 0.488176,-0.328502 0.00249513,-0.0985868 -0.000406185,-0.210259 -0.00339454,-0.325136 -0.0104157,-0.401035 -0.0217309,-0.836755 0.181753,-1.00349l0.000261119 0.000319145c0.0883742,-0.0743173 0.343545,-0.181289 0.59023,-0.232671 0.126251,-0.0262859 0.254475,-0.0397626 0.363753,-0.0295789 0.140192,0.0130559 0.254315,0.0644818 0.314604,0.172077 0.00615079,0.0109815 0.0116053,0.0223547 0.0163634,0.0341195 0.094554,0.034018 0.144964,0.0975133 0.19214,0.156947 0.0140569,0.0177125 0.0271854,0.0342501 0.0346853,0.0397916 0.0420111,-0.00384425 0.081498,0.0104883 0.114384,0.0390372l-4.35198e-005 4.35198e-005 0.000609277 0.000522237c0.0326398,0.028549 0.0539645,0.0710968 0.0559084,0.120042l0.000145066 0.00475816c0.000406185,0.031987 -0.00763047,0.0678038 -0.0275625,0.10201 -0.0323207,0.0554007 -0.105434,0.118998 -0.245016,0.146459 0.0705891,0.0200916 0.140163,0.0545013 0.207865,0.105071 0.107929,-0.131328 0.265949,-0.282821 0.537919,-0.101242 0.105086,0.0701539 0.175762,0.14656 0.223039,0.22124l0.00620882 -0.00992251c0.0299271,-0.0477557 0.117344,-0.137203 0.207096,-0.199843 0.0757099,-0.0528475 0.160631,-0.0929002 0.236501,-0.0929002 0.0459569,0 0.0881566,0.00281428 0.130052,0.00974843 0.0136362,-0.189035 0.0973392,-0.377491 0.226941,-0.520177 0.139553,-0.153654 0.332897,-0.257013 0.551802,-0.257013l0.0247192 0.000913915c0.114878,0.00409086 0.231467,0.0563581 0.333449,0.130675 0.0902455,0.0657584 0.171453,0.150361 0.229306,0.23286 0.0469143,-0.0751732 0.104868,-0.142803 0.172208,-0.192024 0.0764497,-0.0558649 0.163199,-0.0888384 0.258493,-0.0863722 0.0227173,-0.0910724 0.0620882,-0.174529 0.113833,-0.246946 0.0762031,-0.106667 0.179563,-0.189326 0.296283,-0.237255 0.119404,-0.0490323 0.252589,-0.0619577 0.385498,-0.0277511 0.126135,0.0324512 0.249891,0.106565 0.357979,0.231612 0.0960481,0.111251 0.126526,0.206603 0.153552,0.30532 0.0761016,-0.053863 0.156976,-0.0910144 0.30049,-0.0910144 0.10571,0 0.176632,0.0570979 0.221893,0.140612 0.0289116,0.0533843 0.0447093,0.118809 0.0510632,0.181071 0.354744,-0.0131865 0.616661,0.122 0.767312,0.306872 0.0695736,0.0853858 0.115676,0.181376 0.136812,0.278991 0.0218614,0.10098 0.0172774,0.20447 -0.0152029,0.301273 -0.057301,0.170699 -0.198943,0.315373 -0.432166,0.380958 0.0552991,-0.00568658 0.108045,-0.00691964 0.15921,0.00458408 0.137218,0.030812 0.219267,0.113964 0.200771,0.314909 0.103519,0.0546898 0.137,0.172846 0.136333,0.31385 -0.000507731,0.10436 -0.022108,0.215017 -0.0406765,0.310281l-0.0133171 0.0683406c-0.0392258,0.219006 -0.23933,0.205747 -0.398162,0.195201zm-0.319667 -0.949239c-0.0179301,-0.0217889 -0.0297095,-0.0490323 -0.0323207,-0.079264 -0.000522237,-0.00610727 -0.00068181,-0.0121565 -0.000449704,-0.0181332l-0.000116053 0c8.70395e-005,-0.00221951 8.70395e-005,-0.0254736 8.70395e-005,-0.0494965l0.000565757 0c-5.80264e-005,-0.167159 -0.000116053,-0.379855 0.234644,-0.390561 0.12776,-0.0372384 0.20302,-0.109844 0.231003,-0.193228 0.015435,-0.0460149 0.0172193,-0.0970056 0.00612178,-0.148286 -0.0118229,-0.0546318 -0.0380653,-0.108886 -0.0778569,-0.157716 -0.10114,-0.124118 -0.287796,-0.213552 -0.550902,-0.19903l-0.0971361 0.0246177c-0.0776103,0.0193953 -0.15628,-0.0277946 -0.175675,-0.105405 -0.00367017,-0.0146662 -0.00493224,-0.0293758 -0.00409086,-0.0437084l-0.00130559 -0.0983257 0 -0.00169727 -0.000565757 0c0,-0.0336118 -0.00377171,-0.0700523 -0.013288,-0.0961352 -0.0718802,0.00658599 -0.113645,0.0396175 -0.165506,0.0806712 -0.0301737,0.0238633 -0.062625,0.0495545 -0.100603,0.0749846 -0.0663386,0.0444337 -0.156163,0.0266776 -0.200597,-0.039661 -0.00520787,-0.00777553 -0.00954534,-0.0158412 -0.0130559,-0.0241535 -0.0346272,-0.0735774 -0.0512953,-0.135158 -0.0674411,-0.194824 -0.0200771,-0.0742592 -0.0391533,-0.144689 -0.0984852,-0.213406 -0.067209,-0.0777553 -0.139655,-0.122682 -0.21065,-0.140946 -0.0697622,-0.0179447 -0.140351,-0.0108945 -0.204166,0.0153045 -0.0664982,0.0273014 -0.12599,0.0752312 -0.170481,0.137508 -0.050512,0.0706906 -0.081411,0.160051 -0.081411,0.259262 0,0.0801054 -0.0649605,0.145066 -0.145066,0.145066 -0.0272144,0 -0.0526589,-0.00749991 -0.0744333,-0.0205413 -0.0112861,-0.00542547 -0.0221806,-0.00926971 -0.0326253,-0.0117068 -0.0359038,-0.0083558 -0.0711838,0.00343806 -0.103403,0.0269823 -0.0462035,0.0337713 -0.0870976,0.0883306 -0.119592,0.149723 -0.028549,0.0539355 -0.0498882,0.112092 -0.0625089,0.166333 -0.0181477,0.0779294 -0.0960481,0.126381 -0.173978,0.108234 -0.0195694,-0.00455507 -0.0372674,-0.0128819 -0.0525429,-0.0240374 -0.0618996,-0.0436793 -0.100429,-0.130704 -0.130661,-0.199074 -0.00845734,-0.0191197 -0.0157832,-0.0356717 -0.0185539,-0.0405314 -0.0392258,-0.0685436 -0.107073,-0.144848 -0.184785,-0.201482 -0.0592014,-0.0431426 -0.121101,-0.0732728 -0.173673,-0.0751441 -0.00407635,-0.000130559 -0.000783356,0.000217599 -0.0145066,0.000217599 -0.131067,0 -0.249745,0.0650911 -0.337597,0.161821 -0.0915221,0.100763 -0.148983,0.23331 -0.153639,0.362984 -0.000116053,0.00323497 0.000174079,0.00236457 0.000174079,0.0167696 0,0.0167986 0.00235007,0.0333797 0.00433747,0.0475961 0.00655698,0.0467402 0.0118374,0.0839932 -0.00951632,0.132909 -0.0451155,0.103345 -0.118882,0.133968 -0.272231,0.067064 -0.0179156,-0.00781905 -0.03631,-0.013114 -0.0565612,-0.0164505 -0.0225287,-0.00372819 -0.0501203,-0.00525139 -0.0837611,-0.00525139 -0.0104593,0 -0.0387471,0.0170888 -0.0710388,0.039632 -0.0603764,0.0421416 -0.113253,0.0928277 -0.127745,0.115966 -0.102866,0.164142 -0.147924,0.253778 -0.166666,0.291089 -0.0491628,0.0977744 -0.0708212,0.140757 -0.194185,0.0919283l-0.000116053 0.000304638c-0.101822,-0.0400527 -0.0991235,-0.0850521 -0.0906952,-0.163866 0.00441,-0.0411987 0.022108,-0.206342 -0.183334,-0.343502 -0.0769575,-0.0513823 -0.139089,0.0266486 -0.180839,0.0790899 -0.0525284,0.065976 -0.0945685,0.118823 -0.178068,0.125772 -0.0486261,0.00398931 -0.093611,-0.0164795 -0.122842,-0.0511357 -0.088026,-0.0911014 -0.175602,-0.130487 -0.259073,-0.130661 -0.101981,-0.000203092 -0.208402,0.0545013 -0.309745,0.143905 -0.15744,0.138915 -0.206603,0.377142 -0.222009,0.451895 -0.0181768,0.0882001 -0.0271708,0.138291 -0.143891,0.142353 -0.0365856,0.00121855 -0.0653957,-0.00384425 -0.0876053,-0.015464 -0.0519336,0.00435198 -0.108567,0.00736935 -0.157484,0.00751441 -0.101981,0.000319145 -0.198349,-0.0123596 -0.234862,-0.0494094l-0.00316244 -0.00333652c-0.0203818,0.0518321 -0.0695156,0.0883161 -0.126381,0.0916091 -0.13024,0.0170307 -0.293425,0.124829 -0.425072,0.265369 -0.0021905,0.00232105 -0.00443902,0.00455507 -0.00674556,0.00670205 -0.076029,0.082586 -0.138567,0.17479 -0.174732,0.265079 -0.030754,0.0768414 -0.040749,0.149128 -0.0191777,0.205471 0.0111991,0.0292453 0.032988,0.0567063 0.0674702,0.0809613 0.492339,0.0817301 0.743796,0.705107 0.99212,1.32097 0.136376,0.338207 0.271766,0.673947 0.435212,0.886469 0.00513533,0.00665853 0.00958886,0.0136217 0.0134041,0.020817 0.11849,0.211245 0.271244,0.261539 0.347128,0.28652 0.00232105,0.000768849 0.00458408,0.00158122 0.00684711,0.00245161 0.0698057,0.0230365 0.115342,0.0403428 0.141903,0.115124 0.0593029,0.166985 0.107102,0.283836 0.177416,0.340368 0.0645253,0.0518611 0.169669,0.0662806 0.354962,0.0421707 0.271389,-0.0657439 0.301374,-0.221487 0.335378,-0.39838l0.00670205 -0.0346562c0.0130269,-0.068123 0.0718221,-0.115908 0.138436,-0.11759m-0.84704 -3.92625c-0.0187425,-0.0222241 -0.0309861,-0.0502944 -0.0335537,-0.081469m-0.726809 -0.121754c0.0664257,-0.0586066 0.136333,-0.107291 0.208793,-0.143557 -0.0669189,0.00195839 -0.126657,-0.00187135 -0.175675,-0.0152754 -0.135825,-0.0371514 -0.204137,-0.117054 -0.171947,-0.26315 0.0039603,-0.0622043 0.0306234,-0.0820783 0.0744623,-0.110352 0.0140279,-0.00903761 0.0490468,-0.0316099 0.0755213,-0.0591144 0.00124757,-0.00129109 0.00248063,-0.00265471 0.00371369,-0.00407635 -0.0116778,0.000261119 -0.0193663,0.00072533 -0.0218759,0.00130559 -0.119882,0.0274175 -0.213319,0.0504394 -0.295311,0.073795 -0.0508021,0.0144776 -0.0955839,0.028665 -0.138074,0.0437374 -0.0163199,0.11128 -0.024255,0.333855 -0.0221226,0.553557 0.00178431,0.184379 0.0100821,0.359372 0.0257492,0.452867 0.00120405,-0.00861692 0.00530941,-0.0159427 0.0173209,-0.0159718 0.0518175,-0.000145066 0.0956274,0.00882001 0.12422,0.014202 0.034192,-0.135999 0.112005,-0.366306 0.295224,-0.527967zm0.359981 -0.546376c-0.019874,0.0218324 -0.0463195,0.0375866 -0.0762031,0.0441145l0.00806566 0.00465662c0.00243711,0.000406185 0.00381523,0.00101546 0.003293,0.00191487 -0.0109235,0.0188731 -0.0226593,0.0390953 -0.0382684,0.060536 0.0697042,-0.0057301 0.153828,-0.0169872 0.240766,-0.0286215l0.00224852 -0.000290132 -0.00237908 -0.00298836c-0.0255171,-0.0321466 -0.0533843,-0.0672381 -0.0998199,-0.0710968 -0.013201,-0.00108799 -0.0258362,-0.00390227 -0.0377026,-0.00822524zm-0.0762031 0.0441145c-0.0055125,0.00120405 -0.0111266,0.00208895 -0.0168422,0.0026402 -0.0083558,0.00171178 0.0157106,0.000464211 0.0249078,0.00201642l-0.00806566 -0.00465662zm1.59201 4.62763c0.0929872,0.00100095 0.183218,0.0019729 0.29856,-0.00896507 0.0789159,-0.00745639 0.149026,0.0500187 0.157368,0.128644l0.000174079 -1.45066e-005c0.00472915,0.0433747 0.0243856,0.108814 0.0556183,0.170351 0.0212957,0.0419531 0.0461455,0.0787998 0.0716626,0.0980501l0.000203092 -0.000290132c0.0640756,0.0445207 0.129645,0.0716626 0.193634,0.0834274 0.0864158,0.0158992 0.171802,0.00487421 0.247947,-0.0280993 0.0768124,-0.0332636 0.14524,-0.0896797 0.19697,-0.164113 0.0419966,-0.0604345 0.072562,-0.132213 0.0873587,-0.212609 0.013259,-0.0723879 0.0782921,-0.122233 0.149897,-0.118345 0.0946265,0.00118954 0.179171,0.00441 0.261307,0.00751441 0.158601,0.00602024 0.308251,0.0117068 0.460222,0.000696316 0.079235,-0.00558504 0.148083,0.0536599 0.154568,0.132619l0.000130559 -1.45066e-005c0.00201642,0.024313 0.0129689,0.0521802 0.0278091,0.0797282 0.0229929,0.0426784 0.0541676,0.0822959 0.0809033,0.111802 0.0422577,0.0327704 0.0840802,0.0534278 0.124496,0.0640176 0.0663822,0.0174079 0.132764,0.00855889 0.193155,-0.0171903 0.0658599,-0.0280703 0.124916,-0.0756229 0.170699,-0.131995 0.0396465,-0.0488147 0.0684421,-0.102866 0.0821653,-0.155177 0.0048452,-0.0187135 0.0131575,-0.0355847 0.0240374,-0.0501783 0.0581134,-0.0827021 0.170714,-0.0995732 0.264499,-0.113543 0.0222676,-0.00332201 0.0428235,-0.00639741 0.0531812,-0.00899409l0.00174079 -0.000406185 -4.35198e-005 -0.000159573c0.543228,-0.129428 0.566627,-0.607391 0.607739,-1.44806 0.0216874,-0.443597 0.0479153,-0.979703 0.152087,-1.61373 0.0072678,-0.0447238 0.0343661,-0.0812949 0.0708212,-0.102242m-2.72952 3.24531c0.00609277,0.000319145 0.0122436,0.00104447 0.0184089,0.00217599m3.03227 -2.8972l-0.00343806 0.000377171 5.80264e-005 0.000739836 0.0057156 0.00488872c-0.000754343,-0.00156671 -0.00155221,-0.00368467 -0.00233556,-0.00600573z"/>
  <path class="fil1" d="M8.00992 3.11577c0.0877069,-0.010967 0.318768,0.0504394 0.341137,-0.0744333 0.0364261,-0.203237 0.131618,-0.554021 -0.090318,-0.555095 -0.00327849,-0.00931323 -0.00655698,-0.0186265 -0.00983547,-0.0279397 0.0783066,-0.348492 -0.139902,-0.257289 -0.363825,-0.237226 0.00427944,-0.107929 -0.0193953,-0.301128 0.109597,-0.301128 0.646109,-0.166623 0.412016,-1.04366 -0.433051,-0.986579 -0.0365566,0.00926971 -0.0730987,0.0185394 -0.109655,0.0277946 -0.000478718,-0.0362085 -0.000957435,-0.0724024 -0.00143615,-0.108596 0,-0.105448 -0.032016,-0.242405 -0.13127,-0.242405 -0.18551,0 -0.2355,0.0892736 -0.373661,0.181797 -0.0786257,-0.163852 -0.0582585,-0.294252 -0.189746,-0.446542 -0.368482,-0.426247 -0.92114,-0.112223 -0.92114,0.365755 -0.267008,-0.141367 -0.475889,0.174906 -0.533668,0.422983 -0.0340615,-0.00909563 -0.0871411,-0.156599 -0.108828,-0.194504 -0.0889544,-0.155424 -0.296964,-0.342646 -0.479153,-0.349159 -0.367147,-0.013172 -0.655741,0.345591 -0.655741,0.686292 0,0.0966864 0.0501638,0.169379 -0.0745494,0.114965 -0.0584906,-0.0255316 -0.118446,-0.034163 -0.198117,-0.034163 -0.103185,0 -0.282966,0.163185 -0.32119,0.22417 -0.4128,0.658672 0.0683551,0.166463 -0.432122,-0.167682 -0.26489,-0.17685 -0.378274,0.174413 -0.451271,0.180491 -0.254359,-0.269474 -0.535685,-0.213218 -0.775537,-0.00162474 -0.259175,0.228667 -0.272767,0.64299 -0.276409,0.542547 -0.00673106,0.00448254 -0.358139,0.0137522 -0.370542,0.00114602 -0.0756374,-0.153987 -0.0700088,-1.08165 -0.012026,-1.2369 0.14009,-0.0559954 0.275219,-0.0934515 0.523891,-0.150346 0.0487421,-0.0111701 0.277206,-0.011025 0.277206,0.0561405 0,0.0235587 0.0147822,0.0116488 0.0147822,0.0352075 -0.0691239,0.00987899 -0.0736645,0.0868074 -0.137247,0.152827 -0.0494385,0.0513533 -0.109699,0.084646 -0.109699,0.0862272 -0.047306,0.172933 0.268648,0.115661 0.589809,0.0740271 0.22462,-0.0291292 0.203078,-0.147387 0.167508,-0.129544 -0.158804,0 -0.146096,-0.204949 -0.353468,-0.222212 0,-0.377157 -0.918833,-0.0880695 -1.07098,0.0463776 -0.215466,0.17656 -0.0975713,0.932078 -0.131009,1.33317 -0.428887,0.0460729 -1.08884,0.822785 -0.601603,1.10711 0.683202,0.0742883 0.889892,1.53963 1.36477,2.15704 0.197478,0.355252 0.473016,0.344735 0.487189,0.384671 0.135216,0.380755 0.227318,0.5404 0.698957,0.476324 0.384193,-0.09129 0.407055,-0.306872 0.454303,-0.547783 0.224402,-0.0136072 0.353714,0.00722428 0.576753,-0.0139263 0.0114167,0.104694 0.0828036,0.295659 0.188687,0.371804 0.392186,0.272564 0.867683,0.0377897 0.950878,-0.414323 0.268241,0.00310441 0.500622,0.0256041 0.739386,0.00829777 0.0090231,0.108335 0.0937416,0.220964 0.153697,0.285258 0.345823,0.28092 0.733888,-0.0196274 0.80999,-0.309701 0.0267211,-0.047306 0.173978,-0.0526879 0.236893,-0.0684421 0.96244,-0.22932 0.553223,-1.25668 0.869191,-3.17966 0.0122726,0.00467112 0.144181,-0.0523108 0.199814,-0.0618851 0.0597091,0.0357297 0.0314068,0.0814545 0.0314068,0.14273 -0.0790754,0.0203963 -0.135027,0.116343 -0.130081,0.151318 0.00961787,0.0722863 -0.0378912,0.460193 0.0613339,0.445323z"/>
  <path class="fil2" d="M0.233135 2.96848c0.221327,0 0.27577,-0.14817 0.597048,-0.0934805 0.177154,0.0301592 0.436402,0.0903616 0.590636,0.146299 0.471305,0.170888 1.00471,0.192822 1.50213,0.192822 0.492426,0 1.07342,-0.279919 1.5359,-0.46057 0.141932,-0.0554297 0.376083,-0.147692 0.490671,-0.202672l0.0245597 -0.159674c-0.0718657,0.0167406 -0.408404,0.1792 -0.491367,0.221008 -0.154655,0.0779294 -0.329851,0.144703 -0.498592,0.213784 -0.501261,0.205181 -0.918862,0.302143 -1.4542,0.302143 -0.308903,0 -0.702453,-0.0878519 -0.965428,-0.152247 -0.234891,-0.0575186 -0.6643,-0.228493 -0.901469,-0.228493l-0.0491338 0c-0.176081,0 -0.318275,0.103011 -0.380755,0.22108z"/>
  <path class="fil2" d="M6.17775 2.04732c0.0268517,0 0.356732,-0.133635 0.434763,-0.154785 0.14289,-0.0387326 0.400425,-0.0215278 0.400425,-0.189122l0 -0.0614209c0,-0.0476106 -0.0674992,-0.0982531 -0.122827,-0.0982531l-0.0736935 0c-0.119143,0 -0.872035,0.327167 -0.872035,0.405314 0,0.0621462 0.0665127,0.0982676 0.1351,0.0982676l0.0982676 0zm-5.05344 2.0859l0.0500913 0.123799c-0.0100095,0.0083703 0.746799,0.0878084 0.922982,0.138872 0.0579974,0.0330025 0.189601,0.0544287 0.267879,0.076029 0.170177,0.0469433 0.412466,0.0490323 0.599441,0.0829777 0.137377,0.0249368 0.509254,0.0102707 0.670625,0.0102707 0.297385,0 1.53528,-0.141193 1.53528,-0.307047l0 -0.0614209c0,-0.0647139 -0.128354,0.00845734 -0.174195,0.0223256 -0.0640031,0.0193808 -0.150187,0.0457103 -0.211405,0.0587952 -0.15657,0.0334667 -0.277366,0.069327 -0.442378,0.0980501 -0.316925,0.0551396 -0.609727,0.10333 -0.977512,0.10333 -0.744087,0 -1.49862,-0.518756 -2.2408,-0.345982zm4.07085 0.777423l-0.0122726 -0.11054c-0.51996,0.147213 -1.44158,0.248803 -2.16898,0.209403 -0.0254881,-0.00137813 -0.0418225,0.0142455 -0.0418225,0.0346708 0,0.0343226 0.00291582,0.0736935 0.0491193,0.0736935 0.778308,0.0083703 1.44519,-0.0159282 2.17396,-0.207227zm0.712375 0.305494c0.0399802,0 0.1351,-0.0849796 0.1351,-0.147387 0,-0.0492499 -0.0674702,-0.0982676 -0.11054,-0.0982676 -0.0614934,0 -0.147387,0.057301 -0.147387,0.11054l0 0.0122871c0,0.0632632 0.0707196,0.122827 0.122827,0.122827zm1.11767 -0.22108c0.0667738,-0.0353381 0.147387,-0.0580119 0.147387,-0.159674 0,-0.0152899 -0.01867,-0.0491338 -0.0491193,-0.0491338l-0.0245742 0c-0.0808017,0 -0.15966,0.0430556 -0.15966,0.122827 0,0.0158267 0.0721558,0.0739691 0.0859661,0.0859806zm-1.57212 0.515854l-0.1351 0 0 0.112063c0,0.078205 0.441305,0.0230365 0.515854,0.0230365 0.602589,0 1.52752,-0.0976439 1.63353,-0.552701 -0.334667,0.224112 -1.41429,0.417601 -2.01428,0.417601z"/>
  <polygon class="fil2" points="3.41452,5.62618 3.3037,5.62145 3.3037,5.68286 3.69724,5.6875 3.9301,5.6583 3.92998,5.59503 "/>
  <path class="fil2" d="M1.95266 5.63372l0.229538 0.0732583 0.00381523 -0.0118374c0.00789159,-0.0329445 0.0122871,-0.0231525 0.0122871,-0.0491338 0,-0.0524703 -0.244131,-0.0671365 -0.24564,-0.0122871z"/>
  <path class="fil3" d="M2.57904 5.69514c0,0.0808017 0.0430701,0.15966 0.122827,0.15966l0.0245597 0c0.09026,0 0.147387,-0.136522 0.147387,-0.22108l0 -0.0368467c0,-0.0540951 -0.0789159,-0.0614064 -0.1351,-0.0614064l-0.0122871 0c-0.0795832,0 -0.147387,0.0857485 -0.147387,0.159674zm-0.982575 -3.78294c-0.140351,0.0742737 -0.130995,0.146212 -0.22108,0.208808 0.0445207,0.0171178 0,0.0393709 0,0.122813 0,0.100313 0.018641,0.164302 0.11054,0.171961 -0.0108074,-0.0463921 -0.0245597,-0.0768414 -0.0245597,-0.135114l0 -0.0491193 0.0245597 -0.0122871c-0.0286505,-0.0492354 0.0788433,-0.206052 0.135114,-0.22108 0.160777,-0.0771461 0.338076,0.040749 0.393027,0.122827 -0.0238053,0.0449704 -0.0614064,0.106348 -0.0614064,0.171947l0 0.0614064c0,0.0620447 0.0246032,0.0846169 0.0859661,0.0859806 -0.0148402,-0.0221661 -0.0245597,-0.0216003 -0.0245597,-0.0491338l0 -0.0736935c0,-0.0646124 0.0147677,-0.105652 0.0368467,-0.147387l0.0472335 0.0389357 0.00188586 -0.112629c0.15921,-0.067151 0.276539,-0.136522 0.426842,0.015319 0.0339164,0.0342646 0.111628,0.133997 0.150433,0.144355l0 -0.0491338c0,-0.0950182 -0.171845,-0.233368 -0.282501,-0.233368 -0.135201,0 -0.202033,0.00744188 -0.319334,0.0859806 -0.0651781,-0.0436503 -0.0764933,-0.0842978 -0.162024,-0.132735 -0.0934224,-0.0529055 -0.19156,-0.0264745 -0.231003,-0.0514984l-0.0859806 0.0368467zm0.700088 0.687816c0,0.06718 0.0651926,0.1351 0.1351,0.1351 0.0521947,0 0.11054,-0.0670205 0.11054,-0.122827l0 -0.0245597c0,-0.041837 -0.0683841,-0.0736935 -0.11054,-0.0736935l-0.0122726 0c-0.0675717,0 -0.122827,0.0162619 -0.122827,0.0859806zm0.540414 -0.0245742c-0.0114602,-0.0764352 0.0815996,-0.184234 0.159674,-0.184234l0.11054 0c0.0733743,0 0.111541,0.0690369 0.184234,0.0859806 0,-0.116793 -0.0840512,-0.147387 -0.196521,-0.147387l-0.0736935 0c-0.132184,0 -0.24564,0.106159 -0.24564,0.24564 0,0.0641627 0.00899409,0.109104 0.0736935,0.11054l-0.0122871 -0.11054zm0.663241 -0.442161c0,-0.193721 0.140424,-0.266297 0.304,-0.272622 0.196419,-0.00760145 0.203049,0.188644 0.310122,0.26035 0,-0.15258 -0.118736,-0.307061 -0.257927,-0.307061l-0.122827 0c-0.134636,0 -0.282487,0.161357 -0.282487,0.294774 0,0.0444627 0.0147242,0.0698057 0.0614064,0.0736935 -0.00812369,-0.0348448 -0.0122871,-0.0210055 -0.0122871,-0.0491338zm0.331621 0.417601l0 -0.0245597c0,-0.0286505 -0.0327704,-0.0614209 -0.0614064,-0.0614209l-0.0859806 0c-0.0287376,0 -0.0491193,0.0203818 -0.0491193,0.0491338l0 0.0368467c0,0.029724 0.0562566,0.0859806 0.0859661,0.0859806l0.0245742 0c0.0297095,0 0.0859661,-0.0562566 0.0859661,-0.0859806zm0.368467 -0.11054c0,-0.16391 0.15084,-0.147387 0.270214,-0.147387l0.13964 0.107973 0.00774652 -0.00971942c0,-0.124858 -0.112513,-0.15966 -0.233368,-0.15966 -0.116488,0 -0.233353,0.072707 -0.233353,0.184234l0 0.0982531 0.0491193 0 0 -0.0736935zm0.307061 -0.650969c0,-0.0810193 0.0879825,-0.1351 0.171947,-0.1351l0.0368467 0c0.0576637,0 0.014231,0.0469868 0.11054,0.0491338l0 -0.0491338c0,-0.0481764 -0.0607536,-0.0614064 -0.11054,-0.0614064l-0.0736935 0c-0.0828907,0 -0.209272,0.0943944 -0.196506,0.196506l0.0140134 0.134897c0.0291147,0.00845734 0.130893,0.0886208 0.113688,0.0210201 -0.00860241,-0.0338004 -0.0662951,-0.078205 -0.0662951,-0.14363l0 -0.0122871zm0.786069 -0.454433l-0.0245742 -0.0859806c-0.0311021,-0.0357878 -0.0574606,-0.0859806 -0.122813,-0.0859806l-0.0736935 0c-0.0918122,0 -0.171961,0.0736064 -0.171961,0.159674l0 0.0736935 0.0368467 0c0.00200191,-0.0897378 0.10555,-0.171947 0.184234,-0.171947 0.0732438,0 0.0796847,0.0662661 0.171961,0.11054zm-0.159674 0.540414c0,-0.055009 0.0773491,-0.11054 0.1351,-0.11054l0.0368467 0c0.0938722,0 0.0586501,0.0565612 0.122827,0.0736935 0.0160443,-0.0323787 0.0122871,0.0101111 0.0122871,-0.0368467l0 -0.0245597c0,-0.049482 -0.10555,-0.0736935 -0.159674,-0.0736935 -0.0871121,0 -0.196521,0.0678473 -0.196521,0.15966l0 0.0859806c0,0.0406185 0.051716,0.0768269 0.0859806,0.0859806 0,-0.0890415 -0.0368467,-0.0916672 -0.0368467,-0.159674zm0.442161 -0.294774c0.00494675,-0.0452025 0.0800184,-0.122827 0.1351,-0.122827l0.0491338 0c0.0939447,0 0.0424463,0.0615225 0.1351,0.11054 0,-0.0692109 -0.0250819,-0.15966 -0.0859661,-0.15966l-0.0982676 0c-0.0692109,0 -0.15966,0.0780164 -0.15966,0.147387 0,0.0165665 0.0136217,0.0184234 0.0245597,0.0245597zm-5.34278 1.3879c-0.00641191,0.0275335 -0.0122726,0.0282298 -0.0122726,0.0614064l0 0.0368467c0,0.0289261 0.0391533,0.0774507 0.0742883,0.079264l0.6258 -0.0669769 0.184234 0c0.720484,0 1.09885,0.38074 1.74407,0.38074l0.208793 0c0.369802,0 0.781078,-0.163852 1.05464,-0.271839 0.146691,-0.0578958 0.307438,-0.139031 0.451938,-0.211303 0.0876053,-0.0438244 0.384396,-0.214799 0.449733,-0.230147l-0.0648445 -0.195592c-0.621317,0.241825 -1.4607,0.663241 -2.02657,0.663241l-0.22108 0c-0.397945,0 -0.98816,-0.0866189 -1.28105,-0.192822 -0.154234,-0.0559374 -0.413481,-0.11614 -0.590636,-0.146299 -0.321277,-0.0546898 -0.375721,0.0934805 -0.597048,0.0934805zm5.14626 1.49843l0 0.0736935c0,0.141541 0.149418,0.307061 0.294774,0.307061 0.0454927,0 0.0554877,-0.0119824 0.0736935,-0.0368467 -0.180796,-0.0150433 -0.282487,-0.287463 -0.282487,-0.503582 -0.0306524,0.0224562 -0.0859806,0.107711 -0.0859806,0.159674zm0.859762 -0.282487c0.0199466,0 0.293846,-0.108408 0.342327,-0.124394 0.101038,-0.0333361 0.259494,-0.0561115 0.259494,-0.194954l0 -0.0368467c-0.0353235,0.00944379 -0.243522,0.123698 -0.323062,0.155931 -0.083732,0.0339454 -0.263469,0.108698 -0.340165,0.12657 0.0162619,0.030725 0.0216293,0.0736935 0.0614064,0.0736935zm0.822901 -0.282501l0 0.0859806c0,0.129399 0.153799,0.24564 0.294774,0.24564 -0.0381378,-0.142846 -0.22108,-0.092378 -0.22108,-0.540414 -0.0454201,0.0332781 -0.0736935,0.129573 -0.0736935,0.208793zm-2.80034 1.78093c0,0.0812369 0.091319,0.159674 0.171947,0.159674 0.104941,0 0.196521,-0.147924 0.196521,-0.270214 0,-0.0588242 -0.0426639,-0.1351 -0.11054,-0.1351 -0.118084,0 -0.257927,0.141874 -0.257927,0.24564z"/>
  <path class="fil4" d="M6.4111 1.19983c-0.0214262,-0.014347 -0.0614064,-0.0397481 -0.0614064,-0.0736935l0 -0.0368467c0,-0.0544577 0.121449,-0.122813 0.184234,-0.122813 0.0287521,0 0.0491193,0.0203818 0.0491193,0.0491193l0 0.0736935c0,0.0601443 -0.117561,0.097876 -0.171947,0.11054zm0.0122871 0.0491338c0.104041,0 0.22108,-0.101894 0.22108,-0.196521 0,-0.0751006 -0.103766,-0.147387 -0.171961,-0.147387l-0.0122726 0c-0.0962367,0 -0.196521,0.0893461 -0.196521,0.196521 0,0.0737805 0.0736064,0.147387 0.147387,0.147387l0.0122871 0z"/>
  <path class="fil5" d="M5.93423 5.76884c0,-0.0371224 0.370905,-0.0203237 0.464588,-0.0491338 0.0476977,0 0.122827,0.0163344 0.122827,0.0614064 0,0.114602 -0.23328,0.204557 -0.335857,0.204557 -0.117112,0 -0.251559,-0.123567 -0.251559,-0.21683zm-4.4483 -3.54957l0.0736935 0 0.0614209 -0.22108c-0.0562711,0.0150288 -0.163765,0.171845 -0.135114,0.22108zm2.77579 3.46359c0,-0.103766 0.139844,-0.24564 0.257927,-0.24564 0.0678763,0 0.11054,0.0762757 0.11054,0.1351 0,0.122291 -0.0915801,0.270214 -0.196521,0.270214 -0.0806276,0 -0.171947,-0.0784371 -0.171947,-0.159674zm-0.0736935 -0.0122871l0 0.0736935c0,0.0803375 0.123567,0.159674 0.196506,0.159674l0.0491338 0c0.131633,0 0.257927,-0.139278 0.257927,-0.270214l0 -0.0614064c0,-0.0971506 -0.130762,-0.22108 -0.233368,-0.22108 -0.147271,0 -0.2702,0.166927 -0.2702,0.319334zm-1.60898 0.0245742c0,-0.0739256 0.0678038,-0.159674 0.147387,-0.159674l0.0122871 0c0.056184,0 0.1351,0.00731132 0.1351,0.0614064l0 0.0368467c0,0.0845589 -0.057127,0.22108 -0.147387,0.22108l-0.0245597 0c-0.0797572,0 -0.122827,-0.0788578 -0.122827,-0.15966zm-0.0736935 0.0368467c0,0.11466 0.0818607,0.196506 0.196521,0.196506l0.0368467 0c0.118055,0 0.196521,-0.155641 0.196521,-0.282487 0,-0.0900859 -0.117953,-0.184234 -0.208808,-0.184234 -0.114472,0 -0.22108,0.150158 -0.22108,0.270214zm3.75713 -1.35555l-0.00954534 -0.0645398 0.547551 -0.175704 0.00699218 0.0103432 0.0266921 0.0852988 -0.00870395 -0.0100676 -0.562986 0.154669zm-0.0233266 -0.192009c-0.0397771,0 -0.0451445,-0.0429685 -0.0614064,-0.0736935 0.0766963,-0.0178721 0.256433,-0.0926246 0.340165,-0.12657 0.0795396,-0.0322336 0.287738,-0.146488 0.323062,-0.155931l0 0.0368467c0,0.138843 -0.158455,0.161618 -0.259494,0.194954 -0.048481,0.0159863 -0.32238,0.124394 -0.342327,0.124394zm-0.1351 -0.159674c-0.0331766,0 -0.0338729,-0.00586066 -0.0614209,-0.0122871 0.00493224,0.0592449 0.0680214,0.110003 0.0970346,0.197739 0.0212376,0.0642207 0.0257927,0.194272 0.0257927,0.281268 0.084704,-0.019729 0.270737,-0.0913625 0.363477,-0.127803 0.0579828,-0.0227753 0.128862,-0.0454637 0.190428,-0.0552266 0.0615805,-0.00976294 0.18303,-0.00298836 0.18303,-0.0626104l0 -0.0122871c0,-0.0784807 -0.0245742,-0.093466 -0.0245742,-0.171947l0 -0.0122871c0,-0.129471 0.0471464,-0.205602 0.0491338,-0.294774l-0.0491338 0c-0.178417,0 -0.421562,0.270214 -0.773767,0.270214zm0.307047 0.601835c0.151724,0 0.391141,-0.149316 0.503567,-0.208808 0,0.180447 -0.273855,0.307061 -0.454433,0.307061l-0.0491338 0c-0.0819042,0 -0.121028,-0.017669 -0.122813,-0.0982531l0.122813 0zm-0.122813 -0.0736935l-0.11054 0c0.010909,0.0468418 0.0536454,0.24564 0.0982531,0.24564l0.196506 0c0.216714,0 0.528141,-0.162517 0.528141,-0.343908l0 -0.0491193c0,-0.0558069 -0.0262279,-0.0640756 -0.0491338,-0.0982676 -0.164026,0.109844 -0.392766,0.245655 -0.663227,0.245655zm-3.99174 1.05627c0,-0.200815 0.22887,-0.359444 0.440159,-0.359444 0.291945,0 0.395029,0.244973 0.395029,0.494544 0,0.135303 -0.0773782,0.357863 -0.307047,0.429888 -0.233411,0.0288101 -0.528141,-0.122653 -0.528141,-0.466735l0 -0.0982531zm1.74408 0.0122871c0,-0.162082 0.203223,-0.405314 0.368467,-0.405314l0.0859661 0c0.155757,0 0.356195,0.248251 0.356195,0.429874l0 0.0491338c0,0.208228 -0.219557,0.378622 -0.44808,0.378622 -0.170598,0 -0.362549,-0.1398 -0.362549,-0.317216l0 -0.1351zm-0.110656 -0.0264165l0.000116053 0.0632632 -0.23286 0.0292018 -0.393535 -0.00464211 0 -0.0614064 0.110816 0.00472915 0.515463 -0.0311457zm-1.74397 0.10011l-0.00381523 0.0118374 -0.229538 -0.0732583c0.00150869,-0.0548494 0.24564,-0.0401833 0.24564,0.0122871 0,0.0259813 -0.0043955,0.0161894 -0.0122871,0.0491338zm3.0575 -0.163823l0.0163489 0.114239 -0.0646994 0.000449704 -0.184031 -0.0143615 -0.0114747 -0.054008 0.243856 -0.0463195zm0.209577 -0.0204108c0.599993,0 1.67962,-0.193489 2.01428,-0.417601 -0.106014,0.455057 -1.03094,0.552701 -1.63353,0.552701l-0.479008 0c-0.0283024,0 -0.0368467,-0.00854438 -0.0368467,-0.0368467l0 -0.0982531 0.1351 0zm-0.0736935 -1.044c0,-0.0519626 0.0553281,-0.137218 0.0859806,-0.159674 0,0.216119 0.101691,0.488538 0.282487,0.503582 -0.0182058,0.0248643 -0.0282008,0.0368467 -0.0736935,0.0368467 -0.145356,0 -0.294774,-0.16552 -0.294774,-0.307061 0,-0.0245597 0,-0.0491193 0,-0.0736935zm-0.196506 0.294774l0.0122726 0.11054 0.0122871 0.479008c0,0.059477 -0.0200771,0.130211 -0.0730987,0.130211l-0.111135 0.0171758c-0.0535438,0 -0.165143,-0.405314 -0.515854,-0.405314l-0.0368467 0c-0.267182,0 -0.567237,0.225577 -0.586284,0.454448l-0.578523 0.0122726c-0.0605215,-0.293657 -0.29708,-0.384004 -0.507586,-0.384004 -0.451547,0 -0.620012,0.311819 -0.630906,0.379492 -0.316955,0.0212812 -0.470202,-0.224185 -0.595307,-0.474496 -0.0338439,-0.0677023 -0.307061,-0.668377 -0.307061,-0.700088 0.0517015,-0.15863 0.761103,0.0887948 1.03888,0.152508 0.277279,0.0636259 0.681969,0.105419 1.01226,0.105419 0.045043,0 0.0900859,0 0.135114,0 0.323323,0 0.63536,-0.028549 0.911783,-0.0707922 0.146154,-0.0223402 0.288507,-0.0425188 0.417485,-0.073795 0.101154,-0.0245452 0.287289,-0.0935095 0.377955,-0.101053l0.0245742 0.368467zm0.572967 -0.676123l0.00429395 0.0742883c0,0.0873877 0.0408215,0.148925 0.0828181,0.176995 0.106536,0.0712419 0.204572,-0.00512083 0.204572,0.0483795 0.0214698,0.109858 -0.0141729,0.351901 -0.17685,0.351901 -0.319885,0 -0.486203,-0.565061 -0.114834,-0.651564zm-4.53592 0.180201l-0.0410537 -0.0936255 0 -0.0245597c0.043955,-0.0102417 0.0577072,-0.0245742 0.11054,-0.0245742l0.0614064 0c0.696099,0 1.22929,0.356195 1.97744,0.356195 0.0122871,0 0.0245742,0 0.0368467,0 0.367786,0 0.660587,-0.0481909 0.977512,-0.10333 0.165012,-0.0287231 0.285809,-0.0645833 0.442378,-0.0980501 0.0612178,-0.0130849 0.147401,-0.0394144 0.211405,-0.0587952 0.0458408,-0.0138683 0.174195,-0.0870395 0.174195,-0.0223256 0,0.0204833 0,0.0409521 0,0.0614209 0,0.165854 -1.23789,0.307047 -1.53528,0.307047 -0.161371,0 -0.533248,0.00776103 -0.670625,-0.0171758 -0.536773,-0.0400527 -1.55566,-0.377563 -1.74477,-0.282226zm0.651694 -0.935356c0.123567,0.0262424 0.43601,0.1717 0.671742,0.218629 0.100023,0.0199175 0.178184,0.016494 0.171744,0.0817156 0.00166826,0.0762466 -0.000812369,0.15744 -0.000957435,0.234339 -0.000290132,0.144515 0.0122726,0.297008 0.0122726,0.458945 -0.191603,-0.056155 -0.454506,-0.154437 -0.688758,-0.20006 -0.0831083,-0.0162039 -0.166042,-0.0111266 -0.166042,-0.102895l0 -0.690673zm5.19043 0.571516c0,-0.0792205 0.0282733,-0.175515 0.0736935,-0.208793 0,0.448036 0.182943,0.397568 0.22108,0.540414 -0.140975,0 -0.294774,-0.116241 -0.294774,-0.24564l0 -0.0859806zm0.147387 -0.15966c0,-0.0892591 0.105637,-0.147387 0.208808,-0.147387l0 0.0491193c0,0.0381813 0.0422287,0.0982676 0.122813,0.0982676l0.0491338 0 0 0.24564c0,0.0663386 -0.0347143,0.159674 -0.0982531,0.159674 -0.149287,0 -0.282501,-0.240432 -0.282501,-0.405314zm-3.41446 -0.294774c0,-0.0481474 0.542256,-0.26682 0.599731,-0.268111 0.0838191,0.368888 0.0669044,0.694605 0.100357,1.04189 0,0.0331621 -0.00586066,0.0338584 -0.0122726,0.0614064 -0.179476,0.0258943 -0.465517,0.0802795 -0.638682,0.0736935l-0.0564016 -0.773274 0.0072678 -0.135608zm-0.859748 0.1351c0.136043,0 0.296964,-0.0284619 0.418979,-0.0477412 0.112499,-0.0177851 0.280209,-0.0801344 0.367075,-0.0873587l0 0.196506c0.00954534,0.241491 0.0326108,0.501029 0.0421416,0.74252 -0.385817,0.0389067 -0.688889,0.0222096 -0.963426,-0.0547044l-0.0239214 -0.749236 0.159152 1.45066e-005zm2.92686 0.438462c0.280964,-0.149476 0.979906,-0.376214 1.27365,-0.426175 -0.0700088,0.0955549 -0.171947,0.157193 -0.171947,0.343893 0,0.198958 0.104273,0.405314 0.331621,0.405314 0.150158,0 0.198131,-0.0663241 0.282487,-0.122813 0,0.662487 -0.0730842,0.821842 -0.602517,0.969606 -0.551192,0.153828 -1.09158,0.270809 -1.63263,0.219833 -0.0678763,-0.099109 -0.0861837,-0.684189 -0.0861837,-0.882392 0,-0.0573155 0,-0.114631 0,-0.171947 0,-0.0395014 0.0759275,-0.0656278 0.11054,-0.0736935 -0.0193373,0.0402993 -0.0448399,0.118736 -0.0491338,0.208793 0,0.253532 0.102083,0.429888 0.393027,0.429888 0.278889,-0.0386456 0.393042,-0.273043 0.393042,-0.479008 0,-0.0899409 -0.0304203,-0.206893 -0.0661936,-0.265442 -0.0598687,-0.0979775 -0.110308,-0.107537 -0.175762,-0.155859zm-0.593247 0.114239c0,-0.046189 0.179476,-0.0972667 0.226158,-0.11775 0.0982967,-0.0431716 0.143412,-0.067064 0.232425,-0.111469 0.155917,-0.0777843 0.307815,-0.145907 0.482373,-0.205442 0.325151,-0.110903 0.709764,-0.240867 1.13475,-0.240867 -0.0454346,0.0394869 -0.935196,0.289203 -1.08546,0.339295 -0.186149,0.0620592 -0.298923,0.1173 -0.467751,0.188789 -0.0518901,0.0219775 -0.116459,0.0235877 -0.182827,0.0572285 -0.0450865,0.0228479 -0.0691964,0.0407345 -0.106275,0.0656858 -0.0442306,0.0297675 -0.169974,0.10909 -0.233397,0.110511 0,-0.0286505 0,-0.0573155 0,-0.0859806zm-3.50043 -0.847475l0.020904 0.779468c-0.190776,-0.0178431 -0.463341,-0.0853713 -0.647299,-0.0425333l-0.442654 -0.776871c0.402384,-0.0629006 0.716858,-0.0684856 1.06905,0.0399366zm3.1074 -0.0122871c0,-0.133287 0.116589,-0.15966 0.24564,-0.15966 0,0.0163779 0,0.0327559 0,0.0491193 -0.118316,0 -0.196506,0.0405749 -0.196506,0.159674 0,0.0245742 0,0.0491338 0,0.0736935 -0.0346853,-0.00288681 -0.0491338,0.000290132 -0.0491338,-0.0368467 0,-0.0286505 0,-0.0573155 0,-0.0859806zm0.229074 -0.47599c0.00143615,0.0767834 0.00287231,0.153567 0.00429395,0.23035 -0.0986303,0.00821073 -0.307061,0.0870686 -0.307061,0.196521 0,0.0777843 0,0.155569 0,0.233353 -0.0892155,0.0019874 -0.159674,0.0376011 -0.159674,0.125511 0,0.106116 -0.000739836,0.488611 0.13935,0.488611 0.170336,-0.0192067 0.310818,-0.0280703 0.315692,-0.183639 0.0046276,-0.148083 0.0652216,-0.513881 -0.123422,-0.470695 0,-0.0245597 0,-0.0580264 0,-0.0826005 0,-0.0620882 0.0443176,-0.122827 0.11054,-0.122827 0.0122871,0 0.0245742,0 0.0368467,0 0.01323,0.29473 0.0264455,0.589461 0.039661,0.884191 -0.197696,0.0453331 -0.356427,0.120796 -0.567788,0.147518 0,-0.280688 -0.0200336,-0.61006 -0.0686597,-0.889356 -0.0123886,-0.0710968 -0.028607,-0.177024 -0.0344386,-0.232715 0.207865,-0.1051 0.406808,-0.228015 0.614659,-0.324222zm1.41674 -0.604838c0,-0.0397771 0.0429685,-0.045159 0.0736935,-0.0614209l0.0288826 1.093 -0.00432296 0.27033 -0.0843848 0.0289261 -0.0169002 -1.24483 0.00303188 -0.0860096zm1.49843 0.503567c0.0269823,-0.0402993 0.0425333,-0.0859806 0.11054,-0.0859806l0.0491338 0c-0.0210781,0.0789449 -0.114515,0.0966574 -0.122827,0.196521l0.0368467 0 -0.0519046 0.0809758 -0.0217889 -0.191516zm-3.07055 -0.147387c0.0216148,0.0652071 0.0432296,0.1304 0.0648445,0.195592 -0.0653377,0.015348 -0.362128,0.186323 -0.449733,0.230147 -0.1445,0.0722718 -0.305248,0.153407 -0.451938,0.211303 -0.273565,0.107987 -0.684842,0.271839 -1.05464,0.271839l-0.208793 0c-0.645224,0 -1.02359,-0.38074 -1.74407,-0.38074l-0.184234 0 -0.6258 0.0669769c-0.090318,-0.00465662 -0.0754923,-0.119636 -0.0620157,-0.177517 0.0624799,-0.118069 0.204673,-0.22108 0.380755,-0.22108l0.0491338 0c0.237168,0 0.666578,0.170975 0.901469,0.228493 0.262975,0.0643948 0.656525,0.152247 0.965428,0.152247 0.372152,0.0115182 0.887658,0.000957435 1.4542,-0.302143 0.308207,-0.126164 0.746741,-0.274929 0.989959,-0.434792 -0.00818172,0.0532247 -0.0163634,0.106449 -0.0245597,0.159674zm2.92317 -0.196521c0.0388051,-0.0733308 0.0206284,-0.0376301 0.108393,-0.0635679 0.0420546,-0.0124321 0.0766963,-0.0469723 0.124974,-0.0469723l0.0122871 0c0.0275335,0 0.0269532,0.00971942 0.0491193,0.0245742l0.0150723 0.134752 -0.00278527 0.0617546 -0.0245597 0 0 -0.0368467c0,-0.0421416 -0.0318565,-0.11054 -0.0736935,-0.11054l-0.0122871 0c-0.0662081,0 -0.117837,0.0350914 -0.196521,0.0368467zm-2.66524 0.454448c0,-0.0625814 1.10009,-0.587967 1.26506,-0.626395 -0.0160443,0.0323787 -0.0122726,-0.0101111 -0.0122726,0.0368467l0 1.33877 -0.00471464 -0.0117939 -0.728507 0.291292 -0.0105898 -0.0136797 0.368279 -0.577391c0.0524848,0.0349319 0.112296,0.102765 0.166739,0.102765 0.037311,0 0.0416919,-0.0212957 0.0491193,-0.0491193 -0.231583,-0.0618416 -0.30548,-0.513765 -0.405314,-0.540429 -0.0160443,0.0323787 -0.0122726,-0.0101111 -0.0122726,0.0368467l0 0.0982676c0,0.0791335 0.0689353,0.274929 0.15966,0.282487 -0.0253285,0.108698 -0.233991,0.405271 -0.302158,0.508471 -0.0923199,0.139786 -0.239185,0.339005 -0.459337,0.339005 -0.0122726,0 -0.0245597,0 -0.0368467,0 0,-0.0409376 0,-0.0818752 0,-0.122827 -0.0136217,-0.335654 -0.0272579,-0.671307 -0.0408941,-1.00696 0.00134911,-0.0287085 0.00269823,-0.0574316 0.00404734,-0.0861546zm1.43702 -0.650954c0.112702,-0.129674 0.840817,-0.208808 1.11767,-0.208808 0,0.212783 -0.0281428,0.572459 -0.0584906,0.76441 -0.0179882,0.113775 -0.0319725,0.6849 -0.125743,0.6849l-0.147387 0c-0.0763337,0 -0.319334,-0.419893 -0.319334,-0.503567l0 -0.0122871c0,-0.105768 0.208431,-0.466721 0.11054,-0.466721 -0.0275335,0 -0.0269532,0.00971942 -0.0491338,0.0245597 0,0.171279 -0.231801,0.559548 -0.331621,0.626395l-0.0118084 0.110598 0.0337423 0.0394144 0.011997 0.00680359 0.16259 -0.181376c0.10114,0.00224852 0.224431,0.265108 0.24564,0.35618 -0.221138,0 -0.422983,0.0565902 -0.60182,0.0982531l0 -0.466721 -0.0368467 -0.872035zm-5.56386 0.0245597c-0.0835435,-0.0559374 -0.0614064,-0.217004 -0.0614064,-0.356195 0.047364,0.0347143 0.0614064,0.26505 0.0614064,0.356195zm3.97945 0.380755c-0.0302027,-0.549742 1.59008,-1.00441 2.09536,-1.14717 0.102039,-0.0211071 0.799792,-0.200626 0.852378,-0.22845 0.0623493,0.04175 0.184234,0.136014 0.184234,0.233353 0,0.341558 -0.46337,0.365247 -0.705339,0.412364 -0.310833,0.060536 -0.576086,0.127005 -0.857223,0.199045 -0.250804,0.0642787 -0.539007,0.198639 -0.758695,0.297574 -0.0991526,0.0446368 -0.810715,0.517233 -0.810715,0.23328zm-3.23023 -1.49844c0.00633938,-0.0761741 0.0509907,-0.0779149 0.122102,-0.0866914 0.105768,-0.0130704 0.0298401,-0.0975423 0.111251,-0.0975423 0.0245742,0 0.0491338,0 0.0736935,0 0.0937851,0 0.140163,0.0482924 0.147387,0.1351 -0.13906,0.0212667 -0.278135,0.0425333 -0.41721,0.0637855 -0.00159573,-0.00217599 -0.0256477,-0.0115763 -0.0372239,-0.0146517zm-0.822915 0.1351c0,-0.120753 0.00398931,-0.281878 0.0982676,-0.307047 0.0455652,0.0919573 -0.0358023,0.309846 -0.0482634,0.418457 -0.0144196,0.1257 -0.0254301,0.289189 -0.0254301,0.416731 -0.0183218,-0.0263585 -0.0245742,-0.0405749 -0.0245742,-0.0859806l0 -0.442161zm0.356195 -0.429874c-0.00252415,-0.0598397 0.297501,-0.11054 0.417587,-0.11054 0.138654,-0.00248063 0.14627,0.0157106 0.135114,0.0368467 -0.184234,0.0245742 -0.368467,0.0491338 -0.552701,0.0736935zm0.233353 1.14225l0.0859806 -0.0368467c0.0997763,-0.188586 0.280383,-0.467228 0.530071,-0.467228 0.204195,0 0.316664,0.295282 0.366524,0.295282l0.0491338 0 0 -0.0614209c0,-0.109626 0.110453,-0.208793 0.208793,-0.208793l0.0614209 0c0.167435,0 0.282487,0.162068 0.282487,0.331621l0 0.0859806c0,0.0731712 -0.040662,0.22108 0.0245597,0.22108l0.0736935 0c0.027548,0 0.0269678,-0.00971942 0.0491338,-0.0245597 0,-0.273667 0.284735,-0.614122 0.564988,-0.614122 0.0866479,0 0.201845,0.125322 0.319334,0.1351 0.029724,-0.0316389 0.059448,-0.0632778 0.089172,-0.0949166 -0.0873007,-0.0257927 -0.150578,-0.116909 -0.150578,-0.224417 0,-0.254605 0.239533,-0.577261 0.466721,-0.577261l0.0859806 0c0.33442,0 0.51407,0.39912 0.589548,0.663241 0.0327559,0.0122871 0.0655118,0.0245742 0.0982531,0.0368467 -0.00174079,-0.0783066 -0.0368467,-0.161284 -0.0368467,-0.22108 0,-0.1623 0.166275,-0.380755 0.319334,-0.380755 0.273971,0 0.240679,0.380755 0.405314,0.380755 0.00336553,0 0.0224417,-0.00847185 0.0368467,-0.0122871 -0.00771751,-0.0928567 -0.196506,-0.329546 -0.196506,-0.405314l0 -0.122827c0,-0.215278 0.167885,-0.38074 0.38074,-0.38074 0.245988,0 0.593363,0.313313 0.577261,0.540414l-0.014231 0.24551 0.0483505 0.0519916 0.0248353 -0.029753c0.00246612,-0.113108 0.0311457,-0.192444 0.091377,-0.252516 0.062828,-0.0626395 0.15068,-0.125772 0.24271,-0.125772 0.113267,0 0.0982531,0.258391 0.0982531,0.331621l-0.0208605 0.145994c0.119462,-0.024226 0.391649,-0.227681 0.512155,-0.0477412 -0.0687757,0.102721 -1.09915,0.374807 -1.30942,0.446948 -0.446484,0.153204 -0.843297,0.314401 -1.22878,0.527576 -0.562203,0.31092 -1.72306,0.990641 -2.52209,0.990641l-0.15966 0c-0.400338,0 -1.68266,-0.308076 -1.68266,-0.589548 0,-0.141962 0.288101,-0.190907 0.417587,-0.22108 0,-0.0834419 0.0445207,-0.105695 0,-0.122813l-0.15966 0.0122726 -0.062741 0.000174079 -0.0355266 -0.319508 0 -0.122827c0,-0.150636 0.0145066,-0.694416 0.0617836,-0.766006 0.116981,-0.115052 0.530854,-0.16745 0.711998,-0.16745 0.0377171,0 0.0736935,0.0113732 0.0736935,0.0491338 0,0.0122871 0,0.0245742 0,0.0368467 -0.0887223,0.00738385 -0.112339,0.0637565 -0.146981,0.123233 -0.0355557,0.0610437 -0.135506,0.125801 -0.135506,0.146981 0,0.00409086 0,0.00818172 0,0.0122726 0,0.0398061 0.0533697,0.0736935 0.0982531,0.0736935 0.028665,0 0.05733,0 0.0859806,0 0.079177,0 0.721485,-0.0327994 0.608726,-0.184234 -0.0262714,-0.0117794 -0.0837901,-0.0130559 -0.109902,-0.0326253 -0.0783646,-0.0587082 -0.0862562,-0.176168 -0.240896,-0.176168 -0.00298836,-0.133954 -0.111788,-0.196521 -0.24564,-0.196521 -0.219514,0 -0.415266,0.0218759 -0.624871,0.0997908 -0.147866,0.05498 -0.249586,0.0904196 -0.303449,0.249252 -0.0753037,0.222067 -0.029695,0.752703 -0.029695,1.05113l0 0.159674c-0.378143,0.0314648 -0.798356,0.496894 -0.798356,0.872049 0,0.294266 0.204543,0.232163 0.378579,0.346084 0.128877,0.0843558 0.258536,0.249151 0.337829,0.386818 0.170394,0.295847 0.345532,0.661138 0.473307,0.988276 0.109061,0.279223 0.350537,0.73016 0.544868,0.916715 0.0529346,0.0508166 0.15142,0.0974843 0.23579,0.12039 0.0308845,0.00838481 0.0610002,0.0161023 0.0694431,0.0480603 0.108379,0.41042 0.349348,0.473016 0.514897,0.473016 0.28726,0 0.491831,-0.0985433 0.585791,-0.298531 0.0114022,-0.024284 0.0471319,-0.150158 0.0503814,-0.170699 0.0176835,-0.111875 -0.00625234,-0.0838191 0.137595,-0.0834709 0.163576,0.000391678 0.280819,-0.0122871 0.442175,-0.0122871 0.0192648,0.231525 0.240345,0.479008 0.49128,0.479008l0.147387 0c0.231801,0 0.510777,-0.300098 0.516116,-0.532247l0.736674 0.0409521c0.0117358,0.141033 0.216511,0.368467 0.356195,0.368467l0.1351 0c0.148547,0 0.333985,-0.1567 0.389183,-0.261771 0.155685,-0.296399 0.0604635,-0.164679 0.406837,-0.256389 0.35032,-0.0927697 0.50142,-0.356267 0.572212,-0.741998 0.0306234,-0.166898 0.0568803,-0.407476 0.0565032,-0.594451 -0.000435198,-0.219441 0.0294339,-0.423854 0.037311,-0.62593 0.0081527,-0.208938 0.0104157,-0.417253 0.0388777,-0.612091 0.0241535,-0.16539 0.0701249,-0.419255 0.0834854,-0.579756 0.0676732,-0.00562856 0.0904486,-0.0491338 0.15966,-0.0491338 0.0281428,0 0.014289,0.00416339 0.0491338,0.0122871 0.00641191,0.027548 0.0122871,0.0282298 0.0122871,0.0614064l0 0.0491338c-0.0481764,0.00400382 -0.135114,0.0362955 -0.135114,0.0859806l0 0.417587c0,0.161125 0.119752,0.11054 0.245655,0.11054 0.2036,0 0.208793,-0.123857 0.208793,-0.319334l0 -0.184234c0,-0.0808162 -0.0596801,-0.145429 -0.148852,-0.147605l0.0137522 -0.110323 0 -0.0491338c0,-0.0732438 -0.0250529,-0.122813 -0.0982676,-0.122813l-0.110845 -0.00284329 -0.159355 0.0151159 0 -0.0859661c0,-0.225287 0.151478,-0.197464 0.294992,-0.269997 0.180244,-0.0911014 0.233135,-0.244755 0.233135,-0.430106 0,-0.248788 -0.332564,-0.503567 -0.60182,-0.503567l-0.159674 0c-0.0876923,0 -0.127919,0.0350479 -0.208793,0.0368467l0 -0.0859806c0,-0.180128 -0.0376011,-0.257927 -0.208808,-0.257927 -0.122349,0 -0.212173,0.116648 -0.294774,0.171961 0,-0.272883 -0.284097,-0.638682 -0.540414,-0.638682 -0.260002,0 -0.564974,0.184277 -0.564974,0.479008 0,0.028665 0,0.05733 0,0.0859806 -0.0529636,-0.0123451 -0.0672961,-0.0368467 -0.135114,-0.0368467l-0.0368467 0c-0.194722,0 -0.341572,0.249426 -0.38074,0.417587 -0.00818172,0 -0.0163779,0 -0.0245742,0 -0.0426059,-0.182914 -0.320262,-0.503567 -0.564974,-0.503567 -0.316969,0 -0.638682,0.326108 -0.638682,0.614108 0,0.0736935 0,0.147387 0,0.22108 -0.0876778,-0.0204253 -0.111251,-0.0614064 -0.24564,-0.0614064 -0.132097,0 -0.263004,0.0975278 -0.339208,0.201206 -0.063916,0.086967 -0.133925,0.251356 -0.188934,0.314648 0,-0.234601 -0.193387,-0.515854 -0.380755,-0.515854l-0.0368467 0c-0.107291,0 -0.247758,0.16317 -0.294774,0.233368 -0.0760581,-0.0509471 -0.202701,-0.208808 -0.331621,-0.208808 -0.288043,0 -0.577101,0.25153 -0.650954,0.528141z"/>
  <polygon class="fil2" points="4.99965,5.57764 5.01113,5.63165 5.19516,5.64601 5.25986,5.64556 5.24351,5.53132 "/>
  <path class="fil6" d="M1.43733 4.86052m0.323642 -0.0947425c0.0317259,0.0200191 0.0633213,0.0401688 0.0952068,0.0603619 -0.0085734,0.0479878 -0.0276496,0.0790029 -0.0579248,0.093437 -0.0299126,0.0142455 -0.0697042,0.0126933 -0.119708,-0.00163924 -0.0615079,-0.0176255 -0.114312,-0.0508456 -0.158485,-0.103098 -0.0223837,-0.026489 -0.0405024,-0.0557778 -0.0540371,-0.0883306 -0.0137522,-0.033017 -0.0235442,-0.0694721 -0.0287666,-0.109148 -0.00552701,-0.041895 -0.00554152,-0.07806 0.00055125,-0.1079 0.00602024,-0.0295934 0.0177851,-0.0532537 0.0357442,-0.0696461 0.0359473,-0.0328574 0.0879244,-0.0378767 0.154727,-0.0168276 0.0581714,0.0183363 0.10703,0.050686 0.146923,0.0966719 0.0237038,0.0273304 0.0429395,0.0618271 0.0579974,0.10394 -0.0309716,-0.00239359 -0.0616675,-0.0048452 -0.092378,-0.00735484 -0.00828326,-0.0266341 -0.022079,-0.0500042 -0.0416194,-0.0701104 -0.0193953,-0.0199901 -0.0420256,-0.0339309 -0.0672961,-0.0418515 -0.035222,-0.0110395 -0.0624364,-0.00687612 -0.0812224,0.0123161 -0.0188876,0.0193083 -0.0243856,0.0583745 -0.0169582,0.116706 0.00391678,0.0308845 0.00976294,0.0580264 0.0177996,0.0813094 0.00800764,0.023167 0.0181042,0.0426204 0.0303043,0.0585776 0.0240664,0.0315083 0.0530071,0.0517305 0.0866769,0.0616385 0.0251109,0.00741287 0.0456958,0.00584616 0.0618706,-0.00458408 0.0163054,-0.0105028 0.0267356,-0.0318565 0.0305944,-0.0644673zm0.14392 0.219557m0.0460294 0.0157251c-0.00797863,-0.0808597 -0.0162039,-0.161894 -0.0245306,-0.242826 -0.0083558,-0.0809613 -0.016552,-0.161981 -0.0246902,-0.242927 0.0478427,0.0139553 0.095642,0.0276205 0.143253,0.0407055 0.0196274,0.0596946 0.0394144,0.119331 0.0585921,0.178924 0.0192067,0.0596511 0.0383989,0.119259 0.0575912,0.178779 0.00886353,-0.0523108 0.0178866,-0.104694 0.0270113,-0.156903 0.00915366,-0.0522818 0.0181187,-0.10481 0.0270838,-0.157411 0.0475381,0.0108074 0.0951342,0.020962 0.142556,0.0306089 0.00732583,0.0815125 0.0138103,0.162967 0.0198595,0.24416 0.00603474,0.0811934 0.0125047,0.162633 0.0199901,0.24416 -0.0288101,-0.0048452 -0.0574171,-0.0105318 -0.0861982,-0.016523 -0.0059332,-0.0643367 -0.0116343,-0.128731 -0.0167696,-0.192851 -0.00514984,-0.0642062 -0.0104302,-0.128557 -0.0156236,-0.192764 -0.0102997,0.0607971 -0.0206139,0.121696 -0.0305509,0.182711 -0.0098935,0.0607681 -0.0193228,0.12142 -0.0284909,0.182101 -0.0297675,-0.0074854 -0.0598687,-0.0152899 -0.0897523,-0.0238633 -0.0214988,-0.0686597 -0.0431861,-0.137348 -0.0645108,-0.205936 -0.0213972,-0.0687177 -0.0431861,-0.137566 -0.064975,-0.206255 0.00617981,0.0640756 0.0124321,0.128282 0.0186845,0.192357 0.00625234,0.0640756 0.0126643,0.128238 0.0188586,0.192314 -0.0291002,-0.00919718 -0.0582295,-0.0188441 -0.0873877,-0.0285635zm0.492078 0.124829m0.00819622 -0.479327c0.0315083,0.00485971 0.0629586,0.00929872 0.0944234,0.0137232 0.00390227,0.0438389 0.00752892,0.0877214 0.0105608,0.131328 0.00303188,0.0435488 0.00558504,0.0872136 0.00822524,0.130719 0.00250964,0.0414453 0.00574461,0.0686742 0.00886353,0.0812224 0.0050628,0.0202512 0.0156671,0.0370353 0.0313052,0.0502073 0.0158557,0.0133606 0.0366436,0.020991 0.0622043,0.0231525 0.026402,0.00223402 0.0457103,-0.00205994 0.058244,-0.0127078 0.0124176,-0.0105608 0.0194388,-0.0241825 0.0212231,-0.0403428 0.00179882,-0.0163199 0.00159573,-0.0434037 -0.000391678,-0.0814545 -0.00230655,-0.0441291 -0.00410537,-0.0883596 -0.00670205,-0.132576 -0.00261119,-0.0442161 -0.00609277,-0.0888094 -0.00992251,-0.133432 0.0312472,0.00101546 0.0626395,0.00179882 0.0940172,0.00261119 0.00362665,0.0424463 0.00696316,0.0848926 0.00928422,0.127092 0.00233556,0.0421562 0.00397481,0.0842253 0.00581714,0.126265 0.00249513,0.0577798 0.00200191,0.0984127 -0.0015377,0.122218 -0.0035106,0.0236603 -0.010996,0.0434908 -0.0232976,0.0595351 -0.0121565,0.0158557 -0.0287956,0.0283459 -0.0502944,0.0372529 -0.0213537,0.00883451 -0.0500768,0.0122 -0.0861982,0.00921169 -0.0435633,-0.00361214 -0.0773056,-0.0113442 -0.100734,-0.0246177 -0.0235152,-0.0133171 -0.0424608,-0.029724 -0.0570544,-0.048481 -0.0145936,-0.0187425 -0.0248498,-0.0377752 -0.0304348,-0.0572285 -0.00819622,-0.02852 -0.0141584,-0.0700958 -0.0177996,-0.124481 -0.00288681,-0.0430411 -0.00574461,-0.0861401 -0.00896507,-0.129341 -0.00320596,-0.0431426 -0.0068326,-0.0864593 -0.0108364,-0.129878z"/>
  <g id="_312864712">
   <path id="_111027584" class="fil6" d="M2.64726 7.57338c0,0.119433 -0.0396175,0.210505 -0.118853,0.273188 -0.0733308,0.0567643 -0.173267,0.0851392 -0.299808,0.0851392l-0.50026 0 0 -1.10694 0.484303 0c0.0875038,0 0.164389,0.0271854 0.230611,0.0815996 0.0733308,0.0603039 0.109974,0.138364 0.109974,0.234151 0,0.0662371 -0.0200916,0.124786 -0.0603039,0.175631 0.102895,0.0626685 0.154336,0.148431 0.154336,0.257231zm-0.306901 -0.432862c0,-0.0271854 -0.0115327,-0.0511502 -0.0345837,-0.0718366 -0.02308,-0.0207009 -0.0541096,-0.0310441 -0.0931323,-0.0310441l-0.271433 0 0 0.221748 0.271433 0c0.031929,0 0.0611888,-0.0118229 0.0878084,-0.0354831 0.0266051,-0.0236603 0.0399076,-0.0514404 0.0399076,-0.0833839zm0.0940172 0.432862c0,-0.0224707 -0.0118229,-0.0443612 -0.0354686,-0.0656423 -0.0402123,-0.0331185 -0.1023,-0.0496706 -0.186265,-0.0496706l-0.271433 0 0 0.26077 0.28562 0c0.0674121,0 0.116488,-0.00828326 0.147242,-0.0248353 0.0402123,-0.0236603 0.0603039,-0.0638725 0.0603039,-0.120622zm1.27156 0.361867l-0.477194 0c-0.0981661,0 -0.178271,-0.0301447 -0.240374,-0.0904631 -0.0620882,-0.0603039 -0.0931178,-0.140148 -0.0931178,-0.239489l0 -0.454129c0,-0.0342936 0.0106333,-0.060594 0.0319145,-0.0789304 0.0212957,-0.0183363 0.046131,-0.0275045 0.0745204,-0.0275045 0.0283749,0 0.0532102,0.00916817 0.0745059,0.0275045 0.0212812,0.0183363 0.0319145,0.0446368 0.0319145,0.0789304l0 0.454129c0,0.0780745 0.0402123,0.117083 0.120637,0.117083 0.015377,0 0.0502653,0 0.104665,0 0.0544142,0 0.107624,0 0.15966,0l0 -0.571502c0,-0.0342936 0.0106478,-0.0603039 0.031929,-0.0786402 0.0212812,-0.0183363 0.0461165,-0.0275045 0.0745059,-0.0275045 0.0295644,0 0.0547044,0.00916817 0.0753908,0.0275045 0.0207009,0.0183363 0.0310441,0.0446368 0.0310441,0.0789304l0 0.784081zm1.01403 -0.296239c0,0.108799 -0.0443466,0.189224 -0.13304,0.241259 -0.0709662,0.0414018 -0.164389,0.0620882 -0.280282,0.0620882 -0.0686017,0 -0.150796,-0.0177271 -0.246583,-0.0532247 -0.047306,-0.0165375 -0.0709517,-0.048481 -0.0709517,-0.095787 0,-0.0283749 0.00974843,-0.0540951 0.0292598,-0.0771751 0.0195114,-0.023051 0.0440565,-0.0345837 0.073621,-0.0345837 0.0130124,0 0.0260248,0.00295934 0.0390227,0.00886353 0.0733308,0.0260103 0.131879,0.0390372 0.175631,0.0390372 0.0437664,0 0.0833694,-0.00532392 0.118853,-0.0159718 0.0520351,-0.0153625 0.07806,-0.0390227 0.07806,-0.0709517 0,-0.0224852 -0.047306,-0.0419966 -0.141918,-0.0585486 -0.125366,-0.0212812 -0.20875,-0.0413873 -0.250137,-0.0603184 -0.0934224,-0.0425623 -0.140148,-0.109974 -0.140148,-0.202222 0,-0.0993411 0.0443612,-0.176226 0.133054,-0.230611 0.0745059,-0.046131 0.164403,-0.0691964 0.269649,-0.0691964 0.0886933,0 0.167334,0.015377 0.235935,0.046131 0.0425768,0.0189311 0.063858,0.0502653 0.063858,0.0940172 0,0.0283894 -0.0100531,0.0541096 -0.0301447,0.0771751 -0.0201206,0.023051 -0.0443612,0.0345837 -0.072736,0.0345837 -0.016552,0 -0.0325383,-0.00355411 -0.0479008,-0.0106478 -0.0413873,-0.0189166 -0.0910579,-0.0283749 -0.149012,-0.0283749 -0.0555893,0 -0.0916672,0.00117503 -0.108205,0.00353961 -0.0508601,0.0094728 -0.0762902,0.031929 -0.0762902,0.0674266 0,0.0200916 0.0502653,0.0407925 0.150796,0.0620737 0.131256,0.0272144 0.21345,0.0479008 0.246569,0.0620882 0.0886933,0.0378477 0.13304,0.107624 0.13304,0.20933z"/>
   <path id="_170746520" class="fil7" d="M5.78043 7.03764l-0.246569 0 0 0.787635c0,0.0342936 -0.0106478,0.0606085 -0.0319435,0.0789449 -0.0212812,0.0183218 -0.0461165,0.02749 -0.0745059,0.02749 -0.0295644,0 -0.0547044,-0.00916817 -0.0753908,-0.02749 -0.0207009,-0.0183363 -0.0310441,-0.0446513 -0.0310441,-0.0789449l0 -0.787635 -0.280282 0c-0.0331185,0 -0.0591289,-0.0103432 -0.07806,-0.0310441 -0.0189166,-0.0207009 -0.0283749,-0.0458263 -0.0283749,-0.0753908 0,-0.0283894 0.0094583,-0.0532247 0.0283749,-0.0745059 0.0189311,-0.0212957 0.0449414,-0.031929 0.07806,-0.031929l0.739735 0c0.0343081,0 0.060623,0.0106333 0.0789449,0.031929 0.0183363,0.0212812 0.02749,0.0461165 0.02749,0.0745059 0,0.0295644 -0.00915366,0.0546898 -0.02749,0.0753908 -0.0183218,0.0207009 -0.0446368,0.0310441 -0.0789449,0.0310441zm1.11398 0.89761l-0.477209 0c-0.0981516,0 -0.178271,-0.0301447 -0.24036,-0.0904631 -0.0620882,-0.0603039 -0.0931323,-0.140148 -0.0931323,-0.239489l0 -0.454129c0,-0.0342936 0.0106333,-0.060594 0.031929,-0.0789304 0.0212957,-0.0183363 0.0461165,-0.0275045 0.0745059,-0.0275045 0.0283894,0 0.0532102,0.00916817 0.0745059,0.0275045 0.0212957,0.0183363 0.031929,0.0446368 0.031929,0.0789304l0 0.454129c0,0.0780745 0.0402123,0.117083 0.120622,0.117083 0.0153915,0 0.0502798,0 0.10468,0 0.0543997,0 0.107624,0 0.15966,0l0 -0.571502c0,-0.0342936 0.0106333,-0.0603039 0.0319145,-0.0786402 0.0212957,-0.0183363 0.046131,-0.0275045 0.0745059,-0.0275045 0.0295644,0 0.0547044,0.00916817 0.0754053,0.0275045 0.0206864,0.0183363 0.0310441,0.0446368 0.0310441,0.0789304l0 0.784081zm0.879491 -0.76457c0.0804245,0.0946265 0.120637,0.20756 0.120637,0.338845 0,0.117068 -0.0336988,0.21464 -0.101111,0.292699 -0.0745059,0.0875038 -0.176806,0.13127 -0.306901,0.13127 -0.0567498,0 -0.110569,-0.014202 -0.161429,-0.0425768 -0.0201061,0.0283749 -0.0484955,0.0425768 -0.0851537,0.0425768 -0.0283749,0 -0.0532102,-0.0094728 -0.0745059,-0.0283894 -0.0212812,-0.0192212 -0.0319145,-0.0452316 -0.0319145,-0.0783501l0 -0.865101c0,-0.0331185 0.0106333,-0.0591289 0.0319145,-0.0783501 0.0212957,-0.0189166 0.046131,-0.0283894 0.0745059,-0.0283894 0.0295644,0 0.0547044,0.0094728 0.0754053,0.0283894 0.0206864,0.0189311 0.0310441,0.0449414 0.0310441,0.07806l0 0.136594c0.0354831,-0.0378622 0.0851392,-0.0567788 0.148997,-0.0567788 0.113543,0 0.206385,0.0431716 0.278512,0.1295zm-0.163199 0.136594c-0.0271999,-0.0319145 -0.0709517,-0.0478863 -0.13127,-0.0478863 -0.0886933,0 -0.13304,0.0366582 -0.13304,0.109989l0 0.219963c0,0.0402123 0.0207009,0.0733308 0.0620882,0.0993411 0.0307395,0.0212957 0.0567643,0.0319435 0.0780455,0.0319435 0.0662371,0 0.116488,-0.0212957 0.150796,-0.0638725 0.0295644,-0.0354831 0.0443466,-0.0827891 0.0443466,-0.141918 0,-0.0827746 -0.0236603,-0.151971 -0.0709662,-0.20756z"/>
  </g>
 </g>
</svg>
