<?xml version="1.0" encoding="UTF-8" standalone="no"?>
<svg
   xmlns:dc="http://purl.org/dc/elements/1.1/"
   xmlns:cc="http://creativecommons.org/ns#"
   xmlns:rdf="http://www.w3.org/1999/02/22-rdf-syntax-ns#"
   xmlns:svg="http://www.w3.org/2000/svg"
   xmlns="http://www.w3.org/2000/svg"
   viewBox="0 0 224.01874 212.44177"
   height="212.44177"
   width="224.01874"
   xml:space="preserve"
   id="svg2"
   version="1.1"><metadata
     id="metadata8"><rdf:RDF><cc:Work
         rdf:about=""><dc:format>image/svg+xml</dc:format><dc:type
           rdf:resource="http://purl.org/dc/dcmitype/StillImage" /></cc:Work></rdf:RDF></metadata><defs
     id="defs6" /><g
     transform="matrix(1.3333333,0,0,-1.3333333,-0.44479199,213.24229)"
     id="g10"><g
       transform="scale(0.1)"
       id="g12"><path
         id="path14"
         style="fill:#ffffff;fill-opacity:1;fill-rule:nonzero;stroke:none"
         d="m 325.617,1195.61 c -3.679,-2.48 -6.976,-5.48 -9.75,-8.92 -2.867,-3.56 -5.285,-7.6 -7.113,-12.02 l -6.34,-15.37 -16.359,-2.01 c -11.367,-1.4 -24.969,-2.9 -35.414,-3.68 -14.868,-1.13 -27.758,0.8 -35.211,7.91 l -0.891,-10.66 -21.242,-4.03 c -34.543,-6.55 -68.34,-27.74 -93.5079,-55.82 -24.086,-26.88 -39.7578,-59.57 -39.7578,-90.9 0,-2.985 2.5117,-9.477 6.0546,-15.508 0.2071,-0.36 -0.414,-0.594 -1.3007,-0.762 l -1.7188,-1.008 C 163.938,970.336 220.461,840.25 274.953,714.789 c 28,-64.469 55.422,-127.605 86.293,-168.043 l 1.121,-1.469 1.094,-1.961 c 22.707,-40.851 49.41,-47.554 62.519,-50.839 14.833,-3.723 24.368,-6.118 30.184,-22.473 11.539,-32.512 21.352,-55.309 35.734,-66.57 13.379,-10.469 34.645,-13.481 71.086,-8.746 54.262,13.109 59.754,41.289 66.528,76.144 0,5.063 3.945,20.332 5.078,26.141 l 21.941,1.328 c 17.996,1.09 33.688,1.418 48.75,1.734 18.746,0.395 36.438,0.77 60.653,3.063 l 21.195,2.007 7.812,-19.726 c 12.11,-30.578 31.289,-51.281 52.653,-62.445 14.648,-7.657 30.476,-10.868 45.722,-9.711 14.75,1.121 28.934,6.457 40.844,15.922 15.563,12.375 27.567,32.003 32.574,58.847 l 4.329,23.254 h 11.988 l -2.602,25.391 c 3.231,0.359 6.489,0.652 9.727,0.988 l 2.699,-26.379 h 1.652 c 23.803,0 46.963,-2.219 69.373,-4.359 25.17,-2.41 49.33,-4.719 73.23,-2.989 l 27.89,2.024 2.33,-27.934 c 0.92,-10.968 10.51,-21.246 18.91,-30.25 l 0.76,-0.808 c 2.4,-2.586 4.7,-4.692 6.88,-6.344 11.02,-8.356 24.34,-10.734 37.58,-8.699 14.65,2.25 29.15,9.777 40.9,20.726 3.71,3.461 6.99,7.043 9.73,10.668 4.86,6.403 7.01,11.879 9.31,17.735 2.32,5.902 4.74,12.062 9.79,21.004 10.65,18.855 35.75,22.335 56.11,25.16 4.77,0.66 9.09,1.261 11.39,1.832 l 0.33,0.113 c 29.7,7.078 51.39,19.531 67.39,37.418 l -99.64,-23.457 106.14,77.879 9.49,46.383 19.74,-19.743 c 8.8,43.145 11.31,97.5 14.35,163.219 1.54,33.645 3.22,70.02 5.88,109.168 l -0.09,43.613 3.03,0.012 0.02,-4.226 c 4.28,51.869 10.56,108.219 20.57,169.139 l 5.63,34.24 0.94,-0.36 0.25,6.27 c 1.2,30.48 3.21,81.52 51.1,84.33 31.14,9.12 47.48,26.4 51.8,45.37 2.12,9.26 1.63,19.16 -1.17,28.85 -2.99,10.38 -8.61,20.58 -16.54,29.73 -22.41,25.87 -62.87,42.53 -115.45,32.29 -2.71,-0.7 -5.52,-1.51 -7.87,-2.18 -14.8,-4.23 -22.31,-6.38 -34.98,2.83 -13.34,9.71 -13.29,17.8 -13.11,34.19 0.02,2.32 0.05,5.09 0.01,8.3 l -0.12,0.33 c 0.02,3.37 -0.21,5.96 -0.51,9.33 l 0.41,3.38 -0.77,0.97 -1.81,5.35 h -2.52 c -13.52,0 -22.84,-8.39 -31.6,-16.28 -5.41,-4.87 -10.71,-9.63 -17.79,-14.38 l -49.99,-33.47 6.14,59.83 c 0.87,8.49 -1.01,17.8 -5.2,27.66 -5.23,12.3 -13.82,25.14 -25.12,38.22 -13.13,15.2 -27.29,23.97 -41.16,27.55 -13.63,3.5 -27.43,2.12 -39.9,-3 -12.99,-5.33 -24.62,-14.7 -33.31,-26.86 -9.87,-13.82 -15.9,-31.28 -15.9,-50.66 v -47.02 l -41.53,21.99 c -3.14,1.66 -6.18,2.81 -9.11,3.49 -8.49,1.97 -16.74,-0.43 -24.1,-5.42 -9.53,-6.47 -17.88,-17.01 -24.22,-28.98 -4.33,-8.17 -7.59,-16.89 -9.57,-25.39 l -6.63,-28.48 -28.25,7.55 c -12.89,3.45 -18.01,12.49 -25.77,26.18 -12.45,21.92 -39.747,70.01 -79.348,71.42 -0.797,0.02 -0.149,-0.04 -2.836,-0.04 -25.61,0 -48.797,-12.72 -65.969,-31.62 -17.879,-19.69 -29.109,-45.59 -30.016,-70.93 -0.027,-0.63 0.032,-0.47 0.032,-3.28 v -7.89 c 0,-6.77 0.101,-9.31 0.179,-11.24 0.543,-12.99 0.805,-19.56 -8.683,-29.08 v -0.12 c -15.332,-15.32 -23.118,-11.33 -38.883,-3.32 -1.848,0.93 -4.254,2.16 -6.821,3.27 -11.269,4.92 -23.207,4.65 -34.101,0.67 -12.844,-4.7 -24.328,-14.33 -32.16,-26.83 -20.395,-32.54 -29.207,-50.4 -32.656,-57.4 -4.524,-9.18 -6.461,-13.5 -17.258,-17.61 l -0.024,0.06 c -44.859,-17.27 -42.035,-0.15 -38.078,32.19 0.539,4.35 2.09,16.83 -3.644,30.96 -4.336,10.69 -14.321,23.73 -26.457,32.71 -7.461,5.51 -14.997,9.05 -20.622,8.04 -10.878,-1.96 -22.558,-16.64 -29.531,-25.41 -8.019,-10.08 -13.738,-17.26 -26.289,-19.26 l -15.082,-2.41 -10.281,11.38 c -9.195,10.17 -17.938,17.71 -26.231,23 -13.476,8.59 -25.558,10.87 -36.269,8.93 -11.656,-2.11 -22.984,-9.12 -33.453,-18.58 -12.156,-10.99 -22.992,-25.14 -32.082,-39.4 l -1.305,-2.04 -0.687,-0.84 c -4.512,-5.46 -8.918,-11.14 -13.165,-16.99 -4.542,-6.25 -8.855,-12.54 -12.894,-18.82 l -3.199,-4.97 z m -53.816,26.52 c 5.156,6.39 10.933,12.03 17.168,16.83 3.879,5.88 7.781,11.52 11.672,16.88 4.832,6.64 9.754,13.03 14.734,19.09 11.207,17.28 24.762,34.61 40.477,48.81 4.308,3.9 8.781,7.56 13.421,10.94 -9.035,-0.05 -17.277,0.66 -24.472,2.45 -27.028,6.71 -40.918,22.33 -34.762,52.21 0.852,14.35 7.508,17.77 17.484,23.23 l 6.989,3.81 1.519,2.41 c -26.203,-5.13 -52.73,-13.38 -59.07,-15.96 -5.926,-2.42 -10.418,-4.02 -14.375,-5.44 -6.027,-2.14 -8.313,-2.96 -9.43,-11.27 -3.761,-27.9 -4.246,-72.17 -2.316,-112.48 1.191,-24.91 3.105,-47.57 5.492,-62.68 l 8.164,0.86 c 2.254,3.63 4.699,7.07 7.305,10.31 z m 143.512,192.66 -1.215,-3.71 -15.504,-3.62 c -4.692,-1.09 -6.758,-4.84 -9.414,-9.65 -0.973,-1.78 -1.985,-3.61 -3.11,-5.55 11.543,1.21 25.141,3.24 39.2,5.35 4.668,0.7 9.382,1.41 15.238,2.23 l -0.5,0.62 c -4.985,6.29 -10.434,13.15 -19.5,13.9 z m 102.636,-46.12 c -7.148,-7.67 -20.597,-15.67 -41.105,-20.33 5.597,-2.51 11.246,-5.56 16.941,-9.19 4.996,-3.19 10.024,-6.83 15.074,-10.97 12.047,13.23 28.879,27.48 52.032,31.64 22.863,4.12 45.328,-4.23 64.246,-18.22 14.047,-10.39 26.527,-24.37 35.468,-38.26 l 1.149,1.84 c 14.496,23.13 36.18,41.11 60.73,50.09 16.274,5.95 33.782,8.04 51.364,5.24 2.675,36.93 19.027,73.74 44.347,101.62 27.27,30.02 65.047,50.22 107.821,50.22 l 4.836,-0.18 c 50.714,-1.81 84.578,-36.3 106.128,-67.02 9.27,13.76 20.76,25.99 33.99,34.98 16.05,10.89 34.32,17.07 54.14,15.93 4.46,17.6 12.1,33.72 22.11,47.73 14.89,20.84 35.08,37 57.89,46.36 23.33,9.58 49.36,12.1 75.33,5.42 24.65,-6.34 48.83,-20.82 69.95,-45.26 15.11,-17.5 26.88,-35.29 34.42,-53.05 l 0.46,-1.1 c 11.69,7.16 26.01,12.28 45.94,12.28 h 7.9 c 12.87,0 23.41,-4.71 31.95,-12.57 6.6,-6.07 11.46,-13.87 14.89,-22.47 3.33,-5.4 5.32,-11.19 6.32,-17.24 0.53,-3.18 0.76,-6.3 0.76,-9.38 69.7,10.05 125.08,-15.24 157.64,-52.84 13.28,-15.33 22.81,-32.83 28.06,-50.98 5.44,-18.84 6.31,-38.35 2.06,-56.99 -8.56,-37.49 -36.74,-70.64 -88.6,-86.56 7.01,0.22 13.82,-0.18 20.46,-1.67 26.92,-6.05 43.01,-22.28 39.49,-61.61 18.01,-10.09 25.48,-32.25 27.1,-58.91 1.55,-25.41 -3.24,-55.72 -7.08,-77.11 -7.55,-42.161 -50.83,-41.661 -82.2,-41.305 -4.47,0.05 -8.49,0.097 -11.4,-0.114 -10.81,-2.55 -19.46,-1.277 -26.28,3.055 -4.82,-56.316 -7.18,-107.426 -9.3,-153.363 -8.8,-190.598 -13.82,-299.363 -160.87,-334.403 -4.71,-1.121 -10.59,-1.941 -17.04,-2.832 -8.01,-1.109 -11.5,8.856 -14.69,3.188 -2.56,-4.527 -4.45,-9.328 -6.25,-13.914 -3.68,-9.387 -7.14,-18.164 -17.06,-31.246 -5.04,-6.645 -10.47,-12.668 -16.16,-17.981 -19.86,-18.519 -45.03,-31.343 -71.02,-35.336 -27.39,-4.214 -55.67,1.243 -80.09,19.77 -5.13,3.891 -9.89,8.148 -14.2,12.766 l -0.76,0.808 c -9.79,10.496 -20.5,21.981 -27.3,37.508 -19.63,0.164 -39,2.016 -58.96,3.926 -13.63,1.301 -27.57,2.636 -42.33,3.363 -9.79,-29.742 -26.387,-52.859 -46.879,-69.152 -21.031,-16.719 -45.976,-26.129 -71.848,-28.098 -25.378,-1.93 -51.71,3.406 -76.058,16.133 -27.793,14.527 -52.801,38.613 -70.402,72.344 -16.379,-1.067 -30.239,-1.36 -44.672,-1.664 -7.762,-0.161 -15.719,-0.329 -24.758,-0.665 -10.008,-46.91 -25.547,-84.347 -106.238,-103.515 l -0.649,-0.156 -2.121,-0.289 c -54.422,-7.391 -89.078,-0.692 -115.496,19.98 -23.059,18.051 -36.547,44.344 -49.844,79.898 -21.93,5.766 -60.183,18.954 -92.086,75.043 -34.258,45.473 -62.863,111.329 -92.07,178.567 C 174.766,803.777 124.594,919.277 55.2109,926.82 h -0.332 C 39.1992,928.672 26.2188,940.945 17.3594,956.031 9.16016,970.008 3.33594,988.5 3.33594,1000.11 c 0,45.71 21.43356,91.79 54.37496,128.55 27.8282,31.05 64.2661,55.79 103.1021,68.14 0.406,20.35 -0.504,43.91 -1.454,68.13 -3.062,78.59 -6.371,163.4 33.118,195.77 l 0.054,-0.07 c 17.071,14.32 65.637,33.52 113.465,42.6 25.602,4.86 51.801,7.17 74.047,4.83 28.152,-2.97 51.191,-13.43 63.293,-34.85 1.242,-2.21 2.348,-4.48 3.305,-6.82 18.554,-6.64 28.422,-19.07 37.66,-30.71 3.375,-4.25 6.476,-8.16 7.597,-8.16 12.758,0 23.024,-5.15 29.555,-13.45 v -0.11 c 6.055,-7.74 8.305,-16.95 6.242,-26.89 -1.328,-6.48 -4.531,-12.81 -9.746,-18.4 z M 64.7852,983.84 c -2.2539,-0.426 -6.2696,-0.414 -3.2618,-0.766 l -0.0078,-0.043 1.5508,-0.199 z M 1456.09,596.672 l 2.08,4.566 -9.07,-6.652 c -0.12,-1.766 -0.51,-2.731 -1.25,-2.32 l 1.69,-2.145 z m 2.08,4.566 0.16,0.36 -9.2,-6.547 -0.03,-0.465 z m 0.16,0.36 1.56,3.722 -12.29,3.668 c 0.99,-4.855 1.66,-10.574 1.53,-13.937 z m 152.9,482.482 -13.49,-65.66 -9.47,20.04 c -0.34,-8.15 -0.5,-16.38 -0.14,-23.16 l 2.26,-0.02 c 11.38,-0.13 25.31,-10.09 26.18,-5.2 3.29,18.31 7.41,44.05 6.2,63.82 -0.38,6.26 4.86,11.69 2.46,11.47 l -14,-1.29" /><path
         id="path16"
         style="fill:#ffffff;fill-opacity:1;fill-rule:evenodd;stroke:none"
         d="m 309.781,1219.08 c -11.66,-7.87 -21.258,-19.36 -27.16,-33.67 -19.969,-2.46 -46.023,-5.12 -47.523,-3.6 -12.211,24.86 -17.879,149.28 -9.957,208.08 4.175,30.99 13.242,27.8 41.191,39.18 15.406,6.28 137.906,42.78 125.84,5.97 -22.109,-5.16 -23.445,-18.19 -34.078,-34.28 -5.239,-7.93 -19.805,-13.98 -19.805,-14.69 -9.242,-37.16 58.121,-20.35 120.883,-12.21 43.891,5.69 48.398,25.31 32.726,25.31 -31.031,0 -28.543,40.05 -69.066,43.42 0,73.7 -182.691,22.45 -212.418,-3.82 -42.101,-34.5 -15.789,-185.77 -22.324,-264.15 -80.645,-15.29 -156.4103,-96.67 -156.4103,-174.51 0,-13.262 13.7539,-43.653 26.5195,-45.165 C 191.699,940.43 247.102,649.668 338.766,529.582 c 38.586,-69.418 87.937,-61.187 90.711,-68.992 26.421,-74.399 47.222,-106.156 139.386,-93.637 75.075,17.84 80.098,56.035 89.332,103.11 43.852,2.66 66.809,0.777 110.395,4.91 49.336,-124.567 200.785,-118.668 224.379,7.925 52.721,0 98.711,-9.062 145.371,-5.679 1.76,-21.168 16.25,-36.996 27.97,-49.559 40.82,-43.765 105.54,-24.594 138.28,18.567 12.48,16.449 11.87,25.429 21.21,41.953 5.22,9.242 37.48,10.293 49.77,13.371 188.07,44.812 106.52,246.679 168.26,622.439 11.23,-4.28 51.6,23.56 43.28,-16.92 -0.87,1.85 -29.76,1.12 -25.41,-29.57 1.1,-14.86 -10.47,-97.277 11.98,-90.82 17.14,2.14 66.32,-5.985 70.69,18.41 7.11,39.72 17.81,112.07 -21.68,108.41 -0.64,1.82 -1.28,3.64 -1.92,5.46 15.3,68.09 -26.08,51.54 -69.83,47.62 0.83,21.09 1.9,58.21 27.1,58.21 144.26,38.56 70.56,224.3 -91.57,192.14 -25.24,-6.39 -21.37,-9.91 -21.71,15.79 0,2.87 -0.12,5.86 -0.38,8.87 0.85,6.99 0.35,13.54 -3.67,18.61 -3.8,11.25 -10.57,19.89 -21.6,19.89 -2.63,0 -5.27,0 -7.9,0 -33.53,0 -46.48,-23.04 -65.11,-35.52 2.84,27.68 -11.39,57.5 -37.08,87.25 -72,83.29 -180,21.93 -180,-71.46 -52.17,27.62 -96.45,-26.43 -107.74,-74.91 -6.65,1.78 -40.26,95.94 -111.432,98.48 -71.739,2.58 -128.133,-67.52 -128.133,-134.1 0,-2.63 0,-5.26 0,-7.89 0,-26.62 4.379,-22.84 -14.567,-14.57 -38.21,16.68 -79.925,-2.75 -101.476,-37.13 -61.274,-97.78 -21.356,-65.77 -41.492,-16.12 -10.907,26.89 -46.465,63.64 -78.313,57.91 -30.637,-5.51 -49.75,-43.68 -55.262,-44.56 -75.05,83.03 -136.917,26.41 -172.777,-29.81 -9.785,-11.84 -19.199,-24.84 -28.047,-38.58 z M 993.055,509.5 c -13.684,-1.445 -11.617,-1.176 0,0 z m 472.485,92.977 c 4.34,3.183 5.84,5.804 4.01,7.656 -0.5,-2.438 -1.13,-4.805 -1.83,-7.145 z m 26.88,332.89 c 3.91,0.047 2.6,-0.008 0,0" /><path
         id="path18"
         style="fill:#c4122e;fill-opacity:1;fill-rule:nonzero;stroke:none"
         d="M 441.742,78.1016 C 441.742,54.7656 434,36.9688 418.516,24.7227 404.188,13.6289 384.656,8.08594 359.93,8.08594 H 262.184 V 224.387 h 94.632 c 17.098,0 32.122,-5.313 45.063,-15.946 14.328,-11.785 21.488,-27.039 21.488,-45.753 0,-12.946 -3.929,-24.383 -11.785,-34.321 20.106,-12.246 30.16,-29.0037 30.16,-50.2654 z m -59.969,84.5864 c 0,5.312 -2.257,9.992 -6.757,14.035 -4.512,4.047 -10.578,6.066 -18.2,6.066 h -53.043 v -43.328 h 53.043 c 6.239,0 11.954,2.309 17.161,6.934 5.195,4.621 7.796,10.05 7.796,16.293 z m 18.368,-84.5864 c 0,4.3945 -2.309,8.6718 -6.93,12.8281 -7.856,6.4726 -19.988,9.7073 -36.395,9.7073 H 303.773 V 49.6797 h 55.813 c 13.172,0 22.762,1.6211 28.773,4.8555 7.856,4.6211 11.782,12.4804 11.782,23.5664 z M 648.609,7.39453 h -93.242 c -19.187,0 -34.836,5.89067 -46.972,17.67577 -12.129,11.7852 -18.196,27.3867 -18.196,46.7969 v 88.7378 c 0,6.704 2.074,11.84 6.239,15.426 4.156,3.582 9.011,5.371 14.558,5.371 5.547,0 10.402,-1.789 14.559,-5.371 4.156,-3.586 6.238,-8.722 6.238,-15.426 V 71.8672 c 0,-15.2578 7.855,-22.8789 23.574,-22.8789 3,0 9.821,0 20.449,0 10.633,0 21.028,0 31.2,0 V 160.664 c 0,6.699 2.082,11.781 6.234,15.367 4.164,3.582 9.016,5.371 14.563,5.371 5.777,0 10.687,-1.789 14.73,-5.371 4.051,-3.586 6.066,-8.722 6.066,-15.426 z M 846.754,65.2813 c 0,-21.2618 -8.664,-36.9766 -25.996,-47.1446 -13.867,-8.0898 -32.121,-12.13279 -54.766,-12.13279 -13.406,0 -29.469,3.46484 -48.183,10.40239 -9.246,3.2304 -13.864,9.4726 -13.864,18.7148 0,5.5469 1.907,10.5703 5.711,15.082 3.817,4.5039 8.617,6.7578 14.391,6.7578 2.539,0 5.086,-0.5781 7.625,-1.7343 14.328,-5.0821 25.769,-7.625 34.32,-7.625 8.547,0 16.289,1.039 23.223,3.1211 10.168,3 15.254,7.625 15.254,13.8632 0,4.3946 -9.242,8.2071 -27.731,11.4414 -24.496,4.1563 -40.793,8.086 -48.879,11.7852 -18.254,8.3164 -27.386,21.4885 -27.386,39.5155 0,19.41 8.668,34.434 26.004,45.063 14.554,9.011 32.121,13.519 52.687,13.519 17.328,0 32.695,-3.004 46.102,-9.012 8.32,-3.699 12.476,-9.824 12.476,-18.375 0,-5.546 -1.961,-10.57 -5.887,-15.078 -3.933,-4.504 -8.671,-6.757 -14.214,-6.757 -3.235,0 -6.356,0.695 -9.36,2.082 -8.086,3.695 -17.793,5.543 -29.117,5.543 -10.863,0 -17.914,-0.231 -21.148,-0.692 -9.934,-1.851 -14.907,-6.238 -14.907,-13.176 0,-3.925 9.825,-7.972 29.469,-12.129 25.649,-5.316 41.711,-9.359 48.18,-12.132 17.332,-7.3949 25.996,-21.0317 25.996,-40.9027" /><path
         id="path20"
         style="fill:#231f20;fill-opacity:1;fill-rule:nonzero;stroke:none"
         d="m 1053.98,182.789 h -48.19 V 28.8828 c 0,-6.6992 -2.08,-11.8437 -6.239,-15.4258 -4.16,-3.582 -9.008,-5.37106 -14.559,-5.37106 -5.777,0 -10.691,1.78906 -14.734,5.37106 -4.043,3.5821 -6.063,8.7266 -6.063,15.4258 V 182.789 H 909.43 c -6.477,0 -11.559,2.024 -15.254,6.066 -3.699,4.047 -5.547,8.958 -5.547,14.735 0,5.547 1.848,10.398 5.547,14.558 3.695,4.161 8.777,6.239 15.254,6.239 h 144.55 c 6.7,0 11.84,-2.078 15.42,-6.239 3.58,-4.16 5.37,-9.011 5.37,-14.558 0,-5.777 -1.79,-10.688 -5.37,-14.735 -3.58,-4.042 -8.72,-6.066 -15.42,-6.066 z M 1271.65,7.39453 h -93.25 c -19.18,0 -34.84,5.89067 -46.97,17.67577 -12.13,11.7852 -18.2,27.3867 -18.2,46.7969 v 88.7378 c 0,6.704 2.08,11.84 6.24,15.426 4.16,3.582 9.01,5.371 14.56,5.371 5.55,0 10.4,-1.789 14.56,-5.371 4.16,-3.586 6.24,-8.722 6.24,-15.426 V 71.8672 c 0,-15.2578 7.86,-22.8789 23.57,-22.8789 3.01,0 9.83,0 20.46,0 10.63,0 21.03,0 31.19,0 V 160.664 c 0,6.699 2.08,11.781 6.24,15.367 4.16,3.582 9.01,5.371 14.56,5.371 5.78,0 10.69,-1.789 14.73,-5.371 4.05,-3.586 6.07,-8.722 6.07,-15.426 z M 1443.51,156.793 c 15.71,-18.488 23.57,-40.559 23.57,-66.211 0,-22.875 -6.59,-41.9414 -19.76,-57.1953 -14.55,-17.0976 -34.55,-25.64842 -59.97,-25.64842 -11.09,0 -21.6,2.77342 -31.55,8.31642 -3.92,-5.543 -9.47,-8.31642 -16.64,-8.31642 -5.53,0 -10.39,1.84766 -14.55,5.54692 -4.16,3.7539 -6.23,8.8359 -6.23,15.3086 V 197.637 c 0,6.472 2.07,11.554 6.23,15.312 4.16,3.696 9.02,5.547 14.55,5.547 5.79,0 10.7,-1.851 14.74,-5.547 4.05,-3.699 6.06,-8.785 6.06,-15.254 v -26.691 c 6.94,7.398 16.65,11.094 29.12,11.094 22.19,0 40.33,-8.434 54.43,-25.305 z m -31.89,-26.691 c -5.32,6.238 -13.87,9.359 -25.65,9.359 -17.34,0 -26.01,-7.164 -26.01,-21.492 V 74.9844 c 0,-7.8555 4.06,-14.3281 12.14,-19.4102 6.01,-4.1601 11.1,-6.2422 15.25,-6.2422 12.94,0 22.76,4.1602 29.47,12.4805 5.77,6.9336 8.66,16.1797 8.66,27.7305 0,16.176 -4.62,29.695 -13.86,40.559" /><path
         id="path22"
         style="fill:#b2b1b1;fill-opacity:1;fill-rule:evenodd;stroke:none"
         d="M 162.984,1086.59 C 103.633,1098.98 -4.1875,978.57 71.1133,980.945 c 96.6997,13.578 185.3947,6.684 251.8947,-11.441 80,-21.805 135.258,-57.195 231.515,-57.195 96.059,0 171.54,17.793 233.235,52.906 11.672,6.644 36.726,16.922 49.234,21.812 18.555,7.246 31.449,14.443 48.731,22.313 32.527,14.83 78.886,31.34 110.683,48 l -17.613,50.36 c 0,15.75 9.469,24.67 11.84,33.55 -12.594,-1.05 -24.797,-2.1 -36.731,-3.16 -65.797,-34.4 -128.117,-63.94 -148.761,-63.94 -9.325,-17.62 -108.692,-44.39 -134.825,-56.61 -134.984,-63.102 -262.546,-11.58 -391.336,27.73 -73.75,7.1 -107.058,22.86 -115.996,41.32 z M 536.762,454.422 h 1.972 c 7.766,0 17.672,7.23 20.43,13.117 6.953,14.809 24.797,50.039 -10.562,50.039 h -3.95 c -44.027,0 -38.562,-63.156 -7.89,-63.156 z m 335.468,82.891 -3.945,-9.864 h -5.922 c -21.621,0 -31.664,-51.39 -7.668,-64.906 29.621,-17.5 57.004,18.602 57.004,45.113 10.035,25.399 -22.344,31.989 -39.469,29.657 z m 205.55,129.277 c 32.42,-25.977 46,-11.512 67.06,-9.762 -34.8,30.258 -72.67,58.918 -68.47,109.461 -39.67,-36.223 -20.69,-85.289 1.41,-99.699 z m 131.64,132.355 c 0.87,-3.707 10.44,-16.898 14.06,-16.898 21.92,0 101.19,33.82 117.72,45.535 l 4.64,25.516 c -41.58,-22 -95.39,-32.438 -136.42,-54.153 z m 245.45,-28.742 c -12.85,48.117 -57.49,38.235 -51.8,106.578 h -3.95 c -23.53,8.422 -39.42,-119.785 55.75,-106.578" /><path
         id="path24"
         style="fill:#c4122e;fill-opacity:1;fill-rule:evenodd;stroke:none"
         d="m 354.617,670.43 c 6.414,-3.723 12.789,-7.438 19.231,-11.18 -1.153,-9.445 -4.559,-15.645 -10.325,-18.605 -5.71,-2.934 -13.503,-2.848 -23.425,-0.262 -12.215,3.18 -22.914,9.402 -32.153,19.457 -4.617,5.023 -8.476,10.664 -11.484,16.969 -3.031,6.359 -5.344,13.414 -6.797,21.148 -1.523,8.133 -1.922,15.164 -1.055,21.008 0.864,5.789 2.907,10.453 6.239,13.73 6.675,6.567 16.808,7.75 30.121,3.918 11.57,-3.328 21.476,-9.418 29.761,-18.207 4.938,-5.238 9.063,-11.894 12.461,-20.047 -6.05,0.332 -12.078,0.692 -18.109,1.067 -1.934,5.133 -4.871,9.629 -8.883,13.441 -4.031,3.836 -8.613,6.442 -13.636,7.875 -7.036,2.004 -12.286,1.094 -15.782,-2.711 -3.519,-3.836 -4.144,-11.461 -2.086,-22.785 1.086,-5.98 2.524,-11.238 4.375,-15.742 1.844,-4.488 4.008,-8.238 6.555,-11.277 5.055,-6.039 10.914,-9.836 17.633,-11.641 4.988,-1.336 9,-0.965 12.074,1.137 3.082,2.109 4.883,6.332 5.285,12.707 z m 864.923,528.05 c 13.78,9.23 65.42,26.58 84.8,31.63 27.85,7.27 75.04,5.57 75.04,41.4 0,17.32 -15.43,27.63 -31.57,27.63 -12.42,0 -87.51,-27.64 -100.7,-34.82 -15.53,-8.44 -76.9,-31.97 -76.9,-46.1 0,-23.87 36,-20.4 49.33,-19.74 z m -234.419,-95.9 5.68,42.53 c -19.121,-5.16 -231.996,-130.45 -393.75,-143.77 -148.11,-12.184 -416.715,70.86 -483.035,60.17 -29.7816,-4.8 -151.891,-79.158 3.289,-24.2 65.133,23.07 257.883,-86.228 483.5,-63.814 95.265,9.465 263.679,103.134 384.316,129.084 z M 1158.37,580.734 c 28.59,2.168 45.11,41.762 7.9,46.813 -12.67,0 -27.63,-9.938 -27.63,-23.129 0,-13.863 9.78,-18.906 19.73,-23.684 z m 222.99,43.422 c 11.42,3.992 27.46,12.137 27.46,28.524 0,30.906 -78.28,-4.141 -27.46,-28.524 z m 31.94,-91.164 c 18.22,13.133 57.34,41.086 57.34,71.426 -104.43,-24.32 -206.85,-53.051 -325.3,-63.945 -19.65,-3.575 -38.51,-1.035 -56.18,-3.008 -20.17,-2.258 -43.27,1.965 -43.27,-13.965 l -0.6,-31.344 c 27.34,-6.437 319.97,6.196 368.01,40.836 z M 653.188,489.945 c 17.226,-7.632 142.117,-13.617 131.507,9.871 l -1.265,9.868 c -6.172,-0.512 -7.008,-1.973 -13.813,-1.973 -38.594,0 -75.262,-7.895 -112.476,-7.895 h -7.899 z M 434.145,486 c 1.035,4.426 1.972,4.539 1.972,9.867 v 5.922 c -16.101,3.578 -46.668,1.77 -58.543,5.453 C 367.973,496.566 421.648,486 434.145,486 Z m 597.925,31.578 c -13.96,0 -20.23,-4.16 -34.683,-6.758 -22.274,-4 -24.153,6.387 -22.539,-12.98 l 39.452,-0.836 19.74,0.082 z m 3.41,133.024 -7.43,25.281 c -1.39,-8.086 -78.948,-31.348 -183.835,-44.766 -89.688,-11.472 -206.871,-19.039 -249.043,-9.035 -7.422,1.758 -14.766,-23.406 5.808,-23.266 65.473,0.45 220.211,-13.464 434.5,51.786 z m -469.117,58.421 h 39.465 c 61.262,-11.664 430.282,7.739 423.482,58.985 l -8.4,22.605 C 915.648,775.512 720.305,695.18 539.496,737.414 c -72.723,16.988 -215.683,74.25 -286.574,60.102 -37.356,-3.661 -41.367,-22.047 -7.899,-33.411 20.079,-6.816 58.84,-4.46 97.485,-13.511 57.812,-13.531 120.836,-41.219 223.855,-41.571 z m -77.968,-12.589 c 6.238,-0.817 12.46,-1.547 18.683,-2.274 1.238,-8.523 2.43,-17.058 3.477,-25.539 1.047,-8.48 2.031,-16.961 3.015,-25.426 0.942,-8.086 1.817,-13.34 2.571,-15.761 1.226,-3.914 3.437,-7.157 6.609,-9.645 3.219,-2.535 7.328,-3.941 12.324,-4.246 5.102,-0.305 8.762,0.602 11.078,2.73 2.332,2.141 3.578,4.774 3.739,7.95 0.164,3.179 -0.211,8.449 -1,15.847 -0.914,8.598 -1.782,17.196 -2.766,25.813 -0.988,8.601 -2.117,17.258 -3.348,25.945 6.149,-0.051 12.321,-0.07 18.465,-0.094 1.164,-8.261 2.274,-16.519 3.18,-24.726 0.91,-8.203 1.691,-16.418 2.496,-24.594 1.113,-11.238 1.477,-19.18 1.043,-23.816 -0.438,-4.629 -1.742,-8.547 -3.914,-11.7 -2.18,-3.168 -5.277,-5.636 -9.402,-7.46 -4.09,-1.805 -9.625,-2.629 -16.692,-2.204 -8.523,0.516 -15.176,1.887 -19.867,4.352 -4.742,2.492 -8.625,5.613 -11.68,9.223 -3.023,3.582 -5.226,7.273 -6.508,11.007 -1.898,5.547 -3.554,13.614 -4.851,24.18 -1.02,8.375 -2.043,16.77 -3.137,25.172 -1.094,8.398 -2.265,16.828 -3.515,25.266 z m -94.106,-71.098 c -2.457,15.715 -4.906,31.434 -7.406,47.16 -2.492,15.731 -4.969,31.461 -7.43,47.192 9.531,-2.532 19.055,-4.993 28.555,-7.36 4.453,-11.519 8.902,-23.039 13.262,-34.551 4.363,-11.523 8.73,-23.043 13.089,-34.543 1.141,10.25 2.317,20.465 3.512,30.676 1.195,10.231 2.328,20.496 3.492,30.77 9.434,-1.891 18.879,-3.684 28.278,-5.364 2.308,-15.843 4.437,-31.675 6.496,-47.449 2.07,-15.804 4.195,-31.609 6.535,-47.453 -5.656,0.816 -11.281,1.789 -16.969,2.828 -1.879,12.531 -3.715,25.047 -5.41,37.52 -1.691,12.472 -3.441,24.965 -5.145,37.445 -1.335,-11.883 -2.644,-23.785 -3.933,-35.703 -1.285,-11.871 -2.41,-23.734 -3.555,-35.582 -5.933,1.332 -11.894,2.723 -17.824,4.25 -4.914,13.289 -9.859,26.566 -14.738,39.828 -4.887,13.27 -9.864,26.566 -14.828,39.848 1.863,-12.446 3.75,-24.891 5.664,-37.356 1.914,-12.457 3.816,-24.906 5.714,-37.351 -5.757,1.672 -11.554,3.398 -17.359,5.195" /><path
         id="path26"
         style="fill:#231f20;fill-opacity:1;fill-rule:evenodd;stroke:none"
         d="m 1168.24,476.41 c 23.13,0 121.11,14.403 112.65,-8.074 -53.69,-106.543 -134.58,8.074 -112.65,8.074 z M 972.102,983.488 c -12.586,-4.363 -11.618,-25.121 -11.618,-39.789 0,-7.183 2.735,-10.23 9.082,-7.277 0.282,12.851 0.457,35.199 14.461,39.527 8.871,2.965 16.333,3.551 24.143,4.715 l -0.44,11.844 c -10.066,-3.078 -25.339,-5.445 -35.628,-9.02 z m 36.378,-10.972 c -12.445,-0.411 -27.636,-2.899 -27.636,-25.356 0,-4.75 -0.5,-9.5 -0.5,-14.254 3.406,-2.176 24.956,13.367 20.476,-20.394 -1.937,-15.485 12.44,-89.387 -7.558,-95.789 -17.684,-6.106 -67.731,-25.719 -72.239,-2.66 -3.593,30.707 -13.82,84.746 1.141,100.898 4.805,5.187 14.481,7.977 23.477,9.816 5.992,19.848 -12.258,52.934 18.308,68.391 12.481,6.316 26.867,9.472 43.211,14.812 -0.53,14.88 -1.04,29.61 -1.53,44.1 -11.61,-5.73 -123.759,-53.506 -122.872,-59.685 8.445,1.648 21.437,-200.633 21.648,-222.489 3.176,-7.582 73.504,11.356 112.434,29.903 -3.48,55.105 -6.14,114.476 -8.36,172.707 z M 536.762,454.422 c -30.672,0 -36.137,63.156 7.89,63.156 38.391,0 25.481,-26.672 14.512,-50.039 -3.742,-7.992 -13.906,-13.117 -22.402,-13.117 z m 38.761,58.504 c -5.984,9.222 -21.035,18.469 -34.816,18.469 -43.949,0 -67.527,-90.79 -1.973,-90.79 h 1.973 c 30.465,0 50.5,48.149 34.816,72.321 z m 336.176,-7.188 c 0,-24.98 -26.148,-58.613 -53.535,-43.195 -58.945,33.191 53.535,120.77 53.535,43.195 z m -84.855,-7.898 v -23.684 c 0,-12.886 21.949,-27.629 37.496,-27.629 h 9.863 c 42.692,0 65.766,57.739 39.336,88.68 -7.113,9 -20.07,17.09 -35.562,17.797 -25.024,1.144 -51.133,-30.75 -51.133,-55.164 z m 404.536,244.734 c -1.97,23.684 -6.77,9.891 13.71,18.289 25.06,10.278 66.59,24.953 92.43,27.106 l 6.56,-14.801 c -37.51,-6.996 -79.05,-18.113 -112.7,-30.594 z m -15.79,53.289 c 39.69,16.664 86.96,28.754 130.25,57.235 l -4.64,-25.516 c -15.52,-10.996 -36.41,-18.125 -57.26,-25.07 -12.5,-4.164 -50.78,-20.465 -60.46,-20.465 -3.62,0 -7.02,10.105 -7.89,13.816 z m -1.53,-73.808 c 4.37,0 94.14,38.668 131.94,38.429 22.17,4.379 4.65,19.774 5.68,49.266 0.92,40.406 9.85,42.133 11.08,56.902 -34.9,8.141 -110.34,-68.992 -174.82,-51.097 -3.53,-7.367 11.36,-14.879 16.42,-30.93 9.95,-21.789 5.92,-64.254 9.7,-62.57 z m 23.24,-26.848 c 52.74,-4.394 86.54,23.457 122.35,41.449 10.49,-45.023 -122.35,-81.847 -122.35,-47.367 z m -9.87,-31.578 c 9.23,-1.621 18.08,-2.574 26.53,-2.941 99.05,-4.325 144.69,71.285 111.61,96.253 -0.42,0 -48.16,-29.039 -58.58,-32.75 -36.03,-12.851 -55.37,-16.265 -92.31,-13.195 z m -346.184,226.34 c -4.621,29.019 -5.855,62.867 -11.891,90.086 -1.64,5.636 -12.265,-3.422 -22.582,-7.496 -36.359,-14.36 -64.398,-24.246 -98.863,-42.489 0,-60.203 6.285,-120.859 10.641,-181.203 14.855,-4.851 97.265,8.961 124.969,14.426 7.265,20.809 0.82,107.238 -2.274,126.676 z M 653.188,489.945 c -1.313,3.293 1.992,6.582 0.679,9.871 43.703,0 78.758,2.786 122.297,6.403 0,-3.289 0,-6.582 0,-9.867 0,-10.77 -112.109,-6.407 -122.976,-6.407 z m -265.786,10.043 c 1.793,2 3.59,3.996 5.379,5.989 11.887,-3.684 27.227,-0.606 43.336,-4.188 0,-1.973 0,-3.949 0,-5.922 0,-5.328 -0.937,-5.441 -1.972,-9.867 -20.028,0 -25.543,7.914 -46.743,13.988 z m 644.668,17.59 c 0.66,-6.828 1.31,-13.66 1.97,-20.492 -6.58,-0.027 -13.16,-0.055 -19.74,-0.082 -13.15,0.277 -14.894,1.828 -28.046,2.105 -1.613,19.364 -11.141,7.711 11.133,11.711 14.453,2.598 20.723,6.758 34.683,6.758 z M 538.133,574.77 c 80.574,-7.567 109.894,-88.817 52.957,-161.008 -16.461,-20.867 -25.746,-22.211 -54.531,-22.211 -94.864,0 -120.739,180.863 1.574,183.219 z M 932.047,552.598 C 1019.18,445.703 844.395,357.313 803.125,447.465 c -34.863,76.137 54.238,185.621 128.922,105.133 z m 116.103,-54.727 c -0.75,6.57 -1.51,13.141 -2.26,19.707 0,1.973 0,3.945 0,5.922 172.65,-12.848 440.04,70.125 423.14,87.258 C 1442.48,481.023 1127.7,494.031 1048.15,497.871 Z m -25.85,40.031 c -7.35,-13.082 -7.39,-14.402 -36.222,-14.402 -14.758,22.047 -17.156,38.332 -40.594,57.715 -60.48,50.027 -158.664,13.855 -177.355,-66.399 -46.719,-3.886 -62.965,-2.91 -109.363,-2.91 -3.797,29.754 -57.86,87.707 -115.563,77.528 -109.89,-15.672 -96.816,-79.692 -116.078,-77.688 -96.648,2.469 -113.656,112.531 -172.52,226.438 0,41.632 130.84,-6.844 179.934,-18.903 217.477,-53.402 469.008,-17.043 581.721,23.422 1.34,-48.203 16.72,-185.781 6.04,-204.801 z m 53.18,220.461 c -3.1,-37.468 16.33,-89.258 57.02,-100.656 -41.68,-24.773 -104.98,51.016 -57.02,100.656 z m -142.3,-25.429 c -165.438,-38.754 -392.852,-29.153 -508.93,3.691 -49.766,32.867 -175.68,30.816 -174.84,35.379 2.324,12.68 -29.074,13.746 1.66,19.883 81.227,8.5 223.235,-39.242 288.426,-54.473 179.004,-41.812 422.609,28.707 476.794,48.578 1.44,-9.797 4.48,-23.465 -2.48,-27.082 -22.654,-11.793 -59.904,-19.867 -80.63,-25.976 z m 158.09,29.375 c 10.72,16 22.43,31.894 43.42,37.5 -5.8,-31.059 9.81,-54.942 49.33,-49.782 7.81,-22.695 1.47,-75.98 -32.31,-75.98 -40.69,0 -63.86,54.051 -60.44,88.262 z m 365.08,135.601 c -2.94,-22.953 18.1,-30.625 34.71,-30.996 0,-21.394 3.59,-47.742 -5.13,-67.184 -23,-51.234 -124.42,90.293 -29.58,98.18 z m -57.23,-21.129 c 1.31,0 2.63,0 3.95,0 -5.58,-67.019 27.91,-85.058 43.85,-104.383 -20.1,-0.16 -39.58,9.602 -49.32,23.051 -16.26,22.422 -13.31,56.406 1.52,81.332 z m -246.67,-63.156 c 13.75,3.203 44.18,17.941 59.41,23.48 62.28,22.653 132.61,46.856 197.36,61.938 -36.39,-15.043 -48.37,-74.352 -36.53,-103.434 27.99,-68.734 99.94,-43.839 115.86,-19.097 0.04,-57.953 0.67,-143.899 -60.99,-170.942 -118.85,-46.711 -309.1,-80.082 -375.88,-62.804 -12.66,0 -17.57,196.554 -18.34,209.734 7.68,3.477 16.41,7.797 24.09,11.27 -14.54,-26.032 -32.39,-125.379 65.81,-125.379 39.78,3.871 66.26,33.886 73.53,65.941 8.76,38.598 -1.67,95.406 -44.32,109.293 z m -588.059,84.867 c 93.363,2.621 169.636,26.93 168.867,26.903 1.941,-59.825 4.39,-118.997 6.332,-178.821 -68.762,-11.133 -185.067,-5.398 -185.067,7.844 0,13.961 -3.21,124.426 -4.714,143.363 4.863,0.239 9.722,0.477 14.582,0.711 z m 550.169,-68.679 c 65.05,38.097 249.33,100.14 330.34,93.207 -5.15,-3.598 -19.38,-8.899 -28.6,-11.493 -80.87,-22.781 -158.41,-38.898 -288.78,-94.683 -26.5,-3.524 -39.48,-19.586 -60.86,-30.352 -12.82,-6.461 -19.82,-12.832 -29.43,-13.633 -0.67,8.114 -0.95,15.274 -0.95,22.704 12.78,6.789 55.02,20.515 54.99,23.984 12.19,-0.844 7.25,1.543 23.29,10.266 z M 370.98,815.578 c 0.04,45.078 0.04,90.246 -0.027,135.317 56.082,-12.008 89.836,-50.426 165.809,-50.426 0,-49.297 3.738,-95.192 3.738,-144.688 -49.684,5.102 -98.137,30.715 -151.445,41.774 -9.27,1.922 -18.086,1.261 -18.075,18.023 z m -17.468,139.543 c 2.601,-53.254 3.285,-95.73 4.265,-149.219 -43.367,0.809 -85.16,15.039 -126.882,6.727 -21.516,37.566 -81.657,140.816 -86.981,150.348 60.32,17.75 162.766,23.507 209.598,-7.856 z M 1574.75,1072.18 c 9.07,13.54 10.21,17.76 33.55,17.76 -4.49,-8.47 -25.66,-27.68 -25.66,-33.56 0,-1.97 0,-3.94 0,-5.92 2.6,-0.74 5.21,-1.47 7.82,-2.21 -3.71,-4.73 -7.41,-9.45 -11.12,-14.17 -1.53,12.7 -3.06,25.4 -4.59,38.1 z m -595.551,60.85 c -9.73,-36.44 1.887,-30.93 7.332,-69.9 C 855.07,992.945 736.633,933.004 612.93,923.172 457.426,910.809 389.07,987.945 251.563,996.684 c -59.536,3.776 -118.286,-3.692 -179.2935,-12.27 -46.1054,-5.383 -24.2031,114.496 130.3635,65.626 142.078,-44.93 314.937,-87.392 466.008,-46.61 104.648,32.8 248.273,99.78 310.558,129.6 z m 627.121,-5.59 c 0,-3.29 0,-6.58 0,-9.87 -1.32,0 -2.63,0 -3.94,0 -0.28,12.31 -5.56,31.09 -19.14,28.92 -13.83,-1.87 -23.88,-6.6 -37.71,-8.46 0.02,2.52 5.39,9.33 5.41,11.86 24.48,-7.56 55.38,43.9 55.38,-22.45 z m -581.84,-73.17 c 32.38,17.13 217.95,117.88 248.34,118.56 -1.35,-2.61 -2.7,-5.22 -4.05,-7.84 3.3,-84.12 3.01,-175.279 1.81,-259.467 -62.71,-19.332 -119.17,-50.476 -147.73,-56.375 24.77,38.965 49.53,77.93 74.3,116.895 7.38,-4.93 22.09,-22.156 30.28,-22.156 6.1,0 9.41,4.254 11.85,7.894 -2.8,3.821 -20.86,13.106 -27.17,20.196 -6.92,7.781 -12.3,21.285 -17.7,27.695 -9.96,11.828 -24.62,60.658 -32.1,60.658 -2.7,0 -4.71,-4.12 -5.91,-5.92 0.82,-5.23 1.64,-10.47 2.46,-15.71 0.46,-6.06 -4.11,-4.06 1.82,-17.5 3,-6.79 3.61,-10.74 3.61,-20.08 5.96,-8.909 11.34,-20.807 23.68,-23.682 -0.27,-11.676 -76.86,-133.094 -96.18,-144.883 -15.56,-9.496 -39.57,-20.293 -58.11,-20.293 0,81.078 -9.2,160.383 -9.2,242.008 z m 255.95,119.03 c 5,3.06 10.02,6.1 15.02,9.15 0.35,-0.57 0.7,-1.15 1.05,-1.73 0,-5.92 0,-11.84 0,-17.76 0.95,-30.6 7.27,-246.784 4.38,-246.702 -3.26,-0.817 -12.36,-4.555 -15.61,-5.375 -0.79,84.543 -1.97,174.927 -4.84,262.417 z m -1073.219,58.74 c 0,42.55 12.539,-41.81 11.844,-59.21 -13.696,0 -12.684,49.38 -11.844,59.21 z m 1105.079,-45.4 c 46.18,12.57 136.37,31.58 213.85,31.58 -1.44,-17.31 -21.7,-282.228 -33.28,-282.228 -11.18,0 -25.88,0.84 -37.07,0.84 -12.53,0 -58.65,84.828 -58.65,95.868 0,0.66 0,1.32 0,1.97 0,10.99 8.84,34.31 12.1,43.17 3.02,8.23 5.76,13.86 9.99,21.58 4.52,8.24 4.24,17.24 7.51,24.07 -3.56,2.39 -3.46,3.95 -7.89,3.95 -4.42,0 -4.33,-1.56 -7.89,-3.95 0,-29.65 -47.67,-110.69 -65.12,-122.37 0,-13.241 -3.95,-14.64 -3.95,-19.733 0,-4.176 0.71,-2.602 1.97,-7.895 1.99,-0.625 3.98,-1.246 5.96,-1.867 11.88,6.195 11.04,5.633 20,15.375 4.03,4.375 13.84,17.41 17.45,19.83 24.87,-18.217 23.29,-33.201 44.66,-70.033 -17.14,-2.039 -88.04,-10.449 -118.09,-20.117 1.9,79.465 -5.39,172.02 -6.09,254.17 0.54,3.83 -0.02,3.49 -1.38,5.92 1.97,3.3 3.95,6.59 5.92,9.87 z m 261.68,180.18 c 71.13,-50.09 24.94,-99.73 -43.3,-115 -82.35,-18.43 -249.08,-29.79 -463.89,-153.17 -103.143,-60.03 -79.221,39.92 -8.69,79.74 116.46,101.58 513.77,184.95 515.88,188.43 z m -1119.532,34.03 c -30.297,-3.66 -53.258,-8.37 -83.559,-12.03 -15.484,7.93 4.363,20.16 14.711,19.67 17.578,-0.84 14.805,6.7 17.238,16.17 21.699,6.84 49.238,4.78 51.61,-23.81 z m -226.891,20.57 c -13.754,-40.81 -16.731,-141.15 -20.473,-161.33 -0.672,0.03 -16.301,186.89 20.473,161.33 z m 41.941,25.66 c 11.571,14.15 67.903,26.03 85.723,23.77 1.906,-0.14 42.109,-4.36 23.937,-6.74 -21.394,-2.8 -88.265,-14.22 -109.66,-17.03 z m 1079.112,16.66 c 8,-27.4 1.19,-32.95 1.19,-56.05 0,-8.42 0.58,-11.92 7.89,-15.78 1.89,1.41 3.79,2.82 5.68,4.23 0.24,24.18 6.52,38.23 17.91,51.12 5.44,6.15 33.31,23.59 45.47,23.59 25.03,0 26.07,-73.46 15.8,-88.81 1.96,-2.27 3.44,-5.92 5.91,-5.92 1.09,0 11.09,15.99 34.71,19.71 41.23,6.49 98.75,-6.07 25.77,-28.66 -201.07,-62.23 -302.17,-81.98 -508.4,-196.06 -80.327,-44.44 -156.507,-84.93 -229.745,-115.48 -169.422,-70.661 -274.828,-68.798 -452.074,-12.52 -124.578,39.55 -200.426,96.51 -6.832,124.13 13.394,61.5 102.684,254.21 194.144,100.76 16.586,-1.02 12.196,-1.78 16.848,3.27 -11.707,51.45 78.598,71.33 100.301,11.67 16.719,-42.74 -6.305,-90.56 11.562,-89.72 43.438,2.04 -6.351,-6.21 72.211,102.42 56.891,56.63 90.805,0.2 122.293,-2.42 2.34,4.39 16.684,13.79 19.028,18.18 -89.082,32.94 40.953,255 156.554,108.5 12.09,-15.33 18.58,-26.71 27.91,-45.1 6.53,-12.84 5.43,-37.96 14.36,-43.93 2.92,1.95 14.73,-3.33 14.59,1.83 -0.92,16.11 -9.04,34.7 -6.52,49.78 1.79,10.62 5.98,21.38 11.21,30.39 17.29,29.8 62.49,60.01 94.74,7.04 2.28,-14.8 19.52,-45.77 34.75,-45.77 1.05,0 4.34,2.84 5.92,3.95 0.74,0.39 1.48,0.78 2.22,1.17 -13.46,25.5 -26.91,48.49 -40.36,73.99 -7.16,149.41 154.53,114.65 184.96,10.49 z m 224.56,-476.435 c 17.13,2.144 66.31,-5.985 70.68,18.415 7.12,39.71 17.82,112.07 -21.68,108.41 -0.64,1.82 -1.28,3.64 -1.92,5.45 15.3,68.1 -26.07,51.55 -69.83,47.63 0.84,21.09 1.9,58.2 27.11,58.2 144.25,38.57 70.56,224.3 -91.57,192.15 -7.15,-1.81 -14.29,-3.62 -21.43,-5.43 -0.1,7.08 -0.19,14.15 -0.28,21.22 0,20.61 -6.26,47.37 -25.65,47.37 -2.64,0 -5.27,0 -7.9,0 -33.53,0 -46.48,-23.04 -65.12,-35.52 2.84,27.68 -11.38,57.49 -37.07,87.25 -72.01,83.29 -180,21.93 -180,-71.47 -52.17,27.62 -96.46,-28.02 -107.75,-76.5 -6.65,1.78 -40.26,97.54 -111.422,100.08 -71.746,2.58 -128.137,-67.53 -128.137,-134.1 0,-2.63 0,-5.26 0,-7.9 0,-26.61 4.375,-22.83 -14.566,-14.57 -11.43,4.99 -23.145,6.68 -38.715,6.68 -20.16,0 -55.293,-31.89 -62.758,-43.81 -80.664,-128.7 14.036,-32.52 -83.761,32.77 -51.758,34.56 -83.875,-34.34 -91.313,-35.53 -128.43,142.09 -218.301,-124.8 -205.18,-98.78 -1.312,-0.87 -67.906,-9.34 -70.328,-6.88 -12.211,24.86 -10.382,148.03 -2.457,206.82 4.18,30.99 5.746,29.05 33.7,40.44 18.492,7.53 36.902,10.89 70.519,18.59 13.426,3.07 63.176,11.35 55.313,-12.63 -22.106,-5.15 -23.446,-18.18 -34.075,-34.27 -5.242,-7.93 -19.8,-13.98 -19.8,-14.69 -9.25,-37.17 58.121,-20.35 120.871,-12.21 43.898,5.69 48.398,25.31 32.734,25.31 -31.027,0 -28.547,40.05 -69.07,43.42 0,73.7 -182.688,22.45 -212.418,-3.82 -42.098,-34.5 -15.785,-185.78 -22.317,-264.15 -80.652,-15.29 -156.4137,-96.68 -156.4137,-174.51 0,-13.263 13.7578,-43.658 26.5195,-45.166 C 191.176,941.059 246.57,650.293 338.242,530.211 c 38.59,-69.418 87.938,-61.191 90.707,-68.992 26.422,-74.403 47.227,-106.16 139.387,-93.637 75.07,17.836 80.102,56.035 89.336,103.109 43.848,2.657 66.812,0.774 110.394,4.907 3.434,-17.692 16.184,-56.032 36.872,-70.91 75.566,-56.458 174.671,-12.461 189.062,78.839 52.72,0 100.27,-7.507 144.59,-7.238 1.77,-21.168 15.48,-35.437 27.19,-48.004 40.83,-43.765 105.55,-24.59 138.29,18.57 12.47,16.45 11.86,25.426 21.2,41.95 5.22,9.242 37.48,10.293 49.78,13.375 188.07,44.808 106.51,243.656 168.25,619.41 2.4,-0.91 22.48,10.22 33.36,12.09 12.68,-7.59 9.93,-13.02 9.93,-25.98 -0.29,0.6 -0.57,1.21 -0.86,1.82 -22.33,-10.48 -28.04,-6.79 -24.56,-31.39 1.1,-14.86 -10.47,-97.278 11.99,-90.825" /><path
         id="path28"
         style="fill:#b2b1b1;fill-opacity:1;fill-rule:evenodd;stroke:none"
         d="m 1259.68,1364.36 c -5.38,4.67 -11.84,7.62 -11.84,17.76 v 1.97 c 0,18.57 47.36,40.1 47.36,13.82 v -5.92 c 0,-21.05 -24.36,-22.28 -35.52,-27.63 z M 275.672,1152.41 c 0,-9.93 10.656,-29.42 23.226,-23.03 -15.597,25.58 3.313,58.46 19.071,77.98 22.535,10.56 48.031,2.49 69.605,-5.74 4.18,-3.65 9.578,-10.2 14.75,-16.59 -8.594,-11.81 -13.844,-26.4 -13.844,-42.18 0,-9.05 5.192,-25.55 17.766,-19.73 -2.726,4.06 -5.926,5.12 -5.926,9.86 v 13.82 c 0,10.67 4.246,21.5 9.078,29.56 3.977,-4.76 7.282,-8.32 9,-8.75 l -0.64,19.48 -0.016,0.02 c 2.848,2.73 5.867,4.87 9.621,7.65 10.504,7.78 12.254,0.83 14.477,7.72 l 12.973,-1.68 4.714,5.21 c 7.121,-3.42 13.489,-1.25 23.707,-5.9 13.672,-6.23 6.942,-4.33 17.149,-12.45 9.758,-7.76 26.148,-29.92 30.824,-30.97 l -0.641,17.74 c -18.07,26.99 -39.027,46.41 -84.105,38.73 -12.824,-2.18 -24.828,-8.38 -34.555,-17.36 -49.429,67.33 -136.234,32.4 -136.234,-43.39 z m 689.031,175.96 8.324,-3.83 c -4.726,15.31 16.481,32.6 31.983,34.62 27.01,3.53 14.13,-18.44 36.65,-18.95 -3.73,13.97 -10.34,31.58 -27.62,31.58 -33.458,6.77 -52.001,-14.28 -49.337,-43.42 z m -88.801,-78.94 v -7.9 c 0,-4.42 1.559,-4.33 3.946,-7.89 v -9.87 c 4.797,-2.3 15.172,-9.87 17.765,-9.87 13.563,0 -9.875,18.82 -9.875,35.53 0,15.58 20.512,27.62 37.496,27.62 12.731,0 15.485,-11.84 19.735,-11.84 4.554,0 5.926,1.38 5.926,5.93 v 5.91 c 0,8.47 -15.989,11.85 -25.661,11.85 h -11.836 c -3.148,0 -22.21,-9.36 -25.23,-12.27 -6.609,-6.36 -12.266,-14.94 -12.266,-27.2 z M 550.297,1097.46 c 0,-8.85 2.848,-17.87 6,-23.93 l 7.812,2.22 c -0.511,6.17 -1.968,7.01 -1.968,13.81 v 3.95 c 0,22.52 15.652,39.47 37.492,39.47 h 13.812 c 12.297,0 26.203,-15.27 35.524,-17.76 1.351,2.41 1.972,2.11 1.972,5.92 0,33.01 -100.644,37.75 -100.644,-23.68 z m -75.047,10.09 h 1.227 c 23.343,2.93 41.457,-16.06 18.796,-36.01 -26.41,-26.48 -61.171,36.01 -20.023,36.01 z m 257.266,11.16 h 1.007 c 19.188,2.4 34.079,-13.21 15.454,-29.61 -21.711,-21.77 -50.286,29.61 -16.461,29.61 z m 358.694,175 6.78,-4.6 -0.97,7.21 c 13.72,6.21 8.29,19.53 34.25,18.62 24.32,-0.86 9.75,-18.34 29.53,-22.09 -1.23,12.86 -4.49,29.36 -19.71,31.89 -23.53,3.92 -45.56,-8.28 -49.88,-31.03 z m -89.86,-56.57 -1.16,-6.96 c -0.651,-3.9 0.74,-4.05 2.32,-7.54 l -1.45,-8.7 c 3.89,-2.73 11.92,-10.92 14.21,-11.3 11.96,-2 -5.93,18.04 -3.48,32.77 2.28,13.73 22.13,21.34 37.1,18.85 11.23,-1.87 11.91,-12.71 15.66,-13.34 4.01,-0.66 5.42,0.35 6.09,4.35 l 0.87,5.23 c 1.24,7.45 -12.35,12.78 -20.88,14.2 l -10.43,1.73 c -2.78,0.47 -20.96,-4.98 -24.05,-7.11 -6.76,-4.64 -13.01,-11.37 -14.8,-22.18 z M 818.781,1128.79 c -1.301,-7.79 -0.117,-16.17 1.774,-21.97 l 7.215,0.81 c 0.453,5.51 -0.707,6.47 0.285,12.47 l 0.582,3.48 c 3.308,19.85 19.59,32.5 38.843,29.29 l 12.176,-2.03 c 10.844,-1.8 20.86,-17.3 28.707,-20.86 1.551,1.92 2.051,1.57 2.614,4.93 4.843,29.09 -83.184,48.04 -92.196,-6.12 z m -135.992,63.77 c -1.328,-7.98 0.82,-23.29 12.758,-20.01 -1.801,3.99 -4.461,5.39 -3.77,9.57 l 2.032,12.18 c 2.027,12.2 10.371,23.57 17.105,29.69 4.422,4.02 8.289,5.83 13.766,8.62 10.398,5.32 10.929,-1.06 13.898,4.69 l 11.188,-3.39 4.922,3.9 c 5.777,-4.06 11.71,-3.08 20.031,-8.68 11.14,-7.49 5.484,-4.83 13.289,-13.49 7.469,-8.27 18.668,-30.21 22.633,-31.82 l 2.035,15.73 c -11.969,26.44 -27.594,46.63 -68.461,46.48 -28.508,-0.1 -56.223,-22.19 -61.426,-53.47 z m 622.281,199.43 v 5.92 c 0,10.06 -17.67,23.68 -31.57,23.68 h -1.98 c -30.15,0 -54.19,-33.7 -30.16,-57.8 23.87,-23.92 63.71,5.24 63.71,28.2" /></g></g></svg>